<?xml version="1.0" encoding="UTF-8"?>
<svg id="Capa_2" data-name="Capa 2" xmlns="http://www.w3.org/2000/svg" xmlns:xlink="http://www.w3.org/1999/xlink" viewBox="0 0 539.63 442">
  <defs>
    <style>
      .cls-1 {
        fill: #000;
      }

      .cls-1, .cls-2, .cls-3, .cls-4, .cls-5, .cls-6, .cls-7, .cls-8 {
        stroke-width: 0px;
      }

      .cls-2 {
        fill: #9592f6;
      }

      .cls-3 {
        filter: url(#drop-shadow-3);
      }

      .cls-3, .cls-5, .cls-7, .cls-8 {
        fill: #fff;
      }

      .cls-4 {
        fill: #ffd24e;
      }

      .cls-5 {
        filter: url(#drop-shadow-2);
      }

      .cls-6 {
        fill: #423eaf;
      }

      .cls-8 {
        filter: url(#drop-shadow-1);
      }
    </style>
    <filter id="drop-shadow-1" filterUnits="userSpaceOnUse">
      <feOffset dx="8" dy="11"/>
      <feGaussianBlur result="blur" stdDeviation="13"/>
      <feFlood flood-color="#000" flood-opacity=".12"/>
      <feComposite in2="blur" operator="in"/>
      <feComposite in="SourceGraphic"/>
    </filter>
    <filter id="drop-shadow-2" filterUnits="userSpaceOnUse">
      <feOffset dx="8" dy="11"/>
      <feGaussianBlur result="blur-2" stdDeviation="13"/>
      <feFlood flood-color="#000" flood-opacity=".12"/>
      <feComposite in2="blur-2" operator="in"/>
      <feComposite in="SourceGraphic"/>
    </filter>
    <filter id="drop-shadow-3" filterUnits="userSpaceOnUse">
      <feOffset dx="8" dy="11"/>
      <feGaussianBlur result="blur-3" stdDeviation="13"/>
      <feFlood flood-color="#000" flood-opacity=".12"/>
      <feComposite in2="blur-3" operator="in"/>
      <feComposite in="SourceGraphic"/>
    </filter>
  </defs>
  <g id="Layer_2" data-name="Layer 2">
    <g>
      <path class="cls-4" d="M279.91,188.27h180.28c0,98.9-81.38,180.28-180.28,180.28s-180.28-81.38-180.28-180.28c0-68.68,39.24-131.63,100.9-161.87l79.38,161.87Z"/>
      <path class="cls-6" d="M279.91,188.27H99.63c0,98.9,81.38,180.28,180.28,180.28s180.28-81.38,180.28-180.28S378.81,7.99,279.91,7.99c-28.53,0-56.66,6.77-82.06,19.76l82.06,160.52Z"/>
      <path class="cls-2" d="M279.91,188.27l170.61,58.26c-24.86,72.79-93.69,122.02-170.61,122.02-98.9,0-180.28-81.38-180.28-180.28h180.28Z"/>
      <circle class="cls-7" cx="278.55" cy="188.27" r="70.36"/>
      <g>
        <path class="cls-1" d="M0,88.79c.92-.19,2.25-.29,3.51-.29,1.95,0,3.21.36,4.1,1.15.71.63,1.11,1.6,1.11,2.69,0,1.87-1.18,3.11-2.67,3.61v.06c1.09.38,1.74,1.39,2.08,2.86.46,1.97.8,3.34,1.09,3.88h-1.89c-.23-.4-.55-1.62-.95-3.38-.42-1.95-1.18-2.69-2.83-2.75h-1.72v6.13H0v-13.96ZM1.83,95.23h1.87c1.95,0,3.19-1.07,3.19-2.69,0-1.83-1.32-2.62-3.25-2.65-.88,0-1.51.08-1.81.17v5.17Z"/>
        <path class="cls-1" d="M12.35,98c.04,2.5,1.64,3.53,3.49,3.53,1.32,0,2.12-.23,2.81-.52l.31,1.32c-.65.29-1.76.63-3.38.63-3.13,0-5-2.06-5-5.12s1.81-5.48,4.77-5.48c3.32,0,4.2,2.92,4.2,4.79,0,.38-.04.67-.06.86h-7.14ZM17.77,96.68c.02-1.18-.48-3-2.56-3-1.87,0-2.69,1.72-2.83,3h5.4Z"/>
        <path class="cls-1" d="M22.03,102.75v-8.76h-1.43v-1.41h1.43v-.48c0-1.43.31-2.73,1.18-3.55.69-.67,1.62-.95,2.48-.95.65,0,1.22.15,1.57.29l-.25,1.43c-.27-.13-.65-.23-1.18-.23-1.57,0-1.97,1.39-1.97,2.94v.55h2.46v1.41h-2.46v8.76h-1.83Z"/>
        <path class="cls-1" d="M28.73,98c.04,2.5,1.64,3.53,3.48,3.53,1.32,0,2.12-.23,2.81-.52l.31,1.32c-.65.29-1.76.63-3.38.63-3.13,0-5-2.06-5-5.12s1.8-5.48,4.77-5.48c3.32,0,4.2,2.92,4.2,4.79,0,.38-.04.67-.06.86h-7.14ZM34.14,96.68c.02-1.18-.48-3-2.56-3-1.87,0-2.69,1.72-2.84,3h5.4Z"/>
        <path class="cls-1" d="M38.22,95.76c0-1.2-.02-2.22-.08-3.17h1.62l.06,1.99h.08c.46-1.36,1.58-2.22,2.81-2.22.21,0,.36.02.53.06v1.74c-.19-.04-.38-.06-.63-.06-1.3,0-2.22.99-2.48,2.37-.04.25-.08.54-.08.86v5.42h-1.83v-6.99Z"/>
        <path class="cls-1" d="M45.17,95.76c0-1.2-.02-2.22-.08-3.17h1.62l.06,1.99h.08c.46-1.36,1.58-2.22,2.81-2.22.21,0,.36.02.53.06v1.74c-.19-.04-.38-.06-.63-.06-1.3,0-2.22.99-2.48,2.37-.04.25-.08.54-.08.86v5.42h-1.83v-6.99Z"/>
        <path class="cls-1" d="M57.56,102.75l-.15-1.28h-.06c-.57.8-1.66,1.51-3.11,1.51-2.06,0-3.11-1.45-3.11-2.92,0-2.46,2.18-3.8,6.11-3.78v-.21c0-.84-.23-2.35-2.31-2.35-.95,0-1.93.29-2.64.76l-.42-1.22c.84-.55,2.06-.9,3.34-.9,3.11,0,3.86,2.12,3.86,4.16v3.8c0,.88.04,1.74.17,2.44h-1.68ZM57.29,97.56c-2.02-.04-4.3.31-4.3,2.29,0,1.2.8,1.76,1.74,1.76,1.32,0,2.16-.84,2.46-1.7.06-.19.11-.4.11-.59v-1.76Z"/>
        <path class="cls-1" d="M62.05,87.84h1.85v14.91h-1.85v-14.91Z"/>
      </g>
      <g>
        <path class="cls-1" d="M100.04,343.42c1.11-.17,2.44-.29,3.88-.29,2.62,0,4.49.61,5.73,1.76,1.26,1.15,2,2.79,2,5.08s-.71,4.2-2.04,5.5c-1.32,1.32-3.51,2.04-6.26,2.04-1.3,0-2.39-.06-3.32-.17v-13.92ZM101.87,355.93c.46.08,1.13.11,1.85.11,3.91,0,6.03-2.18,6.03-6,.02-3.34-1.87-5.46-5.73-5.46-.95,0-1.66.08-2.14.19v11.17Z"/>
        <path class="cls-1" d="M116.02,344.36c.02.63-.44,1.13-1.18,1.13-.65,0-1.11-.5-1.11-1.13s.48-1.15,1.15-1.15,1.13.5,1.13,1.15ZM113.96,357.38v-10.16h1.85v10.16h-1.85Z"/>
        <path class="cls-1" d="M118.88,350.39c0-1.2-.02-2.22-.08-3.17h1.62l.06,1.99h.08c.46-1.36,1.58-2.22,2.81-2.22.21,0,.36.02.52.06v1.74c-.19-.04-.38-.06-.63-.06-1.3,0-2.23.99-2.48,2.37-.04.25-.08.54-.08.86v5.42h-1.83v-6.99Z"/>
        <path class="cls-1" d="M126.57,352.63c.04,2.5,1.64,3.53,3.49,3.53,1.32,0,2.12-.23,2.81-.52l.32,1.32c-.65.29-1.76.63-3.38.63-3.13,0-5-2.06-5-5.12s1.81-5.48,4.77-5.48c3.32,0,4.2,2.92,4.2,4.79,0,.38-.04.67-.06.86h-7.14ZM131.98,351.31c.02-1.18-.48-3-2.56-3-1.87,0-2.69,1.72-2.83,3h5.4Z"/>
        <path class="cls-1" d="M143.3,357c-.48.25-1.55.59-2.92.59-3.07,0-5.06-2.08-5.06-5.19s2.14-5.4,5.46-5.4c1.09,0,2.06.27,2.56.52l-.42,1.43c-.44-.25-1.13-.48-2.14-.48-2.33,0-3.59,1.72-3.59,3.84,0,2.35,1.51,3.8,3.53,3.8,1.05,0,1.74-.27,2.27-.5l.31,1.39Z"/>
        <path class="cls-1" d="M147.96,344.3v2.92h2.65v1.41h-2.65v5.48c0,1.26.36,1.97,1.39,1.97.48,0,.84-.06,1.07-.13l.08,1.39c-.36.15-.92.25-1.64.25-.86,0-1.55-.27-2-.78-.52-.55-.71-1.45-.71-2.65v-5.54h-1.58v-1.41h1.58v-2.44l1.8-.48Z"/>
      </g>
      <g>
        <path class="cls-1" d="M484.9,66.61c0,4.87-2.96,7.45-6.57,7.45s-6.36-2.9-6.36-7.18c0-4.49,2.79-7.43,6.57-7.43s6.36,2.96,6.36,7.16ZM473.92,66.84c0,3.02,1.64,5.73,4.51,5.73s4.54-2.67,4.54-5.88c0-2.81-1.47-5.75-4.51-5.75s-4.54,2.79-4.54,5.9Z"/>
        <path class="cls-1" d="M487.22,66.84c0-1.2-.02-2.22-.08-3.17h1.62l.06,1.99h.08c.46-1.36,1.57-2.22,2.81-2.22.21,0,.36.02.53.06v1.74c-.19-.04-.38-.06-.63-.06-1.3,0-2.23.99-2.48,2.37-.04.25-.08.54-.08.86v5.42h-1.83v-6.99Z"/>
        <path class="cls-1" d="M502.67,63.67c-.04.73-.08,1.55-.08,2.79v5.9c0,2.33-.46,3.76-1.45,4.64-.99.92-2.42,1.22-3.7,1.22s-2.56-.29-3.38-.84l.46-1.41c.67.42,1.72.8,2.98.8,1.89,0,3.28-.99,3.28-3.55v-1.13h-.04c-.57.94-1.66,1.7-3.23,1.7-2.52,0-4.33-2.14-4.33-4.96,0-3.44,2.25-5.4,4.58-5.4,1.76,0,2.73.92,3.17,1.76h.04l.08-1.53h1.62ZM500.76,67.68c0-.31-.02-.59-.1-.84-.34-1.07-1.24-1.95-2.58-1.95-1.76,0-3.02,1.49-3.02,3.84,0,1.99,1.01,3.65,3,3.65,1.13,0,2.16-.71,2.56-1.89.11-.32.15-.67.15-.99v-1.83Z"/>
        <path class="cls-1" d="M511.28,73.84l-.15-1.28h-.06c-.57.8-1.66,1.51-3.11,1.51-2.06,0-3.11-1.45-3.11-2.92,0-2.46,2.18-3.8,6.11-3.78v-.21c0-.84-.23-2.35-2.31-2.35-.95,0-1.93.29-2.65.76l-.42-1.22c.84-.55,2.06-.9,3.34-.9,3.11,0,3.86,2.12,3.86,4.16v3.8c0,.88.04,1.74.17,2.44h-1.68ZM511.01,68.65c-2.02-.04-4.3.31-4.3,2.29,0,1.2.8,1.76,1.74,1.76,1.32,0,2.16-.84,2.46-1.7.06-.19.11-.4.11-.59v-1.76Z"/>
        <path class="cls-1" d="M515.77,66.42c0-1.05-.02-1.91-.08-2.75h1.64l.1,1.68h.04c.5-.97,1.68-1.91,3.36-1.91,1.41,0,3.59.84,3.59,4.32v6.07h-1.85v-5.86c0-1.64-.61-3-2.35-3-1.22,0-2.16.86-2.48,1.89-.08.23-.13.55-.13.86v6.11h-1.85v-7.41Z"/>
        <path class="cls-1" d="M529.49,60.82c.02.63-.44,1.13-1.18,1.13-.65,0-1.11-.5-1.11-1.13s.48-1.15,1.16-1.15,1.13.5,1.13,1.15ZM527.43,73.84v-10.16h1.85v10.16h-1.85Z"/>
        <path class="cls-1" d="M539.59,73.46c-.48.25-1.55.59-2.92.59-3.06,0-5.06-2.08-5.06-5.19s2.14-5.4,5.46-5.4c1.09,0,2.06.27,2.56.52l-.42,1.43c-.44-.25-1.13-.48-2.14-.48-2.33,0-3.59,1.72-3.59,3.84,0,2.35,1.51,3.8,3.53,3.8,1.05,0,1.74-.27,2.27-.5l.32,1.39Z"/>
        <path class="cls-1" d="M472.56,96.81c.82.5,2.02.92,3.28.92,1.87,0,2.96-.99,2.96-2.41,0-1.32-.76-2.08-2.67-2.81-2.31-.82-3.74-2.02-3.74-4.01,0-2.21,1.83-3.84,4.58-3.84,1.45,0,2.5.34,3.13.69l-.5,1.49c-.46-.25-1.41-.67-2.69-.67-1.93,0-2.67,1.15-2.67,2.12,0,1.32.86,1.97,2.81,2.73,2.39.92,3.61,2.08,3.61,4.16,0,2.18-1.62,4.07-4.96,4.07-1.36,0-2.86-.4-3.61-.9l.46-1.53Z"/>
        <path class="cls-1" d="M484.25,94.29c.04,2.5,1.64,3.53,3.49,3.53,1.32,0,2.12-.23,2.81-.53l.32,1.32c-.65.29-1.76.63-3.38.63-3.13,0-5-2.06-5-5.12s1.81-5.48,4.77-5.48c3.32,0,4.2,2.92,4.2,4.79,0,.38-.04.67-.06.86h-7.14ZM489.67,92.97c.02-1.18-.48-3-2.56-3-1.87,0-2.69,1.72-2.83,3h5.4Z"/>
        <path class="cls-1" d="M499.37,99.04l-.15-1.28h-.06c-.57.8-1.66,1.51-3.11,1.51-2.06,0-3.11-1.45-3.11-2.92,0-2.46,2.18-3.8,6.11-3.78v-.21c0-.84-.23-2.35-2.31-2.35-.95,0-1.93.29-2.65.76l-.42-1.22c.84-.55,2.06-.9,3.34-.9,3.11,0,3.86,2.12,3.86,4.16v3.8c0,.88.04,1.74.17,2.44h-1.68ZM499.1,93.85c-2.02-.04-4.3.32-4.3,2.29,0,1.2.8,1.76,1.74,1.76,1.32,0,2.16-.84,2.46-1.7.06-.19.11-.4.11-.59v-1.76Z"/>
        <path class="cls-1" d="M503.87,92.04c0-1.2-.02-2.23-.08-3.17h1.62l.06,2h.08c.46-1.37,1.57-2.23,2.81-2.23.21,0,.36.02.53.06v1.74c-.19-.04-.38-.06-.63-.06-1.3,0-2.23.99-2.48,2.37-.04.25-.08.55-.08.86v5.42h-1.83v-6.99Z"/>
        <path class="cls-1" d="M517.77,98.66c-.48.25-1.55.59-2.92.59-3.07,0-5.06-2.08-5.06-5.19s2.14-5.4,5.46-5.4c1.09,0,2.06.27,2.56.53l-.42,1.43c-.44-.25-1.13-.48-2.14-.48-2.33,0-3.59,1.72-3.59,3.84,0,2.35,1.51,3.8,3.53,3.8,1.05,0,1.74-.27,2.27-.5l.31,1.39Z"/>
        <path class="cls-1" d="M519.93,84.13h1.85v6.34h.04c.29-.52.76-.99,1.32-1.3.55-.31,1.2-.53,1.89-.53,1.36,0,3.55.84,3.55,4.35v6.05h-1.85v-5.84c0-1.64-.61-3.02-2.35-3.02-1.2,0-2.14.84-2.48,1.85-.11.25-.13.53-.13.88v6.13h-1.85v-14.91Z"/>
      </g>
      <rect class="cls-8" x="89" y="47.42" width="96.68" height="96.68" rx="48.34" ry="48.34"/>
      <g>
        <path class="cls-1" d="M99.22,108.49v-2.19l2.8-2.72c6.73-6.41,9.77-9.81,9.81-13.79,0-2.68-1.3-5.15-5.23-5.15-2.39,0-4.38,1.22-5.59,2.23l-1.14-2.51c1.83-1.54,4.42-2.68,7.46-2.68,5.68,0,8.07,3.89,8.07,7.66,0,4.86-3.53,8.8-9.08,14.15l-2.11,1.95v.08h11.84v2.96h-16.83Z"/>
        <path class="cls-1" d="M137.53,95.03c0,8.96-3.32,13.91-9.16,13.91-5.15,0-8.63-4.83-8.72-13.54,0-8.84,3.81-13.7,9.16-13.7s8.72,4.95,8.72,13.34ZM123.22,95.43c0,6.85,2.11,10.74,5.35,10.74,3.65,0,5.39-4.26,5.39-10.99s-1.66-10.74-5.35-10.74c-3.12,0-5.39,3.81-5.39,10.99Z"/>
        <path class="cls-1" d="M152.69,89.55c0,5.55-2.92,8.31-6.32,8.31s-6.12-2.64-6.16-7.95c0-5.27,2.88-8.23,6.37-8.23,3.69,0,6.12,2.84,6.12,7.87ZM143.04,89.79c-.08,3.37,1.18,5.92,3.41,5.92,2.35,0,3.41-2.51,3.41-6,0-3.2-.93-5.88-3.41-5.88-2.23,0-3.41,2.64-3.41,5.96ZM146.12,108.93l15.49-27.25h2.27l-15.49,27.25h-2.27ZM169.83,100.46c0,5.55-2.92,8.31-6.28,8.31s-6.12-2.64-6.16-7.91c0-5.31,2.88-8.27,6.37-8.27,3.69,0,6.08,2.84,6.08,7.87ZM160.19,100.7c-.04,3.37,1.26,5.92,3.45,5.92,2.35,0,3.41-2.51,3.41-6,0-3.2-.93-5.88-3.41-5.88-2.23,0-3.45,2.64-3.45,5.96Z"/>
      </g>
      <rect class="cls-5" x="361.67" y="28.75" width="96.68" height="96.68" rx="48.34" ry="48.34"/>
      <rect class="cls-3" x="170.67" y="295.08" width="96.68" height="96.68" rx="48.34" ry="48.34"/>
      <g>
        <path class="cls-1" d="M194.74,360.38v-7.18h-12.24v-2.35l11.76-16.83h3.85v16.38h3.69v2.8h-3.69v7.18h-3.37ZM194.74,350.41v-8.8c0-1.38.04-2.76.12-4.13h-.12c-.81,1.54-1.46,2.68-2.19,3.89l-6.45,8.96v.08h8.63Z"/>
        <path class="cls-1" d="M220.24,337.03h-10.05l-1.01,6.77c.61-.08,1.18-.16,2.15-.16,2.03,0,4.05.45,5.68,1.42,2.07,1.18,3.77,3.45,3.77,6.77,0,5.15-4.09,9-9.81,9-2.88,0-5.31-.81-6.57-1.62l.89-2.72c1.09.65,3.24,1.46,5.64,1.46,3.36,0,6.24-2.19,6.24-5.72-.04-3.41-2.31-5.84-7.58-5.84-1.5,0-2.68.16-3.65.28l1.7-12.65h12.61v3Z"/>
        <path class="cls-1" d="M237.18,341.45c0,5.55-2.92,8.31-6.32,8.31s-6.12-2.64-6.16-7.95c0-5.27,2.88-8.23,6.37-8.23,3.69,0,6.12,2.84,6.12,7.87ZM227.54,341.69c-.08,3.37,1.18,5.92,3.41,5.92,2.35,0,3.41-2.51,3.41-6,0-3.2-.93-5.88-3.41-5.88-2.23,0-3.41,2.64-3.41,5.96ZM230.62,360.83l15.49-27.25h2.27l-15.49,27.25h-2.27ZM254.33,352.35c0,5.55-2.92,8.31-6.28,8.31s-6.12-2.64-6.16-7.91c0-5.31,2.88-8.27,6.37-8.27,3.69,0,6.08,2.84,6.08,7.87ZM244.68,352.6c-.04,3.37,1.26,5.92,3.45,5.92,2.35,0,3.41-2.51,3.41-6,0-3.2-.93-5.88-3.41-5.88-2.23,0-3.45,2.64-3.45,5.96Z"/>
      </g>
      <g>
        <path class="cls-1" d="M377.2,85.41c1.01.65,3.37,1.66,5.84,1.66,4.58,0,6-2.92,5.96-5.11-.04-3.69-3.37-5.27-6.81-5.27h-1.99v-2.68h1.99c2.59,0,5.88-1.34,5.88-4.46,0-2.11-1.34-3.97-4.62-3.97-2.11,0-4.13.93-5.27,1.74l-.93-2.59c1.38-1.01,4.05-2.03,6.89-2.03,5.19,0,7.54,3.08,7.54,6.28,0,2.72-1.62,5.03-4.87,6.2v.08c3.24.65,5.88,3.08,5.88,6.77,0,4.22-3.28,7.91-9.61,7.91-2.96,0-5.55-.93-6.85-1.78l.97-2.76Z"/>
        <path class="cls-1" d="M412.87,66.15h-10.05l-1.01,6.77c.61-.08,1.18-.16,2.15-.16,2.03,0,4.05.45,5.68,1.42,2.07,1.18,3.77,3.45,3.77,6.77,0,5.15-4.09,9-9.81,9-2.88,0-5.31-.81-6.57-1.62l.89-2.72c1.09.65,3.24,1.46,5.64,1.46,3.36,0,6.24-2.19,6.24-5.72-.04-3.41-2.31-5.84-7.58-5.84-1.5,0-2.68.16-3.65.28l1.7-12.65h12.61v3Z"/>
        <path class="cls-1" d="M429.82,70.57c0,5.55-2.92,8.31-6.32,8.31s-6.12-2.64-6.16-7.95c0-5.27,2.88-8.23,6.37-8.23,3.69,0,6.12,2.84,6.12,7.87ZM420.17,70.82c-.08,3.37,1.18,5.92,3.41,5.92,2.35,0,3.41-2.51,3.41-6,0-3.2-.93-5.88-3.41-5.88-2.23,0-3.41,2.63-3.41,5.96ZM423.25,89.95l15.49-27.25h2.27l-15.49,27.25h-2.27ZM446.96,81.48c0,5.55-2.92,8.31-6.28,8.31s-6.12-2.64-6.16-7.91c0-5.31,2.88-8.27,6.37-8.27,3.69,0,6.08,2.84,6.08,7.87ZM437.32,81.72c-.04,3.37,1.26,5.92,3.45,5.92,2.35,0,3.41-2.51,3.41-6,0-3.2-.93-5.88-3.41-5.88-2.23,0-3.45,2.64-3.45,5.96Z"/>
      </g>
    </g>
  </g>
</svg>