<?xml version="1.0" encoding="UTF-8"?>
<svg id="Capa_2" data-name="Capa 2" xmlns="http://www.w3.org/2000/svg" xmlns:xlink="http://www.w3.org/1999/xlink" viewBox="0 0 882.74 388.03">
  <defs>
    <style>
      .cls-1 {
        fill: #000;
      }

      .cls-1, .cls-2, .cls-3, .cls-4 {
        stroke-width: 0px;
      }

      .cls-5 {
        stroke: #8e8e8e;
        stroke-miterlimit: 10;
      }

      .cls-5, .cls-6 {
        fill: none;
      }

      .cls-2 {
        fill: #ffd24e;
      }

      .cls-3, .cls-4 {
        fill: #fff;
      }

      .cls-6 {
        stroke: #97b9ff;
        stroke-linecap: round;
        stroke-linejoin: round;
        stroke-width: 7px;
      }

      .cls-4 {
        filter: url(#drop-shadow-1);
      }
    </style>
    <filter id="drop-shadow-1" filterUnits="userSpaceOnUse">
      <feOffset dx="8" dy="11"/>
      <feGaussianBlur result="blur" stdDeviation="13"/>
      <feFlood flood-color="#000" flood-opacity=".12"/>
      <feComposite in2="blur" operator="in"/>
      <feComposite in="SourceGraphic"/>
    </filter>
  </defs>
  <g id="Layer_2" data-name="Layer 2">
    <g>
      <line class="cls-5" x1="71.46" y1="273.11" x2="875.65" y2="273.11"/>
      <line class="cls-5" x1="71.46" y1="339.49" x2="875.65" y2="339.49"/>
      <line class="cls-5" x1="71.46" y1="206.73" x2="875.65" y2="206.73"/>
      <line class="cls-5" x1="71.46" y1="140.35" x2="875.65" y2="140.35"/>
      <line class="cls-5" x1="71.46" y1="73.97" x2="875.65" y2="73.97"/>
      <path class="cls-6" d="M71.92,114.64h16.61c8.47,0,16.33,4.39,20.77,11.61l26.12,42.47c4.44,7.21,12.3,11.61,20.77,11.61h3.99c7.92,0,15.34,3.84,19.91,10.31l25.83,36.54c4.57,6.47,11.99,10.31,19.91,10.31h76.07c7.67,0,14.89-3.61,19.5-9.74l25.77-34.33c4.61-6.13,11.83-9.74,19.5-9.74h3.87c8.77,0,16.86-4.71,21.19-12.33l25.97-45.64c4.55-8,13.22-12.75,22.41-12.3l110.09,5.5c10.77.54,21.44,2.31,31.8,5.29l14.37,4.13c8.27,2.38,14.67,8.93,16.85,17.26l19.05,72.7c2.81,10.72,12.5,18.2,23.59,18.2h0c7.24,0,14.1-3.22,18.73-8.78l25.78-30.94c4.63-5.56,11.5-8.78,18.73-8.78h4.27c8.96,0,17.2-4.92,21.46-12.8l16.57-30.7c.41-.76.86-1.49,1.35-2.21l5.02-7.32c4.55-6.63,12.07-10.6,20.11-10.6h9.02c10.3,0,19.49,6.47,22.96,16.16l.32.88c.14.4.28.81.4,1.23l23.19,77.45c3.09,10.32,12.59,17.39,23.36,17.39h12.09"/>
      <rect class="cls-2" x="764.28" width="22.31" height="22.31" rx="8.62" ry="8.62"/>
      <rect class="cls-2" x="71.92" y="134.15" width="30.24" height="206.67" rx="15.12" ry="15.12"/>
      <rect class="cls-2" x="142.57" y="198.54" width="30.24" height="142.28" rx="15.12" ry="15.12"/>
      <rect class="cls-2" x="213.21" y="259.19" width="30.24" height="81.63" rx="15.12" ry="15.12"/>
      <rect class="cls-2" x="283.85" y="259.58" width="30.24" height="81.24" rx="15.12" ry="15.12"/>
      <rect class="cls-2" x="354.5" y="201.86" width="30.24" height="138.96" rx="15.12" ry="15.12"/>
      <rect class="cls-2" x="425.14" y="132.16" width="30.24" height="208.66" rx="15.12" ry="15.12"/>
      <rect class="cls-2" x="495.78" y="134.15" width="30.24" height="206.67" rx="15.12" ry="15.12"/>
      <rect class="cls-2" x="566.42" y="141.68" width="30.24" height="199.14" rx="15.12" ry="15.12"/>
      <rect class="cls-2" x="637.07" y="250.93" width="30.24" height="89.89" rx="15.12" ry="15.12"/>
      <rect class="cls-2" x="707.71" y="205.79" width="30.24" height="135.03" rx="15.12" ry="15.12"/>
      <rect class="cls-2" x="778.35" y="141.68" width="30.24" height="199.14" rx="15.12" ry="15.12"/>
      <rect class="cls-2" x="849" y="254.58" width="30.24" height="86.24" rx="15.12" ry="15.12"/>
      <rect class="cls-4" x="216" y="41.71" width="171.55" height="83.96" rx="26.09" ry="26.09"/>
      <circle class="cls-1" cx="440.44" cy="113.34" r="9.42"/>
      <circle class="cls-3" cx="440.44" cy="113.34" r="4.26"/>
      <g>
        <path class="cls-1" d="M11.14,340.88v-1.64c-.94-.02-1.91-.31-2.48-.71l.39-1.09c.58.39,1.43.7,2.34.7,1.15,0,1.93-.67,1.93-1.59s-.63-1.44-1.83-1.93c-1.65-.65-2.68-1.39-2.68-2.81s.96-2.37,2.45-2.61v-1.64h1.01v1.57c.97.03,1.64.29,2.11.57l-.41,1.07c-.34-.2-1.01-.55-2.04-.55-1.25,0-1.72.75-1.72,1.39,0,.84.6,1.27,2.01,1.85,1.67.68,2.51,1.52,2.51,2.97,0,1.28-.89,2.48-2.56,2.76v1.69h-1.02Z"/>
        <path class="cls-1" d="M23.66,334.1c0,3.58-1.33,5.56-3.67,5.56-2.06,0-3.46-1.93-3.49-5.42,0-3.54,1.52-5.48,3.67-5.48s3.49,1.98,3.49,5.34ZM17.94,334.27c0,2.74.84,4.3,2.14,4.3,1.46,0,2.16-1.7,2.16-4.4s-.67-4.3-2.14-4.3c-1.25,0-2.16,1.52-2.16,4.4Z"/>
      </g>
      <g>
        <path class="cls-1" d="M79.35,374.24h1.34v6.95c0,2.76-1.36,3.61-3.14,3.61-.49,0-1.09-.11-1.43-.25l.2-1.09c.28.11.68.2,1.12.2,1.2,0,1.91-.54,1.91-2.57v-6.84Z"/>
        <path class="cls-1" d="M87.01,384.63l-.11-.94h-.05c-.42.59-1.22,1.11-2.28,1.11-1.51,0-2.28-1.06-2.28-2.14,0-1.8,1.6-2.79,4.48-2.77v-.15c0-.62-.17-1.73-1.7-1.73-.69,0-1.42.22-1.94.55l-.31-.89c.62-.4,1.51-.66,2.45-.66,2.28,0,2.84,1.56,2.84,3.05v2.79c0,.65.03,1.28.12,1.79h-1.23ZM86.81,380.82c-1.48-.03-3.16.23-3.16,1.68,0,.88.59,1.29,1.28,1.29.97,0,1.59-.62,1.8-1.25.05-.14.08-.29.08-.43v-1.29Z"/>
        <path class="cls-1" d="M90.3,379.18c0-.77-.02-1.4-.06-2.02h1.2l.08,1.23h.03c.37-.71,1.23-1.4,2.47-1.4,1.03,0,2.64.62,2.64,3.17v4.45h-1.36v-4.3c0-1.2-.45-2.2-1.73-2.2-.89,0-1.59.63-1.82,1.39-.06.17-.09.4-.09.63v4.48h-1.36v-5.44Z"/>
      </g>
      <g>
        <path class="cls-1" d="M147.73,374.24h5.59v1.12h-4.25v3.45h3.93v1.11h-3.93v4.7h-1.34v-10.39Z"/>
        <path class="cls-1" d="M155.47,381.14c.03,1.83,1.2,2.59,2.56,2.59.97,0,1.56-.17,2.06-.39l.23.97c-.48.22-1.29.46-2.48.46-2.3,0-3.67-1.51-3.67-3.76s1.33-4.02,3.5-4.02c2.44,0,3.08,2.14,3.08,3.51,0,.28-.03.49-.05.63h-5.24ZM159.44,380.17c.02-.86-.35-2.2-1.88-2.2-1.37,0-1.97,1.26-2.08,2.2h3.96Z"/>
        <path class="cls-1" d="M162.37,384.63c.03-.51.06-1.26.06-1.93v-9.02h1.34v4.69h.03c.48-.83,1.34-1.37,2.54-1.37,1.85,0,3.16,1.54,3.14,3.81,0,2.67-1.68,3.99-3.34,3.99-1.08,0-1.94-.42-2.5-1.4h-.05l-.06,1.23h-1.17ZM163.77,381.64c0,.17.03.34.06.49.26.94,1.05,1.59,2.03,1.59,1.42,0,2.27-1.16,2.27-2.87,0-1.5-.77-2.77-2.22-2.77-.92,0-1.79.63-2.06,1.66-.03.15-.08.34-.08.55v1.34Z"/>
      </g>
      <g>
        <path class="cls-1" d="M226.09,380.06c-.08-1.45-.17-3.19-.15-4.49h-.05c-.35,1.22-.79,2.51-1.31,3.95l-1.83,5.04h-1.02l-1.68-4.95c-.49-1.46-.91-2.8-1.2-4.04h-.03c-.03,1.29-.11,3.04-.2,4.59l-.28,4.45h-1.28l.72-10.39h1.71l1.77,5.02c.43,1.28.79,2.42,1.05,3.5h.05c.26-1.05.63-2.19,1.09-3.5l1.85-5.02h1.71l.65,10.39h-1.31l-.26-4.56Z"/>
        <path class="cls-1" d="M233.89,384.63l-.11-.94h-.05c-.42.59-1.22,1.11-2.28,1.11-1.51,0-2.28-1.06-2.28-2.14,0-1.8,1.6-2.79,4.48-2.77v-.15c0-.62-.17-1.73-1.7-1.73-.69,0-1.42.22-1.94.55l-.31-.89c.62-.4,1.51-.66,2.45-.66,2.28,0,2.84,1.56,2.84,3.05v2.79c0,.65.03,1.28.12,1.79h-1.23ZM233.69,380.82c-1.48-.03-3.16.23-3.16,1.68,0,.88.59,1.29,1.28,1.29.97,0,1.59-.62,1.8-1.25.05-.14.08-.29.08-.43v-1.29Z"/>
        <path class="cls-1" d="M237.19,379.49c0-.88-.02-1.63-.06-2.33h1.19l.05,1.46h.06c.34-1,1.16-1.63,2.06-1.63.15,0,.26.02.39.05v1.28c-.14-.03-.28-.05-.46-.05-.96,0-1.63.72-1.82,1.74-.03.19-.06.4-.06.63v3.98h-1.34v-5.13Z"/>
      </g>
      <g>
        <path class="cls-1" d="M292.85,381.36l-1.08,3.27h-1.39l3.53-10.39h1.62l3.54,10.39h-1.43l-1.11-3.27h-3.68ZM296.26,380.31l-1.02-2.99c-.23-.68-.39-1.29-.54-1.9h-.03c-.15.62-.32,1.25-.52,1.88l-1.02,3h3.13Z"/>
        <path class="cls-1" d="M300.51,379.6c0-.96-.03-1.73-.06-2.43h1.22l.06,1.28h.03c.55-.91,1.43-1.45,2.65-1.45,1.8,0,3.16,1.53,3.16,3.79,0,2.68-1.63,4.01-3.39,4.01-.99,0-1.85-.43-2.3-1.17h-.03v4.05h-1.34v-8.08ZM301.85,381.59c0,.2.03.39.06.55.25.94,1.06,1.59,2.03,1.59,1.43,0,2.27-1.17,2.27-2.88,0-1.5-.79-2.77-2.22-2.77-.92,0-1.79.66-2.05,1.68-.05.17-.09.37-.09.55v1.28Z"/>
        <path class="cls-1" d="M309.27,379.49c0-.88-.02-1.63-.06-2.33h1.19l.05,1.46h.06c.34-1,1.16-1.63,2.06-1.63.15,0,.26.02.39.05v1.28c-.14-.03-.28-.05-.46-.05-.96,0-1.63.72-1.82,1.74-.03.19-.06.4-.06.63v3.98h-1.34v-5.13Z"/>
      </g>
      <g>
        <path class="cls-1" d="M368.65,380.06c-.08-1.45-.17-3.19-.15-4.49h-.05c-.35,1.22-.79,2.51-1.31,3.95l-1.83,5.04h-1.02l-1.68-4.95c-.49-1.46-.91-2.8-1.2-4.04h-.03c-.03,1.29-.11,3.04-.2,4.59l-.28,4.45h-1.28l.72-10.39h1.71l1.77,5.02c.43,1.28.79,2.42,1.05,3.5h.05c.26-1.05.63-2.19,1.09-3.5l1.85-5.02h1.71l.65,10.39h-1.31l-.26-4.56Z"/>
        <path class="cls-1" d="M376.45,384.63l-.11-.94h-.05c-.42.59-1.22,1.11-2.28,1.11-1.51,0-2.28-1.06-2.28-2.14,0-1.8,1.6-2.79,4.48-2.77v-.15c0-.62-.17-1.73-1.7-1.73-.69,0-1.42.22-1.94.55l-.31-.89c.62-.4,1.51-.66,2.45-.66,2.28,0,2.84,1.56,2.84,3.05v2.79c0,.65.03,1.28.12,1.79h-1.23ZM376.25,380.82c-1.48-.03-3.16.23-3.16,1.68,0,.88.59,1.29,1.28,1.29.97,0,1.59-.62,1.8-1.25.05-.14.08-.29.08-.43v-1.29Z"/>
        <path class="cls-1" d="M380.12,377.17l1.63,4.41c.17.49.35,1.08.48,1.53h.03c.14-.45.29-1.02.48-1.56l1.48-4.38h1.43l-2.03,5.32c-.97,2.56-1.63,3.87-2.56,4.67-.66.59-1.33.82-1.66.88l-.34-1.14c.34-.11.79-.32,1.19-.66.37-.29.83-.82,1.14-1.51.06-.14.11-.25.11-.32s-.03-.18-.09-.35l-2.76-6.87h1.48Z"/>
      </g>
      <g>
        <path class="cls-1" d="M434.49,374.24h1.34v6.95c0,2.76-1.36,3.61-3.14,3.61-.49,0-1.09-.11-1.43-.25l.2-1.09c.28.11.68.2,1.12.2,1.2,0,1.91-.54,1.91-2.57v-6.84Z"/>
        <path class="cls-1" d="M444.26,382.59c0,.77.02,1.45.06,2.03h-1.2l-.08-1.22h-.03c-.35.6-1.14,1.39-2.47,1.39-1.17,0-2.57-.65-2.57-3.27v-4.36h1.36v4.13c0,1.42.43,2.37,1.66,2.37.91,0,1.54-.63,1.79-1.23.08-.2.12-.45.12-.69v-4.58h1.36v5.42Z"/>
        <path class="cls-1" d="M446.5,379.18c0-.77-.02-1.4-.06-2.02h1.2l.08,1.23h.03c.37-.71,1.23-1.4,2.47-1.4,1.03,0,2.64.62,2.64,3.17v4.45h-1.36v-4.3c0-1.2-.45-2.2-1.73-2.2-.89,0-1.59.63-1.82,1.39-.06.17-.09.4-.09.63v4.48h-1.36v-5.44Z"/>
      </g>
      <g>
        <path class="cls-1" d="M509.9,374.24h1.34v6.95c0,2.76-1.36,3.61-3.14,3.61-.49,0-1.09-.11-1.43-.25l.2-1.09c.28.11.68.2,1.12.2,1.2,0,1.91-.54,1.91-2.57v-6.84Z"/>
        <path class="cls-1" d="M519.67,382.59c0,.77.02,1.45.06,2.03h-1.2l-.08-1.22h-.03c-.35.6-1.14,1.39-2.47,1.39-1.17,0-2.57-.65-2.57-3.27v-4.36h1.36v4.13c0,1.42.43,2.37,1.67,2.37.91,0,1.54-.63,1.79-1.23.08-.2.12-.45.12-.69v-4.58h1.36v5.42Z"/>
        <path class="cls-1" d="M521.92,373.68h1.36v10.94h-1.36v-10.94Z"/>
      </g>
      <g>
        <path class="cls-1" d="M574.86,381.36l-1.08,3.27h-1.39l3.53-10.39h1.62l3.54,10.39h-1.43l-1.11-3.27h-3.68ZM578.26,380.31l-1.02-2.99c-.23-.68-.39-1.29-.54-1.9h-.03c-.15.62-.32,1.25-.52,1.88l-1.02,3h3.13Z"/>
        <path class="cls-1" d="M588.61,382.59c0,.77.02,1.45.06,2.03h-1.2l-.08-1.22h-.03c-.35.6-1.14,1.39-2.47,1.39-1.17,0-2.57-.65-2.57-3.27v-4.36h1.36v4.13c0,1.42.43,2.37,1.67,2.37.91,0,1.54-.63,1.79-1.23.08-.2.12-.45.12-.69v-4.58h1.36v5.42Z"/>
        <path class="cls-1" d="M597.29,377.17c-.03.54-.06,1.14-.06,2.05v4.33c0,1.71-.34,2.76-1.06,3.41-.72.68-1.77.89-2.71.89s-1.88-.22-2.48-.62l.34-1.03c.49.31,1.26.58,2.19.58,1.39,0,2.4-.72,2.4-2.6v-.83h-.03c-.42.69-1.22,1.25-2.37,1.25-1.85,0-3.17-1.57-3.17-3.64,0-2.53,1.65-3.96,3.36-3.96,1.29,0,2,.68,2.33,1.29h.03l.06-1.12h1.19ZM595.88,380.11c0-.23-.02-.43-.08-.62-.25-.79-.91-1.43-1.9-1.43-1.29,0-2.22,1.09-2.22,2.82,0,1.46.74,2.68,2.2,2.68.83,0,1.59-.52,1.88-1.39.08-.23.11-.49.11-.72v-1.34Z"/>
      </g>
      <g>
        <path class="cls-1" d="M647.04,382.99c.6.37,1.48.68,2.4.68,1.37,0,2.17-.72,2.17-1.77,0-.97-.55-1.53-1.96-2.07-1.7-.6-2.74-1.48-2.74-2.94,0-1.62,1.34-2.82,3.36-2.82,1.06,0,1.83.25,2.3.51l-.37,1.09c-.34-.18-1.03-.49-1.97-.49-1.42,0-1.96.85-1.96,1.56,0,.97.63,1.45,2.07,2,1.76.68,2.65,1.53,2.65,3.05,0,1.6-1.19,2.99-3.64,2.99-1,0-2.1-.29-2.65-.66l.34-1.12Z"/>
        <path class="cls-1" d="M655.62,381.14c.03,1.83,1.2,2.59,2.56,2.59.97,0,1.56-.17,2.07-.39l.23.97c-.48.22-1.29.46-2.48.46-2.3,0-3.67-1.51-3.67-3.76s1.33-4.02,3.5-4.02c2.43,0,3.08,2.14,3.08,3.51,0,.28-.03.49-.05.63h-5.24ZM659.59,380.17c.02-.86-.35-2.2-1.88-2.2-1.37,0-1.97,1.26-2.08,2.2h3.96Z"/>
        <path class="cls-1" d="M662.58,379.6c0-.96-.03-1.73-.06-2.43h1.22l.06,1.28h.03c.55-.91,1.43-1.45,2.65-1.45,1.8,0,3.16,1.53,3.16,3.79,0,2.68-1.63,4.01-3.39,4.01-.99,0-1.85-.43-2.3-1.17h-.03v4.05h-1.34v-8.08ZM663.92,381.59c0,.2.03.39.06.55.25.94,1.06,1.59,2.03,1.59,1.43,0,2.27-1.17,2.27-2.88,0-1.5-.79-2.77-2.22-2.77-.92,0-1.79.66-2.05,1.68-.05.17-.09.37-.09.55v1.28Z"/>
      </g>
      <g>
        <path class="cls-1" d="M722.28,379.32c0,3.58-2.17,5.47-4.82,5.47s-4.67-2.13-4.67-5.27,2.05-5.46,4.82-5.46,4.67,2.17,4.67,5.25ZM714.22,379.49c0,2.22,1.2,4.21,3.31,4.21s3.33-1.96,3.33-4.32c0-2.06-1.08-4.22-3.31-4.22s-3.33,2.05-3.33,4.33Z"/>
        <path class="cls-1" d="M729.35,384.35c-.35.18-1.14.43-2.14.43-2.25,0-3.71-1.53-3.71-3.81s1.57-3.96,4.01-3.96c.8,0,1.51.2,1.88.39l-.31,1.05c-.32-.19-.83-.35-1.57-.35-1.71,0-2.64,1.26-2.64,2.82,0,1.73,1.11,2.79,2.59,2.79.77,0,1.28-.2,1.67-.37l.23,1.02Z"/>
        <path class="cls-1" d="M732.76,375.02v2.14h1.94v1.03h-1.94v4.02c0,.92.26,1.45,1.02,1.45.35,0,.62-.05.79-.09l.06,1.02c-.26.11-.68.19-1.2.19-.63,0-1.14-.2-1.46-.57-.38-.4-.52-1.06-.52-1.94v-4.07h-1.16v-1.03h1.16v-1.79l1.33-.35Z"/>
      </g>
      <g>
        <path class="cls-1" d="M784.85,384.63v-10.39h1.46l3.33,5.26c.77,1.22,1.37,2.31,1.87,3.38l.03-.02c-.12-1.39-.15-2.65-.15-4.27v-4.35h1.26v10.39h-1.36l-3.3-5.27c-.72-1.16-1.42-2.34-1.94-3.47l-.05.02c.08,1.31.11,2.56.11,4.28v4.44h-1.26Z"/>
        <path class="cls-1" d="M801.69,380.83c0,2.76-1.91,3.96-3.71,3.96-2.02,0-3.58-1.48-3.58-3.84,0-2.5,1.63-3.96,3.7-3.96s3.59,1.56,3.59,3.84ZM795.77,380.91c0,1.63.94,2.87,2.27,2.87s2.27-1.22,2.27-2.9c0-1.26-.63-2.87-2.23-2.87s-2.3,1.48-2.3,2.9Z"/>
        <path class="cls-1" d="M803.81,377.17l1.46,4.19c.25.68.45,1.29.6,1.91h.05c.17-.62.38-1.23.63-1.91l1.45-4.19h1.42l-2.93,7.46h-1.29l-2.84-7.46h1.45Z"/>
      </g>
      <g>
        <path class="cls-1" d="M854.99,374.38c.82-.12,1.79-.21,2.85-.21,1.93,0,3.3.45,4.21,1.29.92.85,1.46,2.05,1.46,3.73s-.52,3.08-1.49,4.04c-.97.97-2.57,1.5-4.59,1.5-.96,0-1.76-.05-2.44-.12v-10.22ZM856.33,383.56c.34.06.83.08,1.36.08,2.87,0,4.42-1.6,4.42-4.41.02-2.45-1.37-4.01-4.21-4.01-.69,0-1.22.06-1.57.14v8.2Z"/>
        <path class="cls-1" d="M866.01,381.14c.03,1.83,1.2,2.59,2.56,2.59.97,0,1.56-.17,2.07-.39l.23.97c-.48.22-1.29.46-2.48.46-2.3,0-3.67-1.51-3.67-3.76s1.33-4.02,3.5-4.02c2.43,0,3.08,2.14,3.08,3.51,0,.28-.03.49-.05.63h-5.24ZM869.99,380.17c.02-.86-.35-2.2-1.88-2.2-1.37,0-1.97,1.26-2.08,2.2h3.96Z"/>
        <path class="cls-1" d="M878.29,384.35c-.35.18-1.14.43-2.14.43-2.25,0-3.71-1.53-3.71-3.81s1.57-3.96,4.01-3.96c.8,0,1.51.2,1.88.39l-.31,1.05c-.32-.19-.83-.35-1.57-.35-1.71,0-2.64,1.26-2.64,2.82,0,1.73,1.11,2.79,2.59,2.79.77,0,1.28-.2,1.67-.37l.23,1.02Z"/>
      </g>
      <g>
        <path class="cls-1" d="M2.48,274.5v-1.64c-.94-.02-1.91-.31-2.48-.71l.39-1.09c.58.39,1.43.7,2.34.7,1.15,0,1.93-.67,1.93-1.59s-.63-1.44-1.83-1.93c-1.65-.65-2.68-1.39-2.68-2.81s.96-2.37,2.45-2.61v-1.64h1.01v1.57c.97.03,1.64.29,2.11.57l-.41,1.07c-.34-.2-1.01-.55-2.04-.55-1.25,0-1.72.75-1.72,1.39,0,.84.6,1.27,2.01,1.85,1.67.68,2.51,1.52,2.51,2.97,0,1.28-.89,2.48-2.56,2.76v1.69h-1.02Z"/>
        <path class="cls-1" d="M7.99,273.11v-.88l1.12-1.09c2.69-2.56,3.91-3.92,3.93-5.51,0-1.07-.52-2.06-2.09-2.06-.96,0-1.75.49-2.24.89l-.45-1.01c.73-.62,1.77-1.07,2.98-1.07,2.27,0,3.23,1.56,3.23,3.07,0,1.95-1.41,3.52-3.63,5.66l-.84.78v.03h4.74v1.18h-6.73Z"/>
        <path class="cls-1" d="M23.32,267.72c0,3.58-1.33,5.56-3.67,5.56-2.06,0-3.46-1.93-3.49-5.42,0-3.54,1.52-5.48,3.67-5.48s3.49,1.98,3.49,5.34ZM17.59,267.89c0,2.74.84,4.3,2.14,4.3,1.46,0,2.16-1.7,2.16-4.4s-.67-4.3-2.14-4.3c-1.25,0-2.16,1.52-2.16,4.4Z"/>
        <path class="cls-1" d="M26.49,268.86h.03c.19-.28.47-.62.7-.89l2.3-2.71h1.72l-3.03,3.23,3.46,4.62h-1.74l-2.71-3.76-.73.81v2.95h-1.41v-11.52h1.41v7.27Z"/>
      </g>
      <g>
        <path class="cls-1" d="M2.48,208.12v-1.64c-.94-.02-1.91-.31-2.48-.71l.39-1.09c.58.39,1.43.7,2.34.7,1.15,0,1.93-.67,1.93-1.59s-.63-1.44-1.83-1.93c-1.65-.65-2.68-1.39-2.68-2.81s.96-2.37,2.45-2.61v-1.64h1.01v1.57c.97.03,1.64.29,2.11.57l-.41,1.07c-.34-.2-1.01-.55-2.04-.55-1.25,0-1.72.75-1.72,1.39,0,.84.6,1.27,2.01,1.85,1.67.68,2.51,1.52,2.51,2.97,0,1.28-.89,2.48-2.56,2.76v1.69h-1.02Z"/>
        <path class="cls-1" d="M12.41,206.73v-2.87h-4.9v-.94l4.7-6.73h1.54v6.55h1.48v1.12h-1.48v2.87h-1.35ZM12.41,202.74v-3.52c0-.55.02-1.1.05-1.65h-.05c-.32.62-.58,1.07-.88,1.56l-2.58,3.58v.03h3.45Z"/>
        <path class="cls-1" d="M23.32,201.34c0,3.58-1.33,5.56-3.67,5.56-2.06,0-3.46-1.93-3.49-5.42,0-3.54,1.52-5.48,3.67-5.48s3.49,1.98,3.49,5.34ZM17.59,201.51c0,2.74.84,4.3,2.14,4.3,1.46,0,2.16-1.7,2.16-4.4s-.67-4.3-2.14-4.3c-1.25,0-2.16,1.52-2.16,4.4Z"/>
        <path class="cls-1" d="M26.5,202.48h.03c.19-.28.47-.62.7-.89l2.3-2.71h1.72l-3.03,3.23,3.46,4.62h-1.74l-2.71-3.76-.73.81v2.95h-1.41v-11.52h1.41v7.27Z"/>
      </g>
      <g>
        <path class="cls-1" d="M2.48,141.74v-1.64c-.94-.02-1.91-.31-2.48-.71l.39-1.09c.58.39,1.43.7,2.34.7,1.15,0,1.93-.67,1.93-1.59s-.63-1.44-1.83-1.93c-1.65-.65-2.68-1.39-2.68-2.81s.96-2.37,2.45-2.61v-1.64h1.01v1.57c.97.03,1.64.29,2.11.57l-.41,1.07c-.34-.2-1.01-.55-2.04-.55-1.25,0-1.72.75-1.72,1.39,0,.84.6,1.27,2.01,1.85,1.67.68,2.51,1.52,2.51,2.97,0,1.28-.89,2.48-2.56,2.76v1.69h-1.02Z"/>
        <path class="cls-1" d="M14.01,130.81c-.29-.02-.67,0-1.07.06-2.24.37-3.42,2.01-3.67,3.75h.05c.5-.67,1.38-1.22,2.55-1.22,1.87,0,3.18,1.35,3.18,3.41,0,1.93-1.31,3.71-3.5,3.71s-3.73-1.75-3.73-4.49c0-2.08.75-3.71,1.78-4.75.88-.86,2.04-1.39,3.37-1.56.42-.07.78-.08,1.04-.08v1.17ZM13.61,136.89c0-1.51-.86-2.42-2.17-2.42-.86,0-1.65.54-2.04,1.3-.1.16-.16.37-.16.63.03,1.74.83,3.02,2.32,3.02,1.23,0,2.06-1.02,2.06-2.53Z"/>
        <path class="cls-1" d="M23.32,134.96c0,3.58-1.33,5.56-3.67,5.56-2.06,0-3.46-1.93-3.49-5.42,0-3.54,1.52-5.48,3.67-5.48s3.49,1.98,3.49,5.34ZM17.59,135.12c0,2.74.84,4.3,2.14,4.3,1.46,0,2.16-1.7,2.16-4.4s-.67-4.3-2.14-4.3c-1.25,0-2.16,1.52-2.16,4.4Z"/>
        <path class="cls-1" d="M26.49,136.1h.03c.19-.28.47-.62.7-.89l2.3-2.71h1.72l-3.03,3.23,3.46,4.62h-1.74l-2.71-3.76-.73.81v2.95h-1.41v-11.52h1.41v7.27Z"/>
      </g>
      <g>
        <path class="cls-1" d="M2.48,75.36v-1.64c-.94-.02-1.91-.31-2.48-.71l.39-1.09c.58.39,1.43.7,2.34.7,1.15,0,1.93-.67,1.93-1.59s-.63-1.44-1.83-1.93c-1.65-.65-2.68-1.39-2.68-2.81s.96-2.37,2.45-2.61v-1.64h1.01v1.57c.97.03,1.64.29,2.11.57l-.41,1.07c-.34-.2-1.01-.55-2.04-.55-1.25,0-1.72.75-1.72,1.39,0,.84.6,1.27,2.01,1.85,1.67.68,2.51,1.52,2.51,2.97,0,1.28-.89,2.48-2.56,2.76v1.69h-1.02Z"/>
        <path class="cls-1" d="M7.86,71.29c0-1.33.79-2.27,2.09-2.82l-.02-.05c-1.17-.55-1.67-1.46-1.67-2.37,0-1.67,1.41-2.81,3.26-2.81,2.04,0,3.07,1.28,3.07,2.6,0,.89-.44,1.85-1.74,2.46v.05c1.31.52,2.12,1.44,2.12,2.73,0,1.83-1.57,3.07-3.58,3.07-2.21,0-3.54-1.31-3.54-2.86ZM13.54,71.22c0-1.28-.89-1.9-2.32-2.3-1.23.36-1.9,1.17-1.9,2.17-.05,1.07.76,2.01,2.11,2.01s2.11-.79,2.11-1.88ZM9.62,65.95c0,1.05.79,1.62,2.01,1.95.91-.31,1.61-.96,1.61-1.91,0-.84-.5-1.72-1.78-1.72-1.18,0-1.83.78-1.83,1.69Z"/>
        <path class="cls-1" d="M23.32,68.58c0,3.58-1.33,5.56-3.67,5.56-2.06,0-3.46-1.93-3.49-5.42,0-3.54,1.52-5.48,3.67-5.48s3.49,1.98,3.49,5.34ZM17.59,68.74c0,2.74.84,4.3,2.14,4.3,1.46,0,2.16-1.7,2.16-4.4s-.67-4.3-2.14-4.3c-1.25,0-2.16,1.52-2.16,4.4Z"/>
        <path class="cls-1" d="M26.49,69.72h.03c.19-.28.47-.62.7-.89l2.3-2.71h1.72l-3.03,3.23,3.46,4.62h-1.74l-2.71-3.76-.73.81v2.95h-1.41v-11.52h1.41v7.27Z"/>
      </g>
      <g>
        <path class="cls-1" d="M803.56,8.47c.61-.1,1.42-.19,2.44-.19,1.25,0,2.17.29,2.76.82.54.47.86,1.18.86,2.06s-.26,1.59-.76,2.1c-.67.71-1.77,1.08-3.01,1.08-.38,0-.73-.01-1.02-.09v3.94h-1.27v-9.71ZM804.83,13.21c.28.07.63.1,1.05.1,1.53,0,2.47-.74,2.47-2.1s-.92-1.93-2.32-1.93c-.55,0-.98.04-1.2.1v3.82Z"/>
        <path class="cls-1" d="M811.04,13.33c0-.83-.01-1.55-.06-2.2h1.12l.04,1.39h.06c.32-.95,1.09-1.55,1.96-1.55.15,0,.25.01.37.04v1.21c-.13-.03-.26-.04-.44-.04-.9,0-1.55.69-1.72,1.65-.03.17-.06.38-.06.6v3.76h-1.27v-4.86Z"/>
        <path class="cls-1" d="M822.06,14.59c0,2.61-1.81,3.75-3.52,3.75-1.91,0-3.38-1.4-3.38-3.63,0-2.36,1.55-3.75,3.5-3.75s3.4,1.47,3.4,3.63ZM816.46,14.67c0,1.55.89,2.71,2.14,2.71s2.14-1.15,2.14-2.74c0-1.2-.6-2.71-2.12-2.71s-2.17,1.4-2.17,2.74Z"/>
        <path class="cls-1" d="M829.78,7.83v8.53c0,.63.01,1.34.06,1.82h-1.15l-.06-1.23h-.03c-.39.79-1.25,1.39-2.41,1.39-1.71,0-3.02-1.44-3.02-3.59-.01-2.35,1.44-3.79,3.17-3.79,1.08,0,1.81.51,2.13,1.08h.03v-4.22h1.28ZM828.49,14c0-.16-.01-.38-.06-.54-.19-.82-.89-1.49-1.85-1.49-1.33,0-2.12,1.17-2.12,2.73,0,1.43.7,2.61,2.09,2.61.86,0,1.65-.57,1.88-1.53.04-.17.06-.35.06-.55v-1.23Z"/>
        <path class="cls-1" d="M837.82,16.26c0,.73.01,1.37.06,1.93h-1.14l-.07-1.15h-.03c-.33.57-1.08,1.31-2.33,1.31-1.11,0-2.44-.61-2.44-3.09v-4.13h1.28v3.91c0,1.34.41,2.25,1.58,2.25.86,0,1.46-.6,1.69-1.17.07-.19.12-.42.12-.66v-4.33h1.28v5.13Z"/>
        <path class="cls-1" d="M844.98,17.92c-.34.17-1.08.41-2.03.41-2.13,0-3.52-1.44-3.52-3.6s1.49-3.75,3.79-3.75c.76,0,1.43.19,1.78.36l-.29.99c-.31-.17-.79-.34-1.49-.34-1.62,0-2.49,1.2-2.49,2.67,0,1.63,1.05,2.64,2.45,2.64.73,0,1.21-.19,1.58-.35l.22.96Z"/>
        <path class="cls-1" d="M848.22,9.1v2.03h1.84v.98h-1.84v3.81c0,.88.25,1.37.96,1.37.33,0,.58-.04.74-.09l.06.96c-.25.1-.64.17-1.14.17-.6,0-1.08-.19-1.39-.54-.36-.38-.5-1.01-.5-1.84v-3.85h-1.09v-.98h1.09v-1.69l1.25-.34Z"/>
        <path class="cls-1" d="M860.5,13.34c0,3.22-1.2,5-3.3,5-1.85,0-3.11-1.74-3.14-4.87,0-3.18,1.37-4.93,3.3-4.93s3.14,1.78,3.14,4.8ZM855.35,13.49c0,2.47.76,3.87,1.93,3.87,1.31,0,1.94-1.53,1.94-3.95s-.6-3.87-1.93-3.87c-1.12,0-1.94,1.37-1.94,3.95Z"/>
        <path class="cls-1" d="M864.47,9.9h-.03l-1.65.89-.25-.98,2.07-1.11h1.09v9.48h-1.24v-8.29Z"/>
      </g>
      <g>
        <path class="cls-1" d="M245.17,86.06c1.01.65,3.37,1.66,5.84,1.66,4.58,0,6-2.92,5.96-5.11-.04-3.69-3.36-5.27-6.81-5.27h-1.99v-2.68h1.99c2.59,0,5.88-1.34,5.88-4.46,0-2.11-1.34-3.97-4.62-3.97-2.11,0-4.14.93-5.27,1.74l-.93-2.59c1.38-1.01,4.05-2.03,6.89-2.03,5.19,0,7.54,3.08,7.54,6.28,0,2.72-1.62,5.03-4.87,6.2v.08c3.24.65,5.88,3.08,5.88,6.77,0,4.22-3.28,7.91-9.61,7.91-2.96,0-5.55-.93-6.85-1.78l.97-2.76Z"/>
        <path class="cls-1" d="M282.62,76.7c0,8.96-3.32,13.91-9.16,13.91-5.15,0-8.64-4.83-8.72-13.54,0-8.84,3.81-13.7,9.16-13.7s8.72,4.95,8.72,13.34ZM268.31,77.1c0,6.85,2.11,10.74,5.35,10.74,3.65,0,5.39-4.26,5.39-10.99s-1.66-10.74-5.35-10.74c-3.12,0-5.39,3.81-5.39,10.99Z"/>
        <path class="cls-1" d="M286.19,88.05c0-1.5,1.01-2.55,2.43-2.55s2.39,1.05,2.39,2.55-.93,2.55-2.43,2.55c-1.42,0-2.39-1.09-2.39-2.55Z"/>
        <path class="cls-1" d="M294.29,90.16v-2.19l2.8-2.72c6.73-6.41,9.77-9.81,9.81-13.79,0-2.68-1.3-5.15-5.23-5.15-2.39,0-4.38,1.22-5.59,2.23l-1.14-2.51c1.82-1.54,4.42-2.68,7.46-2.68,5.68,0,8.07,3.89,8.07,7.66,0,4.86-3.53,8.8-9.08,14.15l-2.11,1.95v.08h11.84v2.96h-16.83Z"/>
        <path class="cls-1" d="M326.97,71.22c0,5.55-2.92,8.31-6.32,8.31s-6.12-2.64-6.16-7.95c0-5.27,2.88-8.23,6.37-8.23,3.69,0,6.12,2.84,6.12,7.87ZM317.32,71.47c-.08,3.37,1.18,5.92,3.41,5.92,2.35,0,3.41-2.51,3.41-6,0-3.2-.93-5.88-3.41-5.88-2.23,0-3.41,2.64-3.41,5.96ZM320.4,90.6l15.49-27.25h2.27l-15.49,27.25h-2.27ZM344.12,82.13c0,5.55-2.92,8.31-6.28,8.31s-6.12-2.64-6.16-7.91c0-5.31,2.88-8.27,6.37-8.27,3.69,0,6.08,2.84,6.08,7.87ZM334.47,82.37c-.04,3.37,1.26,5.92,3.45,5.92,2.35,0,3.41-2.51,3.41-6,0-3.2-.93-5.88-3.41-5.88-2.23,0-3.45,2.64-3.45,5.96Z"/>
      </g>
      <g>
        <path class="cls-1" d="M245.75,100.26v8.2h-1.06v-8.2h1.06Z"/>
        <path class="cls-1" d="M247.68,104.17c0-.61-.01-1.11-.05-1.59h.95l.06.97h.02c.29-.56.97-1.11,1.95-1.11.81,0,2.08.49,2.08,2.5v3.51h-1.07v-3.39c0-.95-.35-1.74-1.36-1.74-.71,0-1.25.5-1.44,1.09-.05.13-.07.32-.07.5v3.54h-1.07v-4.29Z"/>
        <path class="cls-1" d="M258.63,108.24c-.28.15-.9.34-1.69.34-1.78,0-2.93-1.2-2.93-3s1.24-3.13,3.16-3.13c.63,0,1.19.16,1.48.3l-.24.83c-.26-.15-.66-.28-1.24-.28-1.35,0-2.08,1-2.08,2.23,0,1.36.88,2.2,2.04,2.2.61,0,1.01-.16,1.31-.29l.18.8Z"/>
        <path class="cls-1" d="M259.88,104.41c0-.69-.01-1.29-.05-1.84h.94l.04,1.16h.05c.27-.79.91-1.29,1.63-1.29.12,0,.21.01.3.04v1.01c-.11-.02-.22-.04-.36-.04-.75,0-1.29.57-1.44,1.38-.02.15-.05.32-.05.5v3.14h-1.06v-4.05Z"/>
        <path class="cls-1" d="M264.33,105.71c.02,1.45.95,2.04,2.02,2.04.77,0,1.23-.13,1.63-.3l.18.77c-.38.17-1.02.37-1.96.37-1.81,0-2.89-1.19-2.89-2.97s1.05-3.17,2.76-3.17c1.92,0,2.43,1.69,2.43,2.77,0,.22-.02.39-.04.5h-4.13ZM267.47,104.95c.01-.68-.28-1.74-1.48-1.74-1.08,0-1.56,1-1.64,1.74h3.13Z"/>
        <path class="cls-1" d="M273.09,108.46l-.08-.74h-.04c-.33.46-.96.88-1.8.88-1.19,0-1.8-.84-1.8-1.69,0-1.42,1.26-2.2,3.54-2.19v-.12c0-.49-.13-1.36-1.34-1.36-.55,0-1.12.17-1.53.44l-.24-.71c.49-.32,1.19-.52,1.93-.52,1.8,0,2.24,1.23,2.24,2.41v2.2c0,.51.02,1.01.1,1.41h-.97ZM272.93,105.46c-1.17-.02-2.49.18-2.49,1.33,0,.69.46,1.02,1.01,1.02.77,0,1.25-.49,1.42-.99.04-.11.06-.23.06-.34v-1.02Z"/>
        <path class="cls-1" d="M275.54,107.37c.32.21.88.43,1.41.43.78,0,1.14-.39,1.14-.88s-.3-.79-1.09-1.08c-1.06-.38-1.56-.96-1.56-1.67,0-.95.77-1.73,2.03-1.73.6,0,1.12.17,1.45.36l-.27.78c-.23-.15-.66-.34-1.2-.34-.63,0-.99.36-.99.8,0,.49.35.71,1.12,1,1.02.39,1.54.9,1.54,1.78,0,1.03-.8,1.76-2.2,1.76-.64,0-1.24-.16-1.65-.4l.27-.82Z"/>
        <path class="cls-1" d="M281.1,105.71c.02,1.45.95,2.04,2.02,2.04.77,0,1.23-.13,1.63-.3l.18.77c-.38.17-1.02.37-1.96.37-1.81,0-2.89-1.19-2.89-2.97s1.05-3.17,2.76-3.17c1.92,0,2.43,1.69,2.43,2.77,0,.22-.02.39-.04.5h-4.13ZM284.24,104.95c.01-.68-.28-1.74-1.48-1.74-1.08,0-1.56,1-1.64,1.74h3.13Z"/>
        <path class="cls-1" d="M286.45,107.37c.32.21.88.43,1.41.43.78,0,1.14-.39,1.14-.88s-.3-.79-1.09-1.08c-1.06-.38-1.56-.96-1.56-1.67,0-.95.77-1.73,2.03-1.73.6,0,1.12.17,1.45.36l-.27.78c-.23-.15-.66-.34-1.2-.34-.63,0-.99.36-.99.8,0,.49.35.71,1.12,1,1.02.39,1.54.9,1.54,1.78,0,1.03-.8,1.76-2.2,1.76-.64,0-1.24-.16-1.65-.4l.27-.82Z"/>
      </g>
    </g>
  </g>
</svg>