<?xml version="1.0" encoding="UTF-8"?>
<svg id="Capa_2" data-name="Capa 2" xmlns="http://www.w3.org/2000/svg" viewBox="0 0 893.86 365.1">
  <defs>
    <style>
      .cls-1 {
        fill: #000;
      }

      .cls-1, .cls-2, .cls-3, .cls-4, .cls-5 {
        stroke-width: 0px;
      }

      .cls-2 {
        fill: #9592f6;
      }

      .cls-3 {
        fill: #ffd24e;
      }

      .cls-6 {
        fill: none;
        stroke: #d3d3d3;
        stroke-miterlimit: 10;
      }

      .cls-4 {
        fill: #423eaf;
      }

      .cls-5 {
        fill: #fff;
      }
    </style>
  </defs>
  <g id="Layer_2" data-name="Layer 2">
    <g>
      <line class="cls-6" x1="62.85" y1="320.37" x2="651.26" y2="320.37"/>
      <line class="cls-6" x1="62.85" y1="262.44" x2="651.26" y2="262.44"/>
      <line class="cls-6" x1="62.85" y1="204.51" x2="651.26" y2="204.51"/>
      <line class="cls-6" x1="62.85" y1="146.58" x2="651.26" y2="146.58"/>
      <line class="cls-6" x1="62.85" y1="88.65" x2="651.26" y2="88.65"/>
      <circle class="cls-2" cx="702.96" cy="212.29" r="9.66"/>
      <circle class="cls-4" cx="702.96" cy="281.73" r="9.66"/>
      <circle class="cls-3" cx="702.96" cy="352.41" r="9.66"/>
      <circle class="cls-2" cx="124.75" cy="154.16" r="52.05"/>
      <circle class="cls-2" cx="471.61" cy="231.21" r="52.05"/>
      <circle class="cls-4" cx="447.37" cy="102.11" r="21.48"/>
      <circle class="cls-4" cx="614.29" cy="161.27" r="32.78"/>
      <circle class="cls-2" cx="307.73" cy="184.86" r="43.16"/>
      <circle class="cls-4" cx="199.47" cy="273.59" r="22.66"/>
      <circle class="cls-3" cx="604.18" cy="283.26" r="22.66"/>
      <circle class="cls-3" cx="315.09" cy="283.26" r="12.92"/>
      <circle class="cls-3" cx="298.58" cy="87.39" r="22.06"/>
      <g>
        <circle class="cls-5" cx="869.9" cy="31.11" r="3.41"/>
        <circle class="cls-5" cx="880.11" cy="31.11" r="3.41"/>
        <circle class="cls-5" cx="890.45" cy="31.11" r="3.41"/>
      </g>
      <g>
        <path class="cls-1" d="M12.79,320.57v-1.72c-.99-.02-2.01-.32-2.6-.75l.41-1.14c.61.41,1.5.73,2.45.73,1.21,0,2.02-.7,2.02-1.67s-.66-1.51-1.92-2.02c-1.73-.68-2.8-1.46-2.8-2.94s1-2.48,2.57-2.74v-1.72h1.05v1.65c1.02.03,1.72.31,2.21.59l-.43,1.12c-.36-.2-1.05-.58-2.14-.58-1.31,0-1.8.78-1.8,1.46,0,.88.63,1.33,2.11,1.94,1.75.71,2.63,1.6,2.63,3.11,0,1.34-.94,2.6-2.69,2.89v1.77h-1.07Z"/>
        <path class="cls-1" d="M25.92,313.47c0,3.76-1.39,5.83-3.84,5.83-2.16,0-3.62-2.02-3.65-5.68,0-3.71,1.6-5.75,3.84-5.75s3.65,2.07,3.65,5.59ZM19.92,313.64c0,2.87.88,4.5,2.24,4.5,1.53,0,2.26-1.79,2.26-4.61s-.7-4.5-2.24-4.5c-1.31,0-2.26,1.6-2.26,4.61Z"/>
      </g>
      <g>
        <path class="cls-1" d="M6.67,262.64v-1.72c-.99-.02-2.01-.32-2.6-.75l.41-1.14c.61.41,1.5.73,2.45.73,1.21,0,2.02-.7,2.02-1.67s-.66-1.51-1.92-2.02c-1.73-.68-2.8-1.46-2.8-2.94s1-2.48,2.57-2.74v-1.72h1.05v1.65c1.02.03,1.72.31,2.21.59l-.42,1.12c-.36-.2-1.05-.58-2.14-.58-1.31,0-1.8.78-1.8,1.46,0,.88.63,1.33,2.11,1.94,1.75.71,2.63,1.6,2.63,3.11,0,1.34-.93,2.6-2.69,2.89v1.77h-1.07Z"/>
        <path class="cls-1" d="M12.45,261.18v-.92l1.17-1.14c2.82-2.69,4.1-4.11,4.11-5.78,0-1.12-.54-2.16-2.19-2.16-1,0-1.84.51-2.35.94l-.48-1.05c.76-.65,1.85-1.12,3.13-1.12,2.38,0,3.38,1.63,3.38,3.21,0,2.04-1.48,3.69-3.81,5.93l-.88.82v.03h4.96v1.24h-7.05Z"/>
        <path class="cls-1" d="M21.29,260.3c0-.63.42-1.07,1.02-1.07s1,.44,1,1.07-.39,1.07-1.02,1.07c-.59,0-1-.46-1-1.07Z"/>
        <path class="cls-1" d="M32.04,255.54c0,3.76-1.39,5.83-3.84,5.83-2.16,0-3.62-2.02-3.65-5.68,0-3.71,1.6-5.75,3.84-5.75s3.65,2.07,3.65,5.59ZM26.04,255.71c0,2.87.88,4.5,2.24,4.5,1.53,0,2.26-1.79,2.26-4.61s-.7-4.5-2.24-4.5c-1.31,0-2.26,1.6-2.26,4.61Z"/>
      </g>
      <g>
        <path class="cls-1" d="M6.67,204.71v-1.72c-.99-.02-2.01-.32-2.6-.75l.41-1.14c.61.41,1.5.73,2.45.73,1.21,0,2.02-.7,2.02-1.67s-.66-1.51-1.92-2.02c-1.73-.68-2.8-1.46-2.8-2.94s1-2.48,2.57-2.74v-1.72h1.05v1.65c1.02.03,1.72.31,2.21.59l-.42,1.12c-.36-.2-1.05-.58-2.14-.58-1.31,0-1.8.78-1.8,1.46,0,.88.63,1.33,2.11,1.94,1.75.71,2.63,1.6,2.63,3.11,0,1.34-.93,2.6-2.69,2.89v1.77h-1.07Z"/>
        <path class="cls-1" d="M17.08,203.25v-3.01h-5.13v-.99l4.93-7.05h1.61v6.87h1.55v1.17h-1.55v3.01h-1.41ZM17.08,199.07v-3.69c0-.58.02-1.16.05-1.73h-.05c-.34.65-.61,1.12-.92,1.63l-2.7,3.76v.03h3.62Z"/>
        <path class="cls-1" d="M21.29,202.37c0-.63.42-1.07,1.02-1.07s1,.44,1,1.07-.39,1.07-1.02,1.07c-.59,0-1-.46-1-1.07Z"/>
        <path class="cls-1" d="M32.04,197.61c0,3.76-1.39,5.83-3.84,5.83-2.16,0-3.62-2.02-3.65-5.68,0-3.71,1.6-5.75,3.84-5.75s3.65,2.07,3.65,5.59ZM26.04,197.78c0,2.87.88,4.5,2.24,4.5,1.53,0,2.26-1.79,2.26-4.61s-.7-4.5-2.24-4.5c-1.31,0-2.26,1.6-2.26,4.61Z"/>
      </g>
      <g>
        <path class="cls-1" d="M6.67,146.78v-1.72c-.99-.02-2.01-.32-2.6-.75l.41-1.14c.61.41,1.5.73,2.45.73,1.21,0,2.02-.7,2.02-1.67s-.66-1.51-1.92-2.02c-1.73-.68-2.8-1.46-2.8-2.94s1-2.48,2.57-2.74v-1.72h1.05v1.65c1.02.03,1.72.31,2.21.59l-.42,1.12c-.36-.2-1.05-.58-2.14-.58-1.31,0-1.8.78-1.8,1.46,0,.88.63,1.33,2.11,1.94,1.75.71,2.63,1.6,2.63,3.11,0,1.34-.93,2.6-2.69,2.89v1.77h-1.07Z"/>
        <path class="cls-1" d="M18.76,135.32c-.31-.02-.7,0-1.12.07-2.35.39-3.59,2.11-3.84,3.93h.05c.53-.7,1.45-1.27,2.67-1.27,1.96,0,3.33,1.41,3.33,3.57,0,2.02-1.38,3.89-3.67,3.89s-3.91-1.84-3.91-4.71c0-2.18.78-3.89,1.87-4.98.92-.9,2.14-1.46,3.54-1.63.44-.07.82-.08,1.09-.08v1.22ZM18.34,141.7c0-1.58-.9-2.53-2.28-2.53-.9,0-1.73.56-2.14,1.36-.1.17-.17.39-.17.66.03,1.82.87,3.16,2.43,3.16,1.29,0,2.16-1.07,2.16-2.65Z"/>
        <path class="cls-1" d="M21.29,144.44c0-.63.42-1.07,1.02-1.07s1,.44,1,1.07-.39,1.07-1.02,1.07c-.59,0-1-.46-1-1.07Z"/>
        <path class="cls-1" d="M32.04,139.68c0,3.76-1.39,5.83-3.84,5.83-2.16,0-3.62-2.02-3.65-5.68,0-3.71,1.6-5.75,3.84-5.75s3.65,2.07,3.65,5.59ZM26.04,139.85c0,2.87.88,4.5,2.24,4.5,1.53,0,2.26-1.79,2.26-4.61s-.7-4.5-2.24-4.5c-1.31,0-2.26,1.6-2.26,4.61Z"/>
      </g>
      <g>
        <path class="cls-1" d="M6.67,88.85v-1.72c-.99-.02-2.01-.32-2.6-.75l.41-1.14c.61.41,1.5.73,2.45.73,1.21,0,2.02-.7,2.02-1.67s-.66-1.51-1.92-2.02c-1.73-.68-2.8-1.46-2.8-2.94s1-2.48,2.57-2.74v-1.72h1.05v1.65c1.02.03,1.72.31,2.21.59l-.42,1.12c-.36-.2-1.05-.58-2.14-.58-1.31,0-1.8.78-1.8,1.46,0,.88.63,1.33,2.11,1.94,1.75.71,2.63,1.6,2.63,3.11,0,1.34-.93,2.6-2.69,2.89v1.77h-1.07Z"/>
        <path class="cls-1" d="M12.32,84.58c0-1.39.83-2.38,2.19-2.96l-.02-.05c-1.22-.58-1.75-1.53-1.75-2.48,0-1.75,1.48-2.94,3.42-2.94,2.14,0,3.21,1.34,3.21,2.72,0,.94-.46,1.94-1.82,2.58v.05c1.38.54,2.23,1.51,2.23,2.86,0,1.92-1.65,3.21-3.76,3.21-2.31,0-3.71-1.38-3.71-2.99ZM18.27,84.52c0-1.34-.93-1.99-2.43-2.41-1.29.37-1.99,1.22-1.99,2.28-.05,1.12.8,2.11,2.21,2.11s2.21-.83,2.21-1.97ZM14.15,78.99c0,1.1.83,1.7,2.11,2.04.95-.32,1.68-1,1.68-2.01,0-.88-.53-1.8-1.87-1.8-1.24,0-1.92.82-1.92,1.77Z"/>
        <path class="cls-1" d="M21.29,86.5c0-.63.42-1.07,1.02-1.07s1,.44,1,1.07-.39,1.07-1.02,1.07c-.59,0-1-.46-1-1.07Z"/>
        <path class="cls-1" d="M32.04,81.74c0,3.76-1.39,5.83-3.84,5.83-2.16,0-3.62-2.02-3.65-5.68,0-3.71,1.6-5.75,3.84-5.75s3.65,2.07,3.65,5.59ZM26.04,81.91c0,2.87.88,4.5,2.24,4.5,1.53,0,2.26-1.79,2.26-4.61s-.7-4.5-2.24-4.5c-1.31,0-2.26,1.6-2.26,4.61Z"/>
      </g>
      <g>
        <path class="cls-1" d="M295.95,365.1v-1.72c-.99-.02-2.01-.32-2.6-.75l.41-1.14c.61.41,1.5.73,2.45.73,1.21,0,2.02-.7,2.02-1.67s-.66-1.51-1.92-2.02c-1.73-.68-2.8-1.46-2.8-2.94s1-2.48,2.57-2.74v-1.72h1.05v1.65c1.02.03,1.72.31,2.21.59l-.43,1.12c-.36-.2-1.05-.58-2.14-.58-1.31,0-1.8.78-1.8,1.46,0,.88.63,1.33,2.11,1.94,1.75.71,2.63,1.6,2.63,3.11,0,1.34-.94,2.6-2.69,2.89v1.77h-1.07Z"/>
        <path class="cls-1" d="M302.08,361.92c.42.27,1.41.7,2.45.7,1.92,0,2.52-1.22,2.5-2.14-.02-1.55-1.41-2.21-2.86-2.21h-.83v-1.12h.83c1.09,0,2.46-.56,2.46-1.87,0-.88-.56-1.67-1.94-1.67-.88,0-1.73.39-2.21.73l-.39-1.09c.58-.43,1.7-.85,2.89-.85,2.18,0,3.16,1.29,3.16,2.63,0,1.14-.68,2.11-2.04,2.6v.03c1.36.27,2.46,1.29,2.46,2.84,0,1.77-1.38,3.31-4.03,3.31-1.24,0-2.33-.39-2.87-.75l.41-1.16Z"/>
        <path class="cls-1" d="M317.79,357.99c0,3.76-1.39,5.83-3.84,5.83-2.16,0-3.62-2.02-3.65-5.68,0-3.71,1.6-5.75,3.84-5.75s3.65,2.07,3.65,5.59ZM311.79,358.16c0,2.87.88,4.5,2.24,4.5,1.53,0,2.26-1.79,2.26-4.61s-.7-4.5-2.24-4.5c-1.31,0-2.26,1.6-2.26,4.61Z"/>
        <path class="cls-1" d="M326.51,357.99c0,3.76-1.39,5.83-3.84,5.83-2.16,0-3.62-2.02-3.65-5.68,0-3.71,1.6-5.75,3.84-5.75s3.65,2.07,3.65,5.59ZM320.51,358.16c0,2.87.88,4.5,2.24,4.5,1.53,0,2.26-1.79,2.26-4.61s-.7-4.5-2.24-4.5c-1.31,0-2.26,1.6-2.26,4.61Z"/>
      </g>
      <g>
        <path class="cls-1" d="M376.1,365.1v-1.72c-.99-.02-2.01-.32-2.6-.75l.41-1.14c.61.41,1.5.73,2.45.73,1.21,0,2.02-.7,2.02-1.67s-.66-1.51-1.92-2.02c-1.73-.68-2.8-1.46-2.8-2.94s1-2.48,2.57-2.74v-1.72h1.05v1.65c1.02.03,1.72.31,2.21.59l-.43,1.12c-.36-.2-1.05-.58-2.14-.58-1.31,0-1.8.78-1.8,1.46,0,.88.63,1.33,2.11,1.94,1.75.71,2.63,1.6,2.63,3.11,0,1.34-.94,2.6-2.69,2.89v1.77h-1.07Z"/>
        <path class="cls-1" d="M386.5,363.64v-3.01h-5.13v-.99l4.93-7.05h1.62v6.87h1.55v1.17h-1.55v3.01h-1.41ZM386.5,359.45v-3.69c0-.58.02-1.16.05-1.73h-.05c-.34.65-.61,1.12-.92,1.63l-2.7,3.76v.03h3.62Z"/>
        <path class="cls-1" d="M397.94,357.99c0,3.76-1.39,5.83-3.84,5.83-2.16,0-3.62-2.02-3.65-5.68,0-3.71,1.6-5.75,3.84-5.75s3.65,2.07,3.65,5.59ZM391.94,358.16c0,2.87.88,4.5,2.24,4.5,1.53,0,2.26-1.79,2.26-4.61s-.7-4.5-2.24-4.5c-1.31,0-2.26,1.6-2.26,4.61Z"/>
        <path class="cls-1" d="M406.66,357.99c0,3.76-1.39,5.83-3.84,5.83-2.16,0-3.62-2.02-3.65-5.68,0-3.71,1.6-5.75,3.84-5.75s3.65,2.07,3.65,5.59ZM400.66,358.16c0,2.87.88,4.5,2.24,4.5,1.53,0,2.26-1.79,2.26-4.61s-.7-4.5-2.24-4.5c-1.31,0-2.26,1.6-2.26,4.61Z"/>
      </g>
      <g>
        <path class="cls-1" d="M456.54,365.1v-1.72c-.99-.02-2.01-.32-2.6-.75l.41-1.14c.61.41,1.5.73,2.45.73,1.21,0,2.02-.7,2.02-1.67s-.66-1.51-1.92-2.02c-1.73-.68-2.8-1.46-2.8-2.94s1-2.48,2.57-2.74v-1.72h1.05v1.65c1.02.03,1.72.31,2.21.59l-.43,1.12c-.36-.2-1.05-.58-2.14-.58-1.31,0-1.8.78-1.8,1.46,0,.88.63,1.33,2.11,1.94,1.75.71,2.63,1.6,2.63,3.11,0,1.34-.94,2.6-2.69,2.89v1.77h-1.07Z"/>
        <path class="cls-1" d="M468.92,353.84h-4.22l-.42,2.84c.25-.03.49-.07.9-.07.85,0,1.7.19,2.38.6.87.49,1.58,1.44,1.58,2.84,0,2.16-1.72,3.77-4.11,3.77-1.21,0-2.23-.34-2.75-.68l.37-1.14c.46.27,1.36.61,2.36.61,1.41,0,2.62-.92,2.62-2.4-.02-1.43-.97-2.45-3.18-2.45-.63,0-1.12.07-1.53.12l.71-5.3h5.29v1.26Z"/>
        <path class="cls-1" d="M478.38,357.99c0,3.76-1.39,5.83-3.84,5.83-2.16,0-3.62-2.02-3.65-5.68,0-3.71,1.6-5.75,3.84-5.75s3.65,2.07,3.65,5.59ZM472.38,358.16c0,2.87.88,4.5,2.24,4.5,1.53,0,2.26-1.79,2.26-4.61s-.7-4.5-2.24-4.5c-1.31,0-2.26,1.6-2.26,4.61Z"/>
        <path class="cls-1" d="M487.1,357.99c0,3.76-1.39,5.83-3.84,5.83-2.16,0-3.62-2.02-3.65-5.68,0-3.71,1.6-5.75,3.84-5.75s3.65,2.07,3.65,5.59ZM481.1,358.16c0,2.87.88,4.5,2.24,4.5,1.53,0,2.26-1.79,2.26-4.61s-.7-4.5-2.24-4.5c-1.31,0-2.26,1.6-2.26,4.61Z"/>
      </g>
      <g>
        <path class="cls-1" d="M537.03,365.1v-1.72c-.99-.02-2.01-.32-2.6-.75l.41-1.14c.61.41,1.5.73,2.45.73,1.21,0,2.02-.7,2.02-1.67s-.66-1.51-1.92-2.02c-1.73-.68-2.8-1.46-2.8-2.94s1-2.48,2.57-2.74v-1.72h1.05v1.65c1.02.03,1.72.31,2.21.59l-.43,1.12c-.36-.2-1.05-.58-2.14-.58-1.31,0-1.8.78-1.8,1.46,0,.88.63,1.33,2.11,1.94,1.75.71,2.63,1.6,2.63,3.11,0,1.34-.94,2.6-2.69,2.89v1.77h-1.07Z"/>
        <path class="cls-1" d="M549.11,353.64c-.31-.02-.7,0-1.12.07-2.35.39-3.59,2.11-3.84,3.93h.05c.53-.7,1.44-1.27,2.67-1.27,1.95,0,3.33,1.41,3.33,3.57,0,2.02-1.38,3.89-3.67,3.89s-3.91-1.84-3.91-4.71c0-2.18.78-3.89,1.87-4.98.92-.9,2.14-1.46,3.54-1.63.44-.07.82-.08,1.09-.08v1.22ZM548.69,360.02c0-1.58-.9-2.53-2.28-2.53-.9,0-1.73.56-2.14,1.36-.1.17-.17.39-.17.66.03,1.82.87,3.16,2.43,3.16,1.29,0,2.16-1.07,2.16-2.65Z"/>
        <path class="cls-1" d="M558.87,357.99c0,3.76-1.39,5.83-3.84,5.83-2.16,0-3.62-2.02-3.65-5.68,0-3.71,1.6-5.75,3.84-5.75s3.65,2.07,3.65,5.59ZM552.87,358.16c0,2.87.88,4.5,2.24,4.5,1.53,0,2.26-1.79,2.26-4.61s-.7-4.5-2.24-4.5c-1.31,0-2.26,1.6-2.26,4.61Z"/>
        <path class="cls-1" d="M567.59,357.99c0,3.76-1.39,5.83-3.84,5.83-2.16,0-3.62-2.02-3.65-5.68,0-3.71,1.6-5.75,3.84-5.75s3.65,2.07,3.65,5.59ZM561.59,358.16c0,2.87.88,4.5,2.24,4.5,1.53,0,2.26-1.79,2.26-4.61s-.7-4.5-2.24-4.5c-1.31,0-2.26,1.6-2.26,4.61Z"/>
      </g>
      <g>
        <path class="cls-1" d="M617.81,365.1v-1.72c-.99-.02-2.01-.32-2.6-.75l.41-1.14c.61.41,1.5.73,2.45.73,1.21,0,2.02-.7,2.02-1.67s-.66-1.51-1.92-2.02c-1.73-.68-2.8-1.46-2.8-2.94s1-2.48,2.57-2.74v-1.72h1.05v1.65c1.02.03,1.72.31,2.21.59l-.43,1.12c-.36-.2-1.05-.58-2.14-.58-1.31,0-1.8.78-1.8,1.46,0,.88.63,1.33,2.11,1.94,1.75.71,2.63,1.6,2.63,3.11,0,1.34-.94,2.6-2.69,2.89v1.77h-1.07Z"/>
        <path class="cls-1" d="M630.77,352.59v.99l-4.81,10.06h-1.55l4.79-9.77v-.03h-5.41v-1.24h6.97Z"/>
        <path class="cls-1" d="M639.66,357.99c0,3.76-1.39,5.83-3.84,5.83-2.16,0-3.62-2.02-3.65-5.68,0-3.71,1.6-5.75,3.84-5.75s3.65,2.07,3.65,5.59ZM633.66,358.16c0,2.87.88,4.5,2.24,4.5,1.53,0,2.26-1.79,2.26-4.61s-.7-4.5-2.24-4.5c-1.31,0-2.26,1.6-2.26,4.61Z"/>
        <path class="cls-1" d="M648.38,357.99c0,3.76-1.39,5.83-3.84,5.83-2.16,0-3.62-2.02-3.65-5.68,0-3.71,1.6-5.75,3.84-5.75s3.65,2.07,3.65,5.59ZM642.38,358.16c0,2.87.88,4.5,2.24,4.5,1.53,0,2.26-1.79,2.26-4.61s-.7-4.5-2.24-4.5c-1.31,0-2.26,1.6-2.26,4.61Z"/>
      </g>
      <g>
        <path class="cls-1" d="M66.37,365.1v-1.72c-.99-.02-2.01-.32-2.6-.75l.41-1.14c.61.41,1.5.73,2.45.73,1.21,0,2.02-.7,2.02-1.67s-.66-1.51-1.92-2.02c-1.73-.68-2.8-1.46-2.8-2.94s1-2.48,2.57-2.74v-1.72h1.05v1.65c1.02.03,1.72.31,2.21.59l-.43,1.12c-.36-.2-1.05-.58-2.14-.58-1.31,0-1.8.78-1.8,1.46,0,.88.63,1.33,2.11,1.94,1.75.71,2.63,1.6,2.63,3.11,0,1.34-.94,2.6-2.69,2.89v1.77h-1.07Z"/>
        <path class="cls-1" d="M79.49,357.99c0,3.76-1.39,5.83-3.84,5.83-2.16,0-3.62-2.02-3.65-5.68,0-3.71,1.6-5.75,3.84-5.75s3.65,2.07,3.65,5.59ZM73.49,358.16c0,2.87.88,4.5,2.24,4.5,1.53,0,2.26-1.79,2.26-4.61s-.7-4.5-2.24-4.5c-1.31,0-2.26,1.6-2.26,4.61Z"/>
      </g>
      <g>
        <path class="cls-1" d="M137.32,365.1v-1.72c-.99-.02-2.01-.32-2.6-.75l.41-1.14c.61.41,1.5.73,2.45.73,1.21,0,2.02-.7,2.02-1.67s-.66-1.51-1.92-2.02c-1.73-.68-2.8-1.46-2.8-2.94s1-2.48,2.57-2.74v-1.72h1.05v1.65c1.02.03,1.72.31,2.21.59l-.42,1.12c-.36-.2-1.05-.58-2.14-.58-1.31,0-1.8.78-1.8,1.46,0,.88.63,1.33,2.11,1.94,1.75.71,2.63,1.6,2.63,3.11,0,1.34-.93,2.6-2.69,2.89v1.77h-1.07Z"/>
        <path class="cls-1" d="M146.35,353.98h-.03l-1.92,1.04-.29-1.14,2.41-1.29h1.27v11.05h-1.44v-9.65Z"/>
        <path class="cls-1" d="M159.16,357.99c0,3.76-1.39,5.83-3.84,5.83-2.16,0-3.62-2.02-3.66-5.68,0-3.71,1.6-5.75,3.84-5.75s3.66,2.07,3.66,5.59ZM153.16,358.16c0,2.87.88,4.5,2.24,4.5,1.53,0,2.26-1.79,2.26-4.61s-.7-4.5-2.24-4.5c-1.31,0-2.26,1.6-2.26,4.61Z"/>
        <path class="cls-1" d="M167.88,357.99c0,3.76-1.39,5.83-3.84,5.83-2.16,0-3.62-2.02-3.66-5.68,0-3.71,1.6-5.75,3.84-5.75s3.66,2.07,3.66,5.59ZM161.88,358.16c0,2.87.88,4.5,2.24,4.5,1.53,0,2.26-1.79,2.26-4.61s-.7-4.5-2.24-4.5c-1.31,0-2.26,1.6-2.26,4.61Z"/>
      </g>
      <g>
        <path class="cls-1" d="M215.7,365.1v-1.72c-.99-.02-2.01-.32-2.6-.75l.41-1.14c.61.41,1.5.73,2.45.73,1.21,0,2.02-.7,2.02-1.67s-.66-1.51-1.92-2.02c-1.73-.68-2.8-1.46-2.8-2.94s1-2.48,2.57-2.74v-1.72h1.05v1.65c1.02.03,1.72.31,2.21.59l-.42,1.12c-.36-.2-1.05-.58-2.14-.58-1.31,0-1.8.78-1.8,1.46,0,.88.63,1.33,2.11,1.94,1.75.71,2.63,1.6,2.63,3.11,0,1.34-.94,2.6-2.69,2.89v1.77h-1.07Z"/>
        <path class="cls-1" d="M221.48,363.64v-.92l1.17-1.14c2.82-2.69,4.1-4.11,4.11-5.78,0-1.12-.54-2.16-2.19-2.16-1,0-1.84.51-2.35.94l-.48-1.05c.77-.65,1.85-1.12,3.13-1.12,2.38,0,3.38,1.63,3.38,3.21,0,2.04-1.48,3.69-3.81,5.93l-.88.82v.03h4.96v1.24h-7.05Z"/>
        <path class="cls-1" d="M237.54,357.99c0,3.76-1.39,5.83-3.84,5.83-2.16,0-3.62-2.02-3.66-5.68,0-3.71,1.6-5.75,3.84-5.75s3.66,2.07,3.66,5.59ZM231.54,358.16c0,2.87.88,4.5,2.24,4.5,1.53,0,2.26-1.79,2.26-4.61s-.7-4.5-2.24-4.5c-1.31,0-2.26,1.6-2.26,4.61Z"/>
        <path class="cls-1" d="M246.26,357.99c0,3.76-1.39,5.83-3.84,5.83-2.16,0-3.62-2.02-3.66-5.68,0-3.71,1.6-5.75,3.84-5.75s3.66,2.07,3.66,5.59ZM240.26,358.16c0,2.87.88,4.5,2.24,4.5,1.53,0,2.26-1.79,2.26-4.61s-.7-4.5-2.24-4.5c-1.31,0-2.26,1.6-2.26,4.61Z"/>
      </g>
      <g>
        <path class="cls-1" d="M13.47,9.52c-.11-2.16-.25-4.76-.23-6.69h-.07c-.53,1.82-1.17,3.75-1.95,5.89l-2.74,7.52h-1.52l-2.51-7.38c-.74-2.18-1.36-4.19-1.79-6.02h-.05c-.05,1.93-.16,4.53-.3,6.85l-.41,6.65H0L1.08.83h2.55l2.64,7.5c.64,1.91,1.17,3.61,1.56,5.22h.07c.39-1.56.94-3.27,1.63-5.22L12.3.83h2.55l.97,15.5h-1.95l-.39-6.81Z"/>
        <path class="cls-1" d="M31.97,9.52c-.12-2.16-.25-4.76-.23-6.69h-.07c-.53,1.82-1.17,3.75-1.96,5.89l-2.74,7.52h-1.52l-2.51-7.38c-.74-2.18-1.36-4.19-1.79-6.02h-.05c-.05,1.93-.16,4.53-.3,6.85l-.41,6.65h-1.91l1.08-15.5h2.55l2.64,7.5c.64,1.91,1.17,3.61,1.56,5.22h.07c.39-1.56.94-3.27,1.63-5.22l2.76-7.5h2.55l.97,15.5h-1.96l-.39-6.81Z"/>
        <path class="cls-1" d="M37.4,1.04c1.01-.21,2.46-.32,3.84-.32,2.14,0,3.52.39,4.48,1.27.78.69,1.22,1.75,1.22,2.94,0,2.05-1.29,3.4-2.92,3.96v.07c1.2.41,1.91,1.52,2.28,3.13.51,2.16.87,3.66,1.2,4.25h-2.07c-.25-.44-.6-1.77-1.04-3.7-.46-2.14-1.29-2.94-3.1-3.01h-1.89v6.71h-2V1.04ZM39.4,8.09h2.05c2.14,0,3.5-1.17,3.5-2.94,0-2-1.45-2.87-3.56-2.9-.97,0-1.66.09-1.98.18v5.66Z"/>
        <path class="cls-1" d="M54.37,13.89c.9.55,2.21,1.01,3.59,1.01,2.05,0,3.24-1.08,3.24-2.64,0-1.45-.83-2.28-2.92-3.08-2.53-.9-4.09-2.21-4.09-4.39,0-2.41,2-4.21,5.01-4.21,1.59,0,2.74.37,3.43.76l-.55,1.63c-.51-.28-1.54-.74-2.94-.74-2.12,0-2.92,1.26-2.92,2.32,0,1.45.94,2.16,3.08,2.99,2.62,1.01,3.96,2.28,3.96,4.55,0,2.39-1.77,4.46-5.43,4.46-1.5,0-3.13-.44-3.96-.99l.51-1.68Z"/>
        <path class="cls-1" d="M68.29,2v3.2h2.9v1.54h-2.9v6c0,1.38.39,2.16,1.52,2.16.53,0,.92-.07,1.17-.14l.09,1.52c-.39.16-1.01.28-1.79.28-.94,0-1.7-.3-2.18-.85-.58-.6-.78-1.59-.78-2.9v-6.07h-1.72v-1.54h1.72v-2.67l1.98-.53Z"/>
        <path class="cls-1" d="M79.62,16.33l-.16-1.4h-.07c-.62.87-1.82,1.66-3.4,1.66-2.25,0-3.4-1.59-3.4-3.2,0-2.69,2.39-4.16,6.69-4.14v-.23c0-.92-.25-2.58-2.53-2.58-1.03,0-2.12.32-2.9.83l-.46-1.33c.92-.6,2.25-.99,3.66-.99,3.4,0,4.23,2.32,4.23,4.55v4.16c0,.97.05,1.91.18,2.67h-1.84ZM79.33,10.65c-2.21-.05-4.71.34-4.71,2.51,0,1.31.87,1.93,1.91,1.93,1.45,0,2.37-.92,2.69-1.86.07-.21.12-.44.12-.64v-1.93Z"/>
        <path class="cls-1" d="M86.89,2v3.2h2.9v1.54h-2.9v6c0,1.38.39,2.16,1.52,2.16.53,0,.92-.07,1.17-.14l.09,1.52c-.39.16-1.01.28-1.79.28-.94,0-1.7-.3-2.18-.85-.57-.6-.78-1.59-.78-2.9v-6.07h-1.72v-1.54h1.72v-2.67l1.98-.53Z"/>
        <path class="cls-1" d="M91.79,14.26c.6.39,1.66.8,2.67.8,1.47,0,2.16-.74,2.16-1.66,0-.97-.57-1.49-2.07-2.05-2-.71-2.94-1.82-2.94-3.15,0-1.79,1.45-3.27,3.84-3.27,1.13,0,2.12.32,2.74.69l-.51,1.47c-.44-.28-1.24-.64-2.28-.64-1.2,0-1.86.69-1.86,1.52,0,.92.67,1.33,2.12,1.89,1.93.74,2.92,1.7,2.92,3.36,0,1.95-1.52,3.33-4.16,3.33-1.22,0-2.35-.3-3.13-.76l.51-1.54Z"/>
        <path class="cls-1" d="M105.96,16.33c.05-.76.09-1.89.09-2.87V0h2v6.99h.05c.71-1.24,2-2.05,3.79-2.05,2.76,0,4.71,2.3,4.69,5.68,0,3.98-2.51,5.96-4.99,5.96-1.61,0-2.9-.62-3.72-2.09h-.07l-.09,1.84h-1.75ZM108.05,11.87c0,.25.05.51.09.74.39,1.4,1.56,2.37,3.04,2.37,2.12,0,3.38-1.72,3.38-4.28,0-2.23-1.15-4.14-3.31-4.14-1.38,0-2.67.94-3.08,2.48-.05.23-.12.51-.12.83v2Z"/>
        <path class="cls-1" d="M119.71,5.2l2.44,6.58c.25.74.53,1.61.71,2.28h.05c.21-.67.44-1.52.71-2.32l2.21-6.53h2.14l-3.04,7.93c-1.45,3.82-2.44,5.77-3.82,6.97-.99.87-1.98,1.22-2.48,1.31l-.51-1.7c.51-.16,1.17-.48,1.77-.99.55-.44,1.24-1.22,1.7-2.25.09-.21.16-.37.16-.48s-.05-.28-.14-.53l-4.12-10.26h2.21Z"/>
        <path class="cls-1" d="M145.58,15.82c-.74.37-2.21.74-4.09.74-4.37,0-7.66-2.76-7.66-7.84s3.29-8.14,8.09-8.14c1.93,0,3.15.41,3.68.69l-.48,1.63c-.76-.37-1.84-.64-3.13-.64-3.63,0-6.05,2.32-6.05,6.39,0,3.79,2.18,6.23,5.96,6.23,1.22,0,2.46-.25,3.27-.64l.41,1.59Z"/>
        <path class="cls-1" d="M157.84,10.67c0,4.12-2.85,5.91-5.54,5.91-3.01,0-5.33-2.21-5.33-5.73,0-3.73,2.44-5.91,5.52-5.91s5.36,2.32,5.36,5.73ZM149.01,10.78c0,2.44,1.4,4.28,3.38,4.28s3.38-1.82,3.38-4.32c0-1.89-.94-4.28-3.33-4.28s-3.43,2.21-3.43,4.32Z"/>
        <path class="cls-1" d="M169.71,13.29c0,1.15.02,2.16.09,3.04h-1.79l-.12-1.82h-.05c-.53.9-1.7,2.07-3.68,2.07-1.75,0-3.84-.97-3.84-4.88v-6.51h2.02v6.16c0,2.12.64,3.54,2.48,3.54,1.36,0,2.3-.94,2.67-1.84.12-.3.18-.67.18-1.04v-6.83h2.02v8.09Z"/>
        <path class="cls-1" d="M173.07,8.21c0-1.15-.02-2.09-.09-3.01h1.79l.11,1.84h.05c.55-1.06,1.84-2.09,3.68-2.09,1.54,0,3.93.92,3.93,4.74v6.65h-2.02v-6.42c0-1.79-.67-3.29-2.58-3.29-1.33,0-2.37.94-2.71,2.07-.09.25-.14.6-.14.94v6.69h-2.02v-8.12Z"/>
        <path class="cls-1" d="M188.18,2v3.2h2.9v1.54h-2.9v6c0,1.38.39,2.16,1.52,2.16.53,0,.92-.07,1.17-.14l.09,1.52c-.39.16-1.01.28-1.79.28-.94,0-1.7-.3-2.18-.85-.57-.6-.78-1.59-.78-2.9v-6.07h-1.72v-1.54h1.72v-2.67l1.98-.53Z"/>
        <path class="cls-1" d="M193.36,8.67c0-1.31-.02-2.44-.09-3.47h1.77l.07,2.18h.09c.51-1.5,1.72-2.44,3.08-2.44.23,0,.39.02.58.07v1.91c-.21-.05-.41-.07-.69-.07-1.42,0-2.44,1.08-2.71,2.6-.05.28-.09.6-.09.94v5.93h-2v-7.66Z"/>
        <path class="cls-1" d="M202.19,5.2l2.44,6.58c.25.74.53,1.61.71,2.28h.05c.21-.67.44-1.52.71-2.32l2.21-6.53h2.14l-3.04,7.93c-1.45,3.82-2.44,5.77-3.82,6.97-.99.87-1.98,1.22-2.48,1.31l-.51-1.7c.51-.16,1.17-.48,1.77-.99.55-.44,1.24-1.22,1.7-2.25.09-.21.16-.37.16-.48s-.05-.28-.14-.53l-4.12-10.26h2.21Z"/>
      </g>
      <g>
        <path class="cls-1" d="M734,207.23v13.48h-1.74v-13.48h1.74Z"/>
        <path class="cls-1" d="M737.18,213.65c0-1-.02-1.82-.08-2.62h1.56l.1,1.6h.04c.48-.92,1.6-1.82,3.2-1.82,1.34,0,3.42.8,3.42,4.12v5.78h-1.76v-5.58c0-1.56-.58-2.86-2.24-2.86-1.16,0-2.06.82-2.36,1.8-.08.22-.12.52-.12.82v5.82h-1.76v-7.06Z"/>
        <path class="cls-1" d="M756.64,206.51v11.7c0,.86.02,1.84.08,2.5h-1.58l-.08-1.68h-.04c-.54,1.08-1.72,1.9-3.3,1.9-2.34,0-4.14-1.98-4.14-4.92-.02-3.22,1.98-5.2,4.34-5.2,1.48,0,2.48.7,2.92,1.48h.04v-5.78h1.76ZM754.88,214.97c0-.22-.02-.52-.08-.74-.26-1.12-1.22-2.04-2.54-2.04-1.82,0-2.9,1.6-2.9,3.74,0,1.96.96,3.58,2.86,3.58,1.18,0,2.26-.78,2.58-2.1.06-.24.08-.48.08-.76v-1.68Z"/>
        <path class="cls-1" d="M768.32,215.79c0,3.58-2.48,5.14-4.82,5.14-2.62,0-4.64-1.92-4.64-4.98,0-3.24,2.12-5.14,4.8-5.14s4.66,2.02,4.66,4.98ZM760.64,215.89c0,2.12,1.22,3.72,2.94,3.72s2.94-1.58,2.94-3.76c0-1.64-.82-3.72-2.9-3.72s-2.98,1.92-2.98,3.76Z"/>
        <path class="cls-1" d="M770.54,213.65c0-1-.02-1.82-.08-2.62h1.56l.1,1.6h.04c.48-.92,1.6-1.82,3.2-1.82,1.34,0,3.42.8,3.42,4.12v5.78h-1.76v-5.58c0-1.56-.58-2.86-2.24-2.86-1.16,0-2.06.82-2.36,1.8-.08.22-.12.52-.12.82v5.82h-1.76v-7.06Z"/>
        <path class="cls-1" d="M782.62,216.19c.04,2.38,1.56,3.36,3.32,3.36,1.26,0,2.02-.22,2.68-.5l.3,1.26c-.62.28-1.68.6-3.22.6-2.98,0-4.76-1.96-4.76-4.88s1.72-5.22,4.54-5.22c3.16,0,4,2.78,4,4.56,0,.36-.04.64-.06.82h-6.8ZM787.78,214.93c.02-1.12-.46-2.86-2.44-2.86-1.78,0-2.56,1.64-2.7,2.86h5.14Z"/>
        <path class="cls-1" d="M791.42,218.91c.52.34,1.44.7,2.32.7,1.28,0,1.88-.64,1.88-1.44,0-.84-.5-1.3-1.8-1.78-1.74-.62-2.56-1.58-2.56-2.74,0-1.56,1.26-2.84,3.34-2.84.98,0,1.84.28,2.38.6l-.44,1.28c-.38-.24-1.08-.56-1.98-.56-1.04,0-1.62.6-1.62,1.32,0,.8.58,1.16,1.84,1.64,1.68.64,2.54,1.48,2.54,2.92,0,1.7-1.32,2.9-3.62,2.9-1.06,0-2.04-.26-2.72-.66l.44-1.34Z"/>
        <path class="cls-1" d="M801.54,208.31c.02.6-.42,1.08-1.12,1.08-.62,0-1.06-.48-1.06-1.08s.46-1.1,1.1-1.1,1.08.48,1.08,1.1ZM799.58,220.71v-9.68h1.76v9.68h-1.76Z"/>
        <path class="cls-1" d="M809.62,220.71l-.14-1.22h-.06c-.54.76-1.58,1.44-2.96,1.44-1.96,0-2.96-1.38-2.96-2.78,0-2.34,2.08-3.62,5.82-3.6v-.2c0-.8-.22-2.24-2.2-2.24-.9,0-1.84.28-2.52.72l-.4-1.16c.8-.52,1.96-.86,3.18-.86,2.96,0,3.68,2.02,3.68,3.96v3.62c0,.84.04,1.66.16,2.32h-1.6ZM809.36,215.77c-1.92-.04-4.1.3-4.1,2.18,0,1.14.76,1.68,1.66,1.68,1.26,0,2.06-.8,2.34-1.62.06-.18.1-.38.1-.56v-1.68Z"/>
        <path class="cls-1" d="M813.9,213.65c0-1-.02-1.82-.08-2.62h1.56l.1,1.6h.04c.48-.92,1.6-1.82,3.2-1.82,1.34,0,3.42.8,3.42,4.12v5.78h-1.76v-5.58c0-1.56-.58-2.86-2.24-2.86-1.16,0-2.06.82-2.36,1.8-.08.22-.12.52-.12.82v5.82h-1.76v-7.06Z"/>
      </g>
      <g>
        <path class="cls-1" d="M734,276.67v7.98c0,3.02,1.34,4.3,3.14,4.3,2,0,3.28-1.32,3.28-4.3v-7.98h1.76v7.86c0,4.14-2.18,5.84-5.1,5.84-2.76,0-4.84-1.58-4.84-5.76v-7.94h1.76Z"/>
        <path class="cls-1" d="M745.14,283.09c0-1-.02-1.82-.08-2.62h1.56l.1,1.6h.04c.48-.92,1.6-1.82,3.2-1.82,1.34,0,3.42.8,3.42,4.12v5.78h-1.76v-5.58c0-1.56-.58-2.86-2.24-2.86-1.16,0-2.06.82-2.36,1.8-.08.22-.12.52-.12.82v5.82h-1.76v-7.06Z"/>
        <path class="cls-1" d="M758.2,277.75c.02.6-.42,1.08-1.12,1.08-.62,0-1.06-.48-1.06-1.08s.46-1.1,1.1-1.1,1.08.48,1.08,1.1ZM756.24,290.15v-9.68h1.76v9.68h-1.76Z"/>
        <path class="cls-1" d="M763.04,277.69v2.78h2.52v1.34h-2.52v5.22c0,1.2.34,1.88,1.32,1.88.46,0,.8-.06,1.02-.12l.08,1.32c-.34.14-.88.24-1.56.24-.82,0-1.48-.26-1.9-.74-.5-.52-.68-1.38-.68-2.52v-5.28h-1.5v-1.34h1.5v-2.32l1.72-.46Z"/>
        <path class="cls-1" d="M768.4,285.63c.04,2.38,1.56,3.36,3.32,3.36,1.26,0,2.02-.22,2.68-.5l.3,1.26c-.62.28-1.68.6-3.22.6-2.98,0-4.76-1.96-4.76-4.88s1.72-5.22,4.54-5.22c3.16,0,4,2.78,4,4.56,0,.36-.04.64-.06.82h-6.8ZM773.56,284.37c.02-1.12-.46-2.86-2.44-2.86-1.78,0-2.56,1.64-2.7,2.86h5.14Z"/>
        <path class="cls-1" d="M785.8,275.95v11.7c0,.86.02,1.84.08,2.5h-1.58l-.08-1.68h-.04c-.54,1.08-1.72,1.9-3.3,1.9-2.34,0-4.14-1.98-4.14-4.92-.02-3.22,1.98-5.2,4.34-5.2,1.48,0,2.48.7,2.92,1.48h.04v-5.78h1.76ZM784.04,284.41c0-.22-.02-.52-.08-.74-.26-1.12-1.22-2.04-2.54-2.04-1.82,0-2.9,1.6-2.9,3.74,0,1.96.96,3.58,2.86,3.58,1.18,0,2.26-.78,2.58-2.1.06-.24.08-.48.08-.76v-1.68Z"/>
        <path class="cls-1" d="M793.02,276.67h1.74v6.5h.06c.36-.52.72-1,1.06-1.44l4.12-5.06h2.16l-4.88,5.72,5.26,7.76h-2.06l-4.44-6.62-1.28,1.48v5.14h-1.74v-13.48Z"/>
        <path class="cls-1" d="M805.96,277.75c.02.6-.42,1.08-1.12,1.08-.62,0-1.06-.48-1.06-1.08s.46-1.1,1.1-1.1,1.08.48,1.08,1.1ZM804,290.15v-9.68h1.76v9.68h-1.76Z"/>
        <path class="cls-1" d="M808.68,283.09c0-1-.02-1.82-.08-2.62h1.56l.1,1.6h.04c.48-.92,1.6-1.82,3.2-1.82,1.34,0,3.42.8,3.42,4.12v5.78h-1.76v-5.58c0-1.56-.58-2.86-2.24-2.86-1.16,0-2.06.82-2.36,1.8-.08.22-.12.52-.12.82v5.82h-1.76v-7.06Z"/>
        <path class="cls-1" d="M828.12,280.47c-.04.7-.08,1.48-.08,2.66v5.62c0,2.22-.44,3.58-1.38,4.42-.94.88-2.3,1.16-3.52,1.16s-2.44-.28-3.22-.8l.44-1.34c.64.4,1.64.76,2.84.76,1.8,0,3.12-.94,3.12-3.38v-1.08h-.04c-.54.9-1.58,1.62-3.08,1.62-2.4,0-4.12-2.04-4.12-4.72,0-3.28,2.14-5.14,4.36-5.14,1.68,0,2.6.88,3.02,1.68h.04l.08-1.46h1.54ZM826.3,284.29c0-.3-.02-.56-.1-.8-.32-1.02-1.18-1.86-2.46-1.86-1.68,0-2.88,1.42-2.88,3.66,0,1.9.96,3.48,2.86,3.48,1.08,0,2.06-.68,2.44-1.8.1-.3.14-.64.14-.94v-1.74Z"/>
        <path class="cls-1" d="M839.32,275.95v11.7c0,.86.02,1.84.08,2.5h-1.58l-.08-1.68h-.04c-.54,1.08-1.72,1.9-3.3,1.9-2.34,0-4.14-1.98-4.14-4.92-.02-3.22,1.98-5.2,4.34-5.2,1.48,0,2.48.7,2.92,1.48h.04v-5.78h1.76ZM837.56,284.41c0-.22-.02-.52-.08-.74-.26-1.12-1.22-2.04-2.54-2.04-1.82,0-2.9,1.6-2.9,3.74,0,1.96.96,3.58,2.86,3.58,1.18,0,2.26-.78,2.58-2.1.06-.24.08-.48.08-.76v-1.68Z"/>
        <path class="cls-1" d="M851,285.23c0,3.58-2.48,5.14-4.82,5.14-2.62,0-4.64-1.92-4.64-4.98,0-3.24,2.12-5.14,4.8-5.14s4.66,2.02,4.66,4.98ZM843.32,285.33c0,2.12,1.22,3.72,2.94,3.72s2.94-1.58,2.94-3.76c0-1.64-.82-3.72-2.9-3.72s-2.98,1.92-2.98,3.76Z"/>
        <path class="cls-1" d="M853.22,283.09c0-1-.02-1.82-.08-2.62h1.54l.08,1.56h.06c.54-.92,1.44-1.78,3.04-1.78,1.32,0,2.32.8,2.74,1.94h.04c.3-.54.68-.96,1.08-1.26.58-.44,1.22-.68,2.14-.68,1.28,0,3.18.84,3.18,4.2v5.7h-1.72v-5.48c0-1.86-.68-2.98-2.1-2.98-1,0-1.78.74-2.08,1.6-.08.24-.14.56-.14.88v5.98h-1.72v-5.8c0-1.54-.68-2.66-2.02-2.66-1.1,0-1.9.88-2.18,1.76-.1.26-.14.56-.14.86v5.84h-1.72v-7.06Z"/>
      </g>
      <g>
        <path class="cls-1" d="M732.02,358.71c.78.48,1.92.88,3.12.88,1.78,0,2.82-.94,2.82-2.3,0-1.26-.72-1.98-2.54-2.68-2.2-.78-3.56-1.92-3.56-3.82,0-2.1,1.74-3.66,4.36-3.66,1.38,0,2.38.32,2.98.66l-.48,1.42c-.44-.24-1.34-.64-2.56-.64-1.84,0-2.54,1.1-2.54,2.02,0,1.26.82,1.88,2.68,2.6,2.28.88,3.44,1.98,3.44,3.96,0,2.08-1.54,3.88-4.72,3.88-1.3,0-2.72-.38-3.44-.86l.44-1.46Z"/>
        <path class="cls-1" d="M747.48,360.83l-.14-1.22h-.06c-.54.76-1.58,1.44-2.96,1.44-1.96,0-2.96-1.38-2.96-2.78,0-2.34,2.08-3.62,5.82-3.6v-.2c0-.8-.22-2.24-2.2-2.24-.9,0-1.84.28-2.52.72l-.4-1.16c.8-.52,1.96-.86,3.18-.86,2.96,0,3.68,2.02,3.68,3.96v3.62c0,.84.04,1.66.16,2.32h-1.6ZM747.22,355.89c-1.92-.04-4.1.3-4.1,2.18,0,1.14.76,1.68,1.66,1.68,1.26,0,2.06-.8,2.34-1.62.06-.18.1-.38.1-.56v-1.68Z"/>
        <path class="cls-1" d="M759.86,358.19c0,1,.02,1.88.08,2.64h-1.56l-.1-1.58h-.04c-.46.78-1.48,1.8-3.2,1.8-1.52,0-3.34-.84-3.34-4.24v-5.66h1.76v5.36c0,1.84.56,3.08,2.16,3.08,1.18,0,2-.82,2.32-1.6.1-.26.16-.58.16-.9v-5.94h1.76v7.04Z"/>
        <path class="cls-1" d="M771.14,346.63v11.7c0,.86.02,1.84.08,2.5h-1.58l-.08-1.68h-.04c-.54,1.08-1.72,1.9-3.3,1.9-2.34,0-4.14-1.98-4.14-4.92-.02-3.22,1.98-5.2,4.34-5.2,1.48,0,2.48.7,2.92,1.48h.04v-5.78h1.76ZM769.38,355.09c0-.22-.02-.52-.08-.74-.26-1.12-1.22-2.04-2.54-2.04-1.82,0-2.9,1.6-2.9,3.74,0,1.96.96,3.58,2.86,3.58,1.18,0,2.26-.78,2.58-2.1.06-.24.08-.48.08-.76v-1.68Z"/>
        <path class="cls-1" d="M776.02,348.43c.02.6-.42,1.08-1.12,1.08-.62,0-1.06-.48-1.06-1.08s.46-1.1,1.1-1.1,1.08.48,1.08,1.1ZM774.06,360.83v-9.68h1.76v9.68h-1.76Z"/>
        <path class="cls-1" d="M785.22,356.59l-1.4,4.24h-1.8l4.58-13.48h2.1l4.6,13.48h-1.86l-1.44-4.24h-4.78ZM789.64,355.23l-1.32-3.88c-.3-.88-.5-1.68-.7-2.46h-.04c-.2.8-.42,1.62-.68,2.44l-1.32,3.9h4.06Z"/>
        <path class="cls-1" d="M795.16,354.17c0-1.14-.02-2.12-.08-3.02h1.54l.06,1.9h.08c.44-1.3,1.5-2.12,2.68-2.12.2,0,.34.02.5.06v1.66c-.18-.04-.36-.06-.6-.06-1.24,0-2.12.94-2.36,2.26-.04.24-.08.52-.08.82v5.16h-1.74v-6.66Z"/>
        <path class="cls-1" d="M806.96,360.83l-.14-1.22h-.06c-.54.76-1.58,1.44-2.96,1.44-1.96,0-2.96-1.38-2.96-2.78,0-2.34,2.08-3.62,5.82-3.6v-.2c0-.8-.22-2.24-2.2-2.24-.9,0-1.84.28-2.52.72l-.4-1.16c.8-.52,1.96-.86,3.18-.86,2.96,0,3.68,2.02,3.68,3.96v3.62c0,.84.04,1.66.16,2.32h-1.6ZM806.7,355.89c-1.92-.04-4.1.3-4.1,2.18,0,1.14.76,1.68,1.66,1.68,1.26,0,2.06-.8,2.34-1.62.06-.18.1-.38.1-.56v-1.68Z"/>
        <path class="cls-1" d="M811.16,360.83c.04-.66.08-1.64.08-2.5v-11.7h1.74v6.08h.04c.62-1.08,1.74-1.78,3.3-1.78,2.4,0,4.1,2,4.08,4.94,0,3.46-2.18,5.18-4.34,5.18-1.4,0-2.52-.54-3.24-1.82h-.06l-.08,1.6h-1.52ZM812.98,356.95c0,.22.04.44.08.64.34,1.22,1.36,2.06,2.64,2.06,1.84,0,2.94-1.5,2.94-3.72,0-1.94-1-3.6-2.88-3.6-1.2,0-2.32.82-2.68,2.16-.04.2-.1.44-.1.72v1.74Z"/>
        <path class="cls-1" d="M824.58,348.43c.02.6-.42,1.08-1.12,1.08-.62,0-1.06-.48-1.06-1.08s.46-1.1,1.1-1.1,1.08.48,1.08,1.1ZM822.62,360.83v-9.68h1.76v9.68h-1.76Z"/>
        <path class="cls-1" d="M832.66,360.83l-.14-1.22h-.06c-.54.76-1.58,1.44-2.96,1.44-1.96,0-2.96-1.38-2.96-2.78,0-2.34,2.08-3.62,5.82-3.6v-.2c0-.8-.22-2.24-2.2-2.24-.9,0-1.84.28-2.52.72l-.4-1.16c.8-.52,1.96-.86,3.18-.86,2.96,0,3.68,2.02,3.68,3.96v3.62c0,.84.04,1.66.16,2.32h-1.6ZM832.4,355.89c-1.92-.04-4.1.3-4.1,2.18,0,1.14.76,1.68,1.66,1.68,1.26,0,2.06-.8,2.34-1.62.06-.18.1-.38.1-.56v-1.68Z"/>
      </g>
    </g>
  </g>
</svg>