<?xml version="1.0" encoding="UTF-8"?>
<svg id="Layer_2" data-name="Layer 2" xmlns="http://www.w3.org/2000/svg" viewBox="0 0 766.24 421.66">
  <defs>
    <style>
      .cls-1 {
        fill: #dd3b10;
      }

      .cls-2 {
        fill: #ffdf21;
      }

      .cls-2, .cls-3, .cls-4, .cls-5 {
        fill-rule: evenodd;
      }

      .cls-6 {
        fill: #ffd24e;
      }

      .cls-3 {
        fill: #ff991c;
      }

      .cls-5 {
        fill: #423eaf;
      }
    </style>
  </defs>
  <g id="contenidos">
    <g>
      <g>
        <g>
          <path class="cls-4" d="M634.87,143.9c3.02-3.7,3.33-4.21,3.39-4.27.16-.13.32-.28.53-.31h0c.66-1.34,1.26-2.31,1.55-2.77,1.17-1.9,2.71-3.77,2.84-3.93,2.66-3.15,6.74-7.15,13.09-10.61.12-.07,1.53-.84,1.59-.84.33,0,.66.11.98.11-.17.37-.04.41-.21.78,0,0,0,0-.21.14-4.77,3.19-7.7,6.21-8.17,6.67-.58.57-3.69,3.62-6.41,7.91-6.45,10.15-4.93,16.29-4.59,17.5,1.51.69,8.01.09,15.32-4.64,6.74-4.36,10.1-10.01,10.17-10.04.25-.1.53-.08.78-.18.03.4.15.38.17.78,0,.07-.07.12-.11.18-2.75,4.55-6.99,9.27-12.87,12.75-6.29,3.72-13.89,5.35-15.76,2.75-.47-.65-.94-2.7-1.02-4.54-.12-2.64.32-5.14.97-7.32-4.01,5.1-8.53,10.52-8.35,12.64.06.66.91.63,1.89,1.33,2.66,1.87,1.69,6.79,1.89,8.17.04,0,.07,0,.16,0,1.89-.15,4.53-1.74,4.9-1.95,3.69-2.21,9.33-6.98,9.57-7.09.28-.12.58-.28.88-.24.3.04.53.3.8.45,0,0,.21.85.21.85,0,.07-.07.57-.42.84-5.24,3.98-10.02,7.84-14.07,8.94-1.09.3-3.46.9-4.03-1.11-.35-1.26.33-4.19-.36-6.25-.48-1.45-1.6-1.2-2.58-2.12-2.68-2.55,2.06-7.98,7.44-14.58Z"/>
          <path class="cls-4" d="M650.65,168.82c.09.67.42.33,1.05.55.24.09,1.02.48,1.45.92,1.23,1.27.94,2.57.97,2.65.06.14.17.25.24.39.11-.11.25-.17.36-.28,0,0,.09-.29.12-.51.36-2.23-1.09-3.9-2.16-4.25-.02,0-.04-.02-.07-.02.02-.09.03-.15.03-.18.31-3.47.81-6.15,1.15-11.02.46-.06,1.02-.15,1.1-.16,1.5-.23,3.69-.6,6.25-1.68.06,3.04-.12,3.4.4,11.82.03.54.33.32.72.7.14-.3.56-.42.7-.72,0-.02.13-5.09.45-8.69.02-.28.36-3.71.34-3.76-.06-.18-.1-.37-.16-.56.52-.3,1.05-.62,1.58-.98.06.03.11.06.17.08.02,0,.02-.02.3-.06.31-.04,2.3-.3,3.78-.79,1.02-.33,1.48-.57,1.6-.64,7.28-3.8,9.22-10.01,9.2-17.92,0-.06-.05-1.23-.33-3.14-.08-.56-.17-1.08-.17-1.08-.09-.16-.14-.35-.25-.49.36-1.81.48-2.94.48-2.96,0-.37-.02-.72-.06-.91-.11-.6-.4-1.21-.4-1.21-.19.06-1.13,1.75-1.19,2.22-.39,3.16-2.17,12.36-7.6,19.36-6.77,8.74-13.4,9.46-17.67,10.06-.06-.03-.12-.06-.19-.09-.11-.06-.68-.34-1.15.99-.02.04-.33,3.8-.36,4.13-.04.45-.29,2.85-.21,7.03,0,.13,0,.27,0,.41,0,.02,0,.09.02.18-.09.02-.55.15-.49.6ZM667.67,151.12c1.52-1.32,3.07-2.96,4.6-5,2.7-3.59,4.48-7.63,5.64-11.14-.25,7.4-2.65,11.79-8.02,14.8-.08.05-1.01.64-2.22,1.34Z"/>
        </g>
        <path class="cls-4" d="M658.21,172.8c.04-.15.15-.29.19-.44,0,0-.09-.38-.17-.64-.71-2.21-2.47-4.15-5.22-4.41-.58-.05-.59-.08-1.14.09-.08.02-.44.14-.44.15-.17.15-.31.35-.48.51.18.15.33.33.51.48.04.04.05,0,.66.24.48.19.53,0,2.11.51.3.1,2.34.62,3.52,3.15.02.04.02.1.06.13.13.1.29.14.42.24Z"/>
        <path class="cls-4" d="M668.86,171.6c.03-.16.14-.29.17-.45,0,0-.1-.38-.19-.64-.78-2.19-2.6-4.07-5.35-4.25-.58-.04-.59-.06-1.14.12-.08.02-.43.16-.43.16-.17.16-.3.36-.47.52.18.14.34.32.52.46.04.04.05,0,.66.22.49.17.53-.01,2.12.45.3.09,2.36.55,3.61,3.04.02.04.02.1.06.13.13.1.3.14.43.23Z"/>
        <path class="cls-4" d="M659.21,169.71c.03-.1.1-.2.13-.3,0,0-.06-.2-.12-.35-.93-2.12-4.23-3.41-5.62-3.07-.75.19-1.39.77-1.4.79-.08.22-.13.44-.21.66.22.06.43.15.66.22.08.02.09-.07,1.06.05.46.06,1.12-.12,2.3.13,1.07.23,2.35.82,2.87,1.67.01.02.02.06.04.07.09.06.2.07.29.13Z"/>
        <path class="cls-4" d="M669.77,168.62c.03-.1.1-.2.13-.3,0,0-.06-.2-.12-.35-.93-2.12-4.23-3.41-5.62-3.07-.75.19-1.39.77-1.4.79-.08.22-.13.44-.21.66.22.06.43.15.66.22.08.02.09-.07,1.06.05.46.06,1.12-.12,2.3.13,1.07.23,2.35.82,2.87,1.67.01.02.02.06.04.07.09.06.2.07.29.13Z"/>
        <path class="cls-4" d="M665,171.72c.11-.11.25-.18.36-.29,0,0,.08-.29.11-.52.29-2.23-1.2-3.86-2.29-4.18-.22-.06-.8-.24-1.54-.03-.06.01-.55.15-.48.62.11.66.43.31,1.07.52.24.08,1.03.45,1.47.88,1.27,1.23,1.02,2.54,1.06,2.61.07.14.18.25.25.38Z"/>
        <ellipse cx="672.08" cy="111.98" rx="1.59" ry="1.72" transform="translate(-3.15 20.92) rotate(-1.78)"/>
        <g>
          <path d="M690.5,122.5s15.1,1.8,13.25.47c-2.3-1.65-2.31-8.52,2.3-11.87,7.07,2.45,11.82,8.09,11.82,17.28,0,2.24-3.12-2.09-8.49-2.79-5.37-.7-18.71-.68-18.71-.68,0,0-9.7.61-11.95-.72-1.02-.6-1.67-1.52-2.05-2.61,2.75.21,10.42.78,13.82.89.02,0,0,.03,0,.03Z"/>
          <path class="cls-6" d="M675.92,111.1c1.05-3.7,3.48-2.95,3.48-2.95,0,0,4.97.07,10.88.5-3.04,3.43-2.1,12.87.22,13.83-3.4-.1-11.07-.68-13.82-.89-.77-2.22-1.46-8-.76-10.48Z"/>
          <path class="cls-1" d="M690.28,108.64c.06,0,.12,0,.18.01,4.54.34,9.61.89,13.39,1.79.76.18,1.5.41,2.21.66-4.61,3.35-4.6,10.22-2.3,11.87,1.85,1.33-13.25-.47-13.25-.47,0,0,.01-.03,0-.03-2.32-.95-3.25-10.4-.22-13.83Z"/>
        </g>
        <path d="M678.32,108.26c-1.81-2.39-4.64-3.9-7.68-4.13-6.5-.52-11,6.12-12.13,11.73-.59,2.81-.7,5.67-.21,8.42.4-2.75,1.06-5.4,2.04-7.87,3.6-8.82,8.98-10.96,17.99-8.15h0Z"/>
      </g>
      <g>
        <path class="cls-4" d="M471.78,213.45c-2.52.35-2.97.31-4.68.38-4.18.18-12.21.22-12.38.25-.27.06-.29.05-.51-.12,0,0-.28-.46-.28-.47.04-.17.03-.36.13-.5.11-.14.29-.2.45-.28.05-.02,12.16-3.18,14.68-3.59.35-.06.71-.12,1.08-.17-.17,3.28.7,4.28,1.51,4.49Z"/>
        <path class="cls-3" d="M607.2,321.07c.82.47,2.52.04,4.1-.3h0s.22-.05.6-.12c.49-.1,1.27-.26,2.26-.44,53.6-9.86,81.75,6.82,86.21,9.69,1.37.88,1.32,1.05,2.27,1.1,2.54.11,4.47.69,4.85.8,4.69,1.41,4.48,3.7,4.12,5.02-.79,2.92-3.71,5.71-4.19,6.41-1.92,2.82-5.53,16.02-9.85,28.83-7.22,21.45-11.88,28.13-14.99,31.79-3.78,4.44-5,4.06-5.07,4.05-1.48-.42-3.27-4.89-7.77-5.35-12.97-1.33-34.03,3.65-58.34-1.5-10.77-2.28-19.26-6.07-21.34-7.02-12.93-5.93-14.81-10.92-26.47-7.3-1.4.43-2.53.64-4.94-.06-4.22-1.23-5.68-6.75,2.82-11.31,4.97-2.67,5.9-4.54,7.93-9.1,3.31-7.41,4.27-8.63,7.65-14.6,7.28-12.88,6.58-13.59,19.42-24.62,1.84-1.58,2.09-3.55,2.65-5.02.46-1.22,1.11-2.69,7.96-.97.04,0,.07.02.11.03Z"/>
        <path class="cls-4" d="M610.72,168.61c-.18-.25-.18-.27-.12-.58.06-.33.12-.3.37-.53.42-.39,1.53-1.65,3.44-2.64.06-.03.71-.26,1.11-.35,1.61-.36,3.06-.09,3.98.06.39.06,2.44.76,3.25.99,1.12.32.85.85.81.93-.1.19-.13.43-.3.57-.06.05-.2.18-.89.27-1.89.26-3.14.27-3.16.27-.44,0-2.28-.28-3.8.06-.06.01-1.09.07-3.38,1.03-.06.03-.13.06-.19.08-.3.15-.3.21-.62.15-.31-.06-.32-.06-.5-.32Z"/>
        <path class="cls-3" d="M124.86,258.32c-.89-7.26-6.16-21.56-2.97-29.89,0,0-8.26-9.24-6.52-14.71,1.9-5.97,8.93-6.5,16.24-1.82,24.33-12.51,53.58-11.6,72.81-6.95,0,0,8.83-4.23,12.31-2.06,6.71,4.17,2.06,13.49,2.06,13.49,6.67,17.05,6.44,28.48,4.71,40.2l-26.9,12.25,3.61,7.86c-16.03-2.55-32.07-2.51-48.14,2.11l-27.2-20.46Z"/>
        <path class="cls-4" d="M681.49,389.25l.14.09c-1.14,1.67-5.66,8.35-8.84,6.07-1.89-1.36-1.96-5.58-1.85-6.98.99-13,20.49-48.75,23.91-52.13.03-.03.78-.86,1.77-.53,0,0,.69.26,1.36.87,1.97,1.83,3.5,6.11-1.96,20.14-1.61,4.15-4.04,9.45-4.29,10.01-.22.64-1.8,5.3-2.08,5.96-1.03,2.49-2.45,5.98-5.25,11.42-.51.99-.56.97-.98,2-.25-.21-.67-.13-.92-.33-.09-.08.09-.22.13-.32.13-.32.24-.58,1.16-4.1.22-.83,2.2-8.43,2.85-10.35.15-.44,1.74-5.13,1.9-5.48,2.25-4.9,10.01-20.21,8.22-26.04-.15-.47-.38-.82-.5-.97-4.61,5.88-24.12,41.13-23.52,51.52,0,.02.11,3.16,1.08,3.98.15.13.66.56,2.33-.8,2.09-1.7,4.08-4.76,4.22-4.89.5-.48.62-.27,1.23.07.07.04,0,.06-.13.8ZM681.47,389.36s-.01.1-.02.15l.09-.09-.07-.06Z"/>
        <path class="cls-5" d="M141.73,342.69c2.05,2.88,3.56,6.54,4.78,12.13.44,2.01.85,4.27,1.3,6.77,0,.04.05.27-.1.5,0,0-.41.29-.42.29-.16-.03-.35,0-.49-.1-.14-.09-.22-.26-.29-.41-.15-.37-1.39-6.98-3.18-11.63-1.71-4.42-3.85-7.19-6.4-9.31-.04-.03-.31-.25-.42-.45-.43-.77.1-1.96,1.3-1.81,1.29.17,2.76.68,2.99.76,6.46,2.24,12.41,8.12,16.48,12.73-.48-5.2-1.54-11.08-4.23-16.72-.02-.06-.21-.45-.24-.76-.12-1.09.8-2.06,1.91-1.99.22.01.56.03,2.49,1.05,6.8,3.6,11.71,9.7,14.62,13.98.29-4.79-.28-8.5-.53-12.52,0,0-.14-.84.44-1.46.5-.54,1.35-.68,2-.34.08.04,2.84,1.9,5.89,5.52,1.78,2.11,3.21,4.27,4.32,6.13.52-2.04,1.43-4.51,3.07-7.59.02-.05.36-.9,1.22-1.12.69-.18,1.83.1,2.11,1.36.03.13.49,2.94,1.3,6.06.19.74.38,1.42.57,2.04.79-2.51,1.61-5.99,2.06-10.62,0-.05,0-.83.54-1.36.42-.42,1.49-.9,2.49,0,.05.04.92.9,1.66,1.85,2.96,3.79,3.88,7.94,4.41,14.1.06.74-.35,1.23-.42,1.32,0,0-1.23.63-1.23.63-.44-.14-.96-.13-1.31-.42-.68-.57-.59-.67-.66-1.55-.41-4.92-1.13-7.9-2.48-10.26-.52,3.21-1.5,7.53-3.45,11.86,0,0-.29.87-1.15,1.15-.57.19-1.64.11-2.14-.99-.42-.92-1.02-2.73-1.09-2.97-.6-1.79-1.07-3.56-1.44-5.12-.84,2.2-1.31,4.35-1.4,6.94,0,.05-.01.43-.11.69-.47,1.26-2.33,1.57-3.08.14-.21-.4-2.01-4.45-5.08-8.5-1.22-1.61-2.38-2.88-3.39-3.87.33,4.02.59,8.65-.3,13.99,0,.06-.07.45-.21.69-.56,1.05-2.17,1.29-2.95.05-.44-.7-3.26-5.88-8.05-10.69-1.92-1.92-3.69-3.32-5.2-4.33,1.33,3.83,2.76,9.57,2.9,17.22.04,1.87,0,1.98-.07,2.22-.42,1.27-2.14,1.71-3.09.55-1.08-1.31-7.24-9.92-13.93-14.44-.85-.57-1.63-1.03-2.34-1.4Z"/>
        <path class="cls-5" d="M715.93,339.52c-1.12,1.93-3.08,5.46-4.81,9.49-2.34,5.47-2.84,8.6-3.02,9.58l-.57-.07c.04-.39.38-6.86,5.84-18.52.32-.68,1.4-2.89,1.56-3.1.5-.68,1.6-.56,1.97.23.03.06.06.13.07.19,1.95,7.63,1.99,7.62,2.1,8.3.53,3.19.21,3.95.36,6.05,4.1-6.44,8.39-13.2,13.64-15.98.02,0,.57-.38,1.19-.16.49.18,1,.77.78,1.58-.12.41-1.21,3.12-1.16,8.63,0,.02.04,1.93.39,4.17.08.52.17.99.25,1.4,1.94-3.24,3.69-7.4,6.97-10.18,2.15-1.82,4.15-2.32,5.51-2.52,1.38-.2,2.19,1.09,1.82,2.14-.19.52-.96,1.46-1.68,4.46-.84,3.46-.93,6.82-.97,10.71,2.77-3.3,6.12-6.64,11.42-8.59.03,0,.56-.29,1.02.05.27.2.48.61.3,1.06-.24.61-2.61,5.16-.13,9.19.33.54.39.51.39.57,0,.28-.11.55-.12.83-.27-.07-.56-.05-.83-.13,0,0-.55-.75-.92-1.43-1.51-2.78-1.22-5.61-.69-7.67-3.11,1.68-5.69,3.99-8.7,8.03-2.17,2.9-2.08,3.02-2.6,3.25-.74.33-1.86-.07-1.92-1.25-.01-.27,0-.26-.12-3.3-.22-5.69.03-8.28.32-10.24.21-1.36.48-2.5.78-3.44-1.59.95-3.11,2.6-4.88,5.36-1.37,2.15-3.13,5.38-4.52,6.84-.71.74-1.84.5-2.16-.51-1-3.14-1.22-7-1.23-9.99,0-1.93.13-3.54.31-4.81-2.42,2.2-4.59,5.37-7.3,9.73-1.41,2.27-2.28,3.73-3.49,5.43-.04.05-.44.78-1.24.88-.75.09-1.51-.4-1.69-1.19-1.68-7.66-1.7-7.65-1.81-8.33-.52-3.52-.17-4.07-.44-6.73Z"/>
        <path class="cls-5" d="M766.24,369.67c-12.72-10.37-24.75-5.83-35.16,2.77,8.6-1.83,18.36,11.88,35.16-2.77Z"/>
        <path class="cls-5" d="M275.22,382.51s-9.47-.17-16.42,6.37c-5.34,5.02-14.97-1.13-17.06-6.56,10.39-7.94,23.09-7.27,33.48.19Z"/>
        <path class="cls-5" d="M553.15,407.6s-5.45,11.91-17.32,13.86c-8.35,1.38-23.68-4.49-26.35-9.92,12.05-14.09,29.46,2.54,43.67-3.94Z"/>
        <path class="cls-5" d="M740.79,38.12c-14.15-3.05-25.75,8.45-29.77,23,10.34-9.7,22.27-9.54,28.52-11.12,6.47-1.64,1.25-11.88,1.25-11.88Z"/>
        <path class="cls-5" d="M435.46,20.52c-15.39,2.43-13.37,19.52-23.73,23.66,12.56,2.31,27.54-9.16,23.73-23.66Z"/>
        <path class="cls-5" d="M271.43,94.94c5.4-17.02,17.29-23.21,28.67-16.9-.83,13.92-17.28,6.7-28.67,16.9Z"/>
        <path class="cls-4" d="M315.16,255.19c-6.77,0-14.15,0-22.17.05.11-.95.17-1.78.25-3.16,7.96.09,15.27.21,21.98.35-.1,1.09-.11,1.87-.06,2.76Z"/>
        <path class="cls-4" d="M202.48,352.52c-.42-.03-.44-.04-.72-.36-.18-.2-.22-.5-.26-.77-.04-.26,1.01-12.27.32-21.16-.53-6.84-2.24-12.55-2.85-23.24-.13-2.34-.42-4.24-.46-10.97,0-.53.02-1.47.05-2.82.03-1.81.54-6.42-.15-12.07-.41-3.33-1.03-6.5-2.34-11.21-.18-.66.02-.66.54-1.1,0,0,.66.04.67.05.2.1.31.32.44.5,0,0,.47,1.19.97,2.57,3.45,9.64,3.61,15.08,3.59,20.84,0,.9-.32,5.06-.42,7-.28,4.98-.2,7.11.05,10.42,1.12,14.91,3.61,14.84,2.03,37.43-.02.31-.27,3.87-.3,3.92-.34.66-.32.68-.37.72-.32.28-.34.29-.77.26Z"/>
        <path class="cls-2" d="M265.46,194.78c-.55.06-1.17.14-1.7.23-5.57.96-9.33,3.68-13.46,8.94.12-.93.35-1.93.77-2.96,1.29-3.21,4-5.86,4.59-6.53.08-.09.59-.66.26-1.44-.19-.45-.91-1.07-1.7-1.48-1.72-.91-5.21-1.55-10.25-.23,1.15-2.06,2.72-4.19,4.87-5.24,2.74-1.34,5.77-.63,8.03.15.59.2,1.29-.05,1.61-.6.37-.63.05-1.31.04-1.33-1.54-4.41-4.14-7.11-6.85-8.94.18,0,.35.01.53.03,10.97.75,12.91,14.68,13.27,19.41Z"/>
        <path class="cls-2" d="M252.69,193.75c-2.29-.99-6.68-.55-10.59.94-.04.02-.69.37-1.32.04-.37-.19-.98-.8-.61-1.73.27-.68.94-1.97,1.02-2.13,1.61-3.1,3.59-5.72,6.33-7.13,2.65-1.36,5.38-1.24,7.45-.84-1.22-2.31-3.41-4.97-8.17-7.11-.05-.03-.79-.25-1.02-.95-.17-.54-.02-1.5,1.03-1.77.74-.2,1.95-.34,2.12-.36,12.84-1.55,18.64,9.72,19.49,22.64l.05.82h.14c-.04.17-.03.36-.07.53-.06.29-.53,1.06-1.41,1.14-5.78.45-9.96,1.23-16.84,11-.03.04-.41.76-1.2.84-.14.02-1.42.07-1.59-1.4-.14-1.21-.46-4.35.73-7.62,1.08-2.96,2.91-5.22,4.46-6.91ZM265.46,194.78c-.37-4.72-2.3-18.66-13.27-19.4-.18-.01-.36-.02-.53-.03,2.72,1.84,5.32,4.53,6.86,8.94,0,.02.33.7-.04,1.33-.32.55-1.02.8-1.61.6-2.26-.78-5.29-1.5-8.02-.15-2.15,1.05-3.72,3.19-4.87,5.24,5.04-1.32,8.54-.67,10.25.23.79.41,1.51,1.03,1.7,1.48.33.77-.18,1.35-.26,1.44-.59.67-3.3,3.32-4.59,6.53-.42,1.04-.65,2.04-.78,2.96,4.13-5.27,7.89-7.98,13.46-8.94.53-.09,1.15-.17,1.7-.23Z"/>
        <path class="cls-2" d="M288.51,170.97c.06.13.1.28.16.42.05.11.37.53.89.63.41.08,1.27-.16,2.82-.12,4.06.08,6.97,1.61,8.88,3.13-1.15-.19-2.34-.24-3.58.1-2,.55-3.14,1.93-3.15,1.95-.48.66-.21,1.33-.17,1.43.12.29,1.02,1.48,1.48,3.3.03.1,1.33,4.02-1.89,8.46-.05.06-.09.12-.13.18-.98-2.52-3.2-6.24-8.45-9.8-1.2-.81-1.37-.89-2.02-.85-2.45.15-4.93-.22-7.64.19-1.75.26-3.11.81-4.2,1.49.61-3.81,2.14-6.14,5.91-7.95.52-.25.48-.32,1.02-.55,1.92-.85,2.48-.82,2.96-1.31.61-.62.49-1.49.49-1.5-.12-3.3-1.39-5.74-3.1-7.74,2.06.57,4.16,1.38,5.88,2.64,2.85,2.1,3.52,4.64,3.81,5.91h0Z"/>
        <path class="cls-2" d="M283.16,182.99c-5,.21-9.07-1.01-12.2,3.65-.03.05-.24.37-.48.54-.91.67-2.24.25-2.6-.82-.07-.21-.15-.44-.03-2.75.33-6.41,2.22-10.59,8.12-13.51.35-.17.47-.14,1.1-.41.45-.18.91-.36,1.29-.49-.34-2.77-1.8-4.85-5.52-8.03-.05-.04-.46-.39-.54-.48-.82-.95-.24-2.46,1-2.62.04,0,.24-.03.53.02.65.12,2.52.54,2.73.59,3.19.72,7.14,1.82,10.17,4.29,2.65,2.15,3.68,4.61,4.14,6.24,2.44-.18,8.06-.05,12.92,4.23,1.51,1.33,2.4,2.61,2.7,3.04.04.06.28.4.31.77.06.58-.34,1.73-1.75,1.54-1.82-.24-3.83-1.1-5.59-1.03-.79.03-1.38.25-1.81.51,1.13,2.12,3.11,7.3-.96,13.44-.93,1.4-2.41,3-3,3.25-.62.26-1.82.15-2.13-1.16-.16-.68-.71-5.69-7.95-10.53-.05-.03-.05-.04-.44-.29ZM288.51,170.97h0c-.29-1.27-.96-3.81-3.81-5.91-1.72-1.27-3.81-2.07-5.88-2.64,1.7,2,2.98,4.44,3.1,7.74,0,0,.12.87-.49,1.5-.48.49-1.05.46-2.96,1.31-.53.23-.49.3-1.02.55-3.77,1.81-5.3,4.14-5.91,7.95,1.09-.67,2.45-1.22,4.2-1.49,2.72-.41,5.2-.04,7.64-.19.65-.04.82.04,2.02.85,5.25,3.56,7.47,7.28,8.45,9.8.04-.06.08-.12.13-.18,3.21-4.44,1.92-8.36,1.89-8.46-.47-1.82-1.36-3.02-1.48-3.3-.05-.11-.32-.77.17-1.43.01-.02,1.15-1.4,3.15-1.95,1.24-.35,2.43-.3,3.58-.1-1.91-1.52-4.82-3.04-8.88-3.13-1.55-.03-2.41.21-2.82.12-.52-.1-.84-.52-.89-.63-.06-.13-.1-.28-.16-.42Z"/>
        <ellipse cx="287.64" cy="175.08" rx="1.5" ry="1.92" transform="translate(64.93 427.65) rotate(-79.92)"/>
        <g>
          <path d="M389.65,256.83c2.96-7.85,7.54-14.18,12.15-17.22.4-.27.51-.2.64-.66.06-.21-.05-.44-.07-.67,0,0-.52-.41-.53-.41-.21-.06-.44.05-.66.07,0,0-.86.43-1.66.95-4,2.58-7.6,6.63-10.46,11.22-1.53,2.46-2.75,5.13-2.83,5.32-1.91,4.38-4.54,12.1-4.53,22.91,0,3.96.46,7.56.54,8.1.69,4.63,2.33,12.85,7.38,23.49.4.84.37.85.42.92.12.16.24.34.42.41.29.12.3.12.59,0,.29-.12.3-.13.41-.42.02-.05,0-.05,0-.59,0-.04-.03-.03-.19-.47-1.02-2.79-4.36-12-5.28-22.98-.3-3.59-.67-7.91-.12-13.87.76-8.22,2.81-13.47,3.81-16.1Z"/>
          <path d="M651.16,222.18c-4.81.58-10.72,1.46-17.48,3.26-.61.16-5.72,1.46-11.87,4.29-1.76.81-4.76,2.21-8.86,4.99-3.41,2.31-5.81,4.54-6.03,4.74-7.2,6.83-11.01,13.89-13.48,17.78-.26.41-.41.38-.33.86.06.31.06.32.32.5.25.18.27.18.57.13.31-.06.32-.06.5-.32.41-.58.42-.56.86-1.12,3.23-4.07,7.47-9.41,13.27-14.13,3.59-2.92,6.6-5.08,10.22-7.14,2.03-1.16,6.36-3.61,12.6-6.01,2.59-.99,9.06-3.62,19.74-6.05.68-.16.79-.3.83-.36.13-.19.09-.47.14-.7,0,0-.35-.55-.36-.56-.29-.2-.3-.2-.66-.16Z"/>
          <path d="M645.29,164.05c-.67.01-2.42.2-3.61.44-2.53.5-4.14,1.03-6.08,1.84-1.32.55-2.88,1.38-3.11,1.51-5.38,3.16-8.19,6.37-8.81,6.99-.24.24-.32.23-.33.57,0,.17.12.31.17.47,0,0,.46.21.46.21.36.01.34-.08.63-.31.36-.28,3.38-2.66,7.64-4.63.87-.4,2.85-1.23,2.9-1.25,2.24-.91,4.22-1.48,4.23-1.48,3.08-.97,5.78-1.29,6.25-1.38,4.9-.91,8.37-.47,8.39-.48.26-.11.49-.29.75-.4-.16-.19-.25-.43-.41-.63-.02-.03-4.41-1.58-9.07-1.47Z"/>
          <path d="M745.31,233.44c-.91-2.29-4.1-11.24-16.47-24.01-7.03-7.26-15.09-13.34-18.53-14.71-3.99-1.6-7.68-2.82-11.12-3.74-.55-4.25-2.64-7.42-3.33-8.41-.18-.26-3.53-5.71-12.58-10-2.56-1.21-4.88-1.89-4.96-1.91-5.59-1.47-8.88-1.05-9.85-1-.41.02-.46-.06-.75.23-.22.22-.22.24-.22.54s0,.33.23.54c.03.03.04.02.54.22.02,0,.02-.02.24,0,.06,0,3.23.24,8.19,2.32,2.3.97,2.3.96,2.5,1.04,7.12,3.14,10.99,6.83,12.06,7.85,2.68,2.56,4.67,5.02,5.83,8.04-11.67-2.77-20.42-1.93-28.45-.16-1.23.27-2.47.57-2.47.57-.19.16-.45.38-.4.62,0,.06.11.49.62.4,3.92-.75,9.04-1.65,15.21-1.47,2.33.07,12.55.28,27.52,7.07,1.96.89,6.73,4.4,12.43,9.92,12.11,11.73,16.59,19.9,18.11,22.89,2.26,4.44,5.56,13.81,7.27,20.62,6.1,24.37,2.53,41.81.87,49.48-4.34,20.02-14.9,36.52-26.5,46.41-2.07,1.77-3.08,2.41-3.08,2.42-.12.15-.28.3-.31.49-.06.31-.05.32.12.58.18.25.19.26.5.31.05,0,.04,0,.57-.12.01,0,.79-.57,1.08-.77,11.15-7.74,23.21-21.87,29.81-41.46,1.59-4.72,3.99-12.77,4.54-24.63.3-6.49.75-25.22-9.22-50.19Z"/>
          <path d="M544.07,45.45c.65-.41,1.02-.81.97-1.61.08-.61-.17-2.83.14-3.2l.07-.03c.59-.04,1.1.51,1.58.94.44.43.97.62,1.42.29,1.51-1.41-.85-3.77-2.41-4-2.02-.53-3.88,1.14-3.95,3.25-.06,1.29-.04,5.35,2.18,4.36Z"/>
          <path d="M629.73,265.7c-1.96-.43-10.22-2.84-22.52-3.52-4.89-.27-9.25-.1-9.51-.09-3.29.18-9.13.61-16.27,2.21.48-4.75,1.43-7.85,1.65-8.68.22-.83.16-.84.85-3.08,1.65-5.39,4.1-9.24,4.52-10.02,2.35-4.37,5.73-9.04,5.8-9.21.09-.2.2-.42.18-.64-.02-.22-.2-.39-.3-.58l-.8-.33c-2.47,2.54-4.86,4.65-7.51,8.1-2.21,2.88-4.59,7.56-5.79,12.24-.34,1.3-.59,2.66-.61,2.79-.54,4.17-.36,7.6-.12,9.9-2.33.58-4.77,1.28-7.29,2.13,2.41-5.24,4.51-11.13,6-18.98-20.18-15.05-40.53-21.17-57.44-25.51,0,0-2.38,3.06-4.45,3.25-20.7,1.86-36.68,1.47-54.13,2.27-16.26.74-49.7.98-49.7.98l-29.39,129.05c2.03,2.3,4.36,4.07,6.96,5.4-4.08,10.51-8.58,15.01-16.52,19.38-5.04,2.78-15.89,3.68-16.55,4.26-14.18,1.78-5.92,13.56-3.08,14.63,12.07,4.58,39.64,2.57,38.49,2.06,0,0,2.32.18,3.29.12.97-.06,1.84-.11,1.84-.11l5.53.24c.8-4.88,2.46-11.78,4.56-21.19,0,0-.01,0-.02,0,.3-1.34.69-3.13,1.21-5.51,1.01-4.65,1.84-8.31,2.47-11.04,1.79-.18,3.63-.43,5.51-.75,0,0,3.04-9.51,7.4-22.97.76,1.89,1.66,3.81,3.14,5.72.09.12.55.72,1.26,1.35,2.88,2.6,5.63,3.42,7.93,3.75,1.21.18,3.05.05,4.71-.14l-3.07,12.57c3.18,1.99,6.63,3.61,10.18,4.87-2,3.46-4.13,6.78-6.46,9.56-3.88,4.63-19.41,8.91-21.07,10.06-16.46,2.45-7.51,16.02-4.99,17.11,10.58,4.58,35.77,2.6,34.76,2.08,0,0,2.52-.04,3.37-.11.85-.06,1.41.33,1.41.33l4.85.24c1.75-4.56,4.4-14.34,4.56-23.39.29-1.22.22-1.79.23-1.83.14-4.16.42-5.29,2.21-10.72,3.56,0,6.95-.36,10-1.09l36.13-98.73c6.7,6.56,18.04,8.7,31.19,8.91-1.35,1.18-2.75,2.49-4.18,3.93-.13.13-1.59,1.59-1.64,1.69-.11.19-.25.39-.26.61,0,.22.16.41.24.61,0,0,.63.28.64.28.22,0,.4-.18.6-.26.22-.1,8.56-8.39,22.36-14.76,3.58-1.66,15.96-7.74,35.1-9.26,2.59-.21,15.32-1.58,30.69,1.04,1.44.24,1.43.3,1.55.3.2,0,.41,0,.58-.11.26-.17.27-.18.34-.48.06-.3.06-.32-.11-.58s-.18-.27-.48-.34ZM464.22,258.03l-22.58,92.59c-3.42-.54-3.59-.74-4.66-.97-3.7-.81-5.87-2.74-6.65-3.41-.67-.57-2.2-1.75-4.09-3.93-1.13-1.3-1.06-1.41-1.41-1.51,0,0-.14.02-.3.04,9.07-27.93,23.29-71.12,28.38-83.08,1.29-3.04,9.88-.83,9.88-.83l7.38-24.21-5.93,25.31Z"/>
          <path d="M565.42,365.96c-.36-.01-5.39-.36-8.38-.49.12-.14.13-.14.15-.17.09-.17.22-.35.22-.54,0-.19-.14-.36-.22-.54,0,0-.54-.24-.54-.24-.38,0-.36.07-.66.33-.03.03-.07.05-.1.08-1.19.92-2.55,2.09-4.54,2.51-1.32.28-2.23.22-3.46.24-4.71.07-8.82-1.12-9.42-1.28-1.19-.31-1.19-.29-2.38-.6-.42-.12-2.74-.73-5.03-1.75,1.63-1.49,2.84-2.77,3.56-3.36.35-.29.45-.24.51-.68.04-.31.04-.32-.15-.57-.19-.25-.2-.25-.51-.3-.47-.06-.44.08-.82.34-1.47,1.02-2.42,1.78-4.1,2.95-5.62,3.92-9.36,4.67-11.24,5.17-7.87,2.1-16.59.97-19.75.24-1.11-.25-8.17-1.59-13.39-7.26-.3-.32-.28-.38-.72-.43-.21-.02-.41.11-.61.16,0,0-.31.56-.31.57-.04.36.13.61.16.66,3.23,4.69,7.44,7.13,9.64,8.23,1.31.67,3.24,1.38,3.82,1.54,1.7.5,3.02.77,4.69.98,8.49,1.08,13.87-.19,15.12-.48,1.24-.28,2.45-.65,2.53-.67,1.85-.66,4.02-1.55,6.53-3.16,1.11-.71,2.13-1.47,3.06-2.22,0,.48.1.66.4-.33.05-.04.09-.07.13-.11,3.05,2.57,6.11,3.97,6.69,4.23,1.86.85,5.14,1.75,8.6,1.93,2.24.12,3.77-.11,3.97-.14,3.55-.66,5.35-2.01,6.69-3.49,1.91,1.08,5.52,2.02,5.9,2.12,6.38,1.66,14.21-2.06,14.43-3.76l.89-2.6-1.97,2c-8.67.86-8.63.93-9.38.9Z"/>
          <path d="M189.6,281.56c-.38-.09-2.25-.51-4.83-.97-4.02-.71-7.28-.96-7.6-.97-1.55-.07-6.44-.28-12.21.5-2.46.33-4.49.82-4.96.96-3.06.9-5.4,1.93-7.19,2.92-2.43-2.24-8.15-7.81-15.52-13.36-.77-.58-2.36-1.83-6.19-4.23-9.92-6.2-17.74-8.44-19.48-8.92-.79-.22-12.37-3.82-24.12.31-.47.16-.54.1-.78.53-.1.19-.05.43-.07.64,0,0,.41.5.42.5.38.21.41.15.83.05,6.73-1.61,12.54-.75,15.75-.15,3.47.65,7.11,1.83,7.8,2.05,10.56,3.39,20,9.74,21.83,10.85,7.09,4.32,13.66,9.27,17.36,12.1-2.62-.51-6.03-.84-10.37-.2-1.99.29-3.99.85-4.11.89-1.59.49-9.22,2.84-16.88,10.15-1.06,1.01-2.69,2.95-3.25,3.68-4.85,6.24-5.38,10.16-5.54,11.03-.08.44-.18.48.06.85.18.26.19.27.49.33.3.06.32.05.57-.12.39-.26.26-.36.4-.8,1.74-5.4,8.29-10.93,8.9-11.44,1.64-1.4,1.64-1.41,1.78-1.53,6.61-5.56,12.51-7.79,13.65-8.23,3.63-1.44,7.95-2.87,13.24-2.79-.93.75-1.52,1.37-1.91,1.73-.3.3-.4.26-.42.68-.01.31,0,.33.2.56.21.23.22.24.54.25.31.01.32,0,.55-.2q.17-.15.36-.29c4.69-3.38,11.45-4.12,12.25-4.28,6.45-1.23,13.85-1.26,15.24-1.28,2.68-.04,7.41-.31,13.13-.02.34.02.36.06.64-.14.18-.14.23-.4.34-.59,0,0-.17-.64-.17-.64-.26-.35-.31-.29-.73-.39Z"/>
          <path d="M465.26,225.89l52.42-1.63c.84-.72.91-1.7.06-3.03l-12.61.16c1.82-3.53,2.49-8.79,5.02-9.71,3.58-1.29,9.75,2.58,18.48-.31.6,4.08.9,7.78,1.12,9.24.02.15.17,1.11,1.19,1.45.29.1.3.07,3.03.54.72.12,7.78,1.34,9.02,1.54,47.27,7.71,52.98,6.99,57.93,3.97,5.82-3.56,11.88-6.72,13.1-55.98.23-9.07.19-18.63.18-20.02l-.06-8.34c-.11-11.69.8-63.6-46.96-65.72-.17,0-2.02-.09-2.12-.06-.22.06-.46.09-.62.24-.16.15-.18.4-.27.6,0,0,.24.62.24.63.15.16.41.18.6.27,0,0,.24,0,1.29.06,44.36,2.37,44.44,48.19,44.28,64.36-.13,13.19-.11,30.68-1.31,47.15-1.99,27.38-6.09,30.75-9.19,32.71-2.26,1.44-3.4,2.3-8.55,2.33-10.74.07-36.98-4.18-48.4-5.95-.69-.11-8.56-1.32-8.58-1.32-.48.03-.93.24-1.39.42-.66-4.95-1.03-7.91-1.62-11.04-1.62-8.65-4.2-13.88-7.36-18.23-.27,0-.28,0-.3,0-1.33-.37-1.05-.95-2.38-1.32l1.03-.83c.57.7,1.12,1.42,1.65,2.15.29,0,.87,0,2.09,0,10.04.02,12.03.14,24.03,1.28,18.33,1.74,18.34,1.68,35.55,2.61,3.07.17,3.07.21,3.33.2.6-.02.55-.18.82-.72,0,0-.18-.55-.19-.56-.2-.23-.22-.24-.53-.26q-1.66-.11-3.32-.24c-3.19-.24-5.78-.43-8.04-.61.05-.08.09-.18.15-.28,0,0,1.09-10.23,1.55-18.9.42-7.67.39-11.26.34-14.63-.06-3.82-.27-6.83-.29-7.02-.13-1.38-.68-7.75-2.47-15.91-.1-.45-.03-.51-.4-.78,0,0-.64-.16-.64-.16-.59.34-.78.31-.73.99.04.48.52,5.32.54,14.64,0,3.22.05,3.22.08,6.45.05,4.89,0,6.89,0,7.32-.02,14.4-1.26,27.57-1.23,27.72.02.11.04.22.06.33-3.72-.29-6.75-.56-10.76-.98-15.62-1.65-22.08-2.82-32.06-3.16-3.66-.12-10.78-.24-10.83-.24-.7,0-1.32.51-1.45,1.18-.15.79.45,1.38.49,1.42.21.27.42.54.62.8-15.69-.69-24.95-2.45-32.38-.25,4.66-9.7,6.1-15.12,5.31-23.04-.43-4.28,1.17-22.58,2.92-33.25.05-.28.56-3.44.55-3.56-.02-.22-.02-.47-.14-.65-.12-.18-.36-.25-.54-.37,0,0-.73.12-.73.12-.28.18-.21.24-.29.57-1.41,5.73-6.86,29.82-5.8,35.34,1.53,8,1.71,12.25-3.35,25.49-.01.04-.03.07-.04.1-3.07,1.29-5.87,3.41-8.8,6.74-4.32,4.92-7.76,11.94-8.84,15.93-1.25,4.62.3,6.42,1.7,7.06.91.41,2.1.42,2.44.4,3.35-.15,4.17-3.21,5.25-5.7,1.46-3.37,3.44-6.02,6.64-8.5-1.68,3.82-3.39,7.68-3.82,10.81-.24,1.71.04,2.92.57,3.74l-16.3.21-5.21-30.71c1.8-.51,2.75-.73,2.79-.75,2.3-.63,2.78-1.37,4.05-1.74.74-.21.73-.23,1.45-.48,7.03-2.53,9.68-2.42,9.97-2.63-.37-.32-1.42-.5-1.46-.51-1.7-.3-2.84-.61-3.14-.63-1.13-.06-2.19-.07-3.14-.05,2.6-6.92,4.99-21.44,7.22-42.61,5.94-56.34,34.72-47,39-53.03,2.62-3.69-11.61,1.34-12.58,1.68-35.32,12.49-28.11,56.98-33.8,79.27-1.88,7.38-2.76,12.15-3.17,14.91-.45.05-.73.09-.79.11-.38.07-2.6.46-7.12,2.16l-6.14-36.22-89.7,3.64,12.86,74.63,88.95-3.06ZM487.94,221.6c.47-.37.94-.85,1.4-1.39.01.58.08,1.02.17,1.37l-1.57.02ZM484.92,214.89c1.42-3.9,4.47-9.98,4.97-11.5.41-1.23-.48-2.05-1.22-2.19-.67-.13-1.21.24-1.47.37-11.35,6.25-12.2,13.27-13.75,15.62-.26.4-.4.59-1.37.41-.07-.23-.2-.91.27-2.79.84-3.35,4.03-10.62,8.81-15.87,8.35-9.18,16.24-6.64,38.44-6.27.2,0,1.58.03,2.73.04,2.73,4.17,4.11,8.16,4.96,11.49.46,1.77.83,3.69,1.13,5.57-1.3.42-3.37.92-5.93.93-6.19.03-11.05-2.85-14.41-.22-2.96,2.32-3.82,8.71-5.82,10.94l-2.07.02c-.26-1.39.18-3.69.81-5.99.45-1.13.9-2.36,1.34-3.69.1-.3.89-2.62,1.2-3.75.02-.06.12-.41.04-.77-.24-1.11-1.61-1.55-2.45-.8-.29.25-.43.66-.45.73-.15.43-.57,1.57-1.06,3.07-1.22,3.36-3.42,8.8-5.38,10.35-.51.4-.66.4-1.09.18h.02c-.03-.09-.12-.36-.11-1.01,0-.18.01-.95.26-2.3.91-4.92,3.5-11.4,3.61-11.73.04-.11.27-.77-.09-1.43-.65-1.2-2.48-1.21-3.08.17-.02.06-.08.21-.17.42h0c-.07.17-.26.64-.52,1.31-1.26,3.11-3.95,9.49-6.23,12.16-.99,1.15-1.94,1.55-2.09,1.6-.46.14-.62.06-.63.07h0s0,0,0,0c-.02-.03-.04-.07-.06-.11-.53-1.32.78-4.75.88-5.02Z"/>
          <path d="M138.03,360.72c-1.31-.33-5.11-1.86-11.61-1.42-2.84.19-5.51.78-5.6.8-7.57,1.84-11.38,4.06-16.46,2.58-3.24-.94-6.93-3.1-11.86-6.08,2.03-.3,3.74-.55,5.06-.73,1.62-.21,1.63-.15,1.72-.18.18-.06.39-.12.52-.27.2-.24.21-.25.18-.56,0-.05-.03-.31-.27-.52-.04-.03-.24-.21-.56-.18-6.59.56-14.46,1.69-25.71,2.29-20.8,1.09-31.66-1.2-36.88-2.41-17.16-3.98-23.85-12.11-26.81-18.98-7.64-17.71-5.99-31.3-5.21-36.37,3.26-21.28,17.43-35.79,31.21-40.51.46-.16.54-.08.78-.52.1-.19.04-.44.06-.66,0,0-.42-.51-.43-.51-.31-.17-.33-.16-.67-.06-.64.19-1.28.4-1.92.62-.02-.08-.06-.25-.11-.67-1.13-9.5-1.32-20.34,4.83-32.2,1.79-3.46,6.27-12.03,18.52-23.11,4.35-3.93,7.69-5.81,10.64-7.3,13.04-6.6,25.9-4.52,29.26-3.42.43.14.45.24.87.07,0,0,.48-.47.48-.47,0-.73.12-.89-.55-1.17-1.17-.5-3.64-1.25-6.97-1.72,10.02-2.52,17.34-8.46,24.75-15.14,4.46-4.02,4.38-4.1,8.94-8,6.3-5.39,12.81-9.64,21.36-10.93,16.99-2.56,29.1-1.37,34.59-.62,5.26.71,23.31,3.03,39.07,15.38,3.02,2.36,5.23,4.55,6.48,5.88-1.67.1-3.59.3-5.81.67-.43.07-.48.03-.76.36-.14.16-.14.4-.21.6,0,0,.3.56.3.56.17.15.42.16.63.24.08.03,5.56-.18,11.79,1.27,3,.7,4.74,1.12,9.02,2.52,4.22,1.38,7.04,3.13,7.56,3.4,2.07,1.09,3.93,2.3,5.52,3.46-2.06-3.1-4.06-5.57-3.9-6.3.01-.06.27-.09.63-.1-.29-.21-.48-.33-.51-.36-2.34-1.48-4.14-2.32-5.75-2.98-2.91-1.18-8.69-2.81-11.32-3.13-1.3-.15-2.97-.31-5.18-.29-3.04-3.65-14.12-16.5-36.98-22.75-.7-.19-4.81-1.32-8.86-1.96-11.72-1.87-23.78-1.68-36.39.19-6.47.96-13.18,3.22-21.65,10.27-8.77,7.31-16.14,17.44-26.85,23.26-5.25,2.86-9.69,3.76-11.37,4.06-4.25-.15-9.25.26-14.48,1.82-2.63.79-9.39,2.95-16.68,9.45-5.27,4.71-11.02,10.6-15.5,17.49-.31.48-2.25,3.46-3.56,6.21-6.1,12.86-5.55,24.07-3.6,34.63.2,1.07.17,1.08.2,1.16.03.06.05.12.08.19-12.56,4.94-23.22,16.31-28.45,30.25-2.22,5.91-7.76,22.9,1.49,46.41,1.98,5.03,6.58,17,27.29,22.63,18.48,5.02,42.73,2.2,56.76.21.06.08.15.15.31.28,5.39,4.17,8.2,6.28,11.02,7.75,7.58,3.97,13.26.88,20.86-1.3,2.75-.79,8.63-2.93,16.01-1.66.42.07.45.2.82-.02.27-.16.28-.17.36-.47.01-.05.08-.31-.08-.59-.02-.04-.16-.28-.47-.36Z"/>
          <path d="M491.55,67.88c.17.37.39.78.73.96.35.21.88.15,1.73-.14,1.83-.56,5.19-1.58,7.19-2.18,1.2-.35,1.71-.59,1.89-.37,1.58,4.22,4.1,12.52,5.2,15.64.66,1.51,1.09,3.65,2.46,4.76,2.21,1.19,5.57-.23,8.01-.67,4.37-1.26,2.12.06,2.67,2.84.47,3.47,2.59,14.13,5.32,15.39,5.25-3.07,30.23-21.42,35.33-24.95.97-.77,1.77-1.09,1.78-1.38-1.04-.58-2.62-1.03-3.78-1.55-1.18-.46-1.34-.66-1.65-1.74-.55-1.81-1.2-3.94-1.74-5.71-.57-1.83-1.11-3.77-1.76-5.61-.16-.52-.46-1.29-.81-2.19.62-.41,1.09-1.3,1.43-2.42,1.41-3.72,3.58-7.9,5.16-11.35,1.11-2.62,1.08-5.67,1.6-8.51.26-2.36.92-4,.22-6.19-1.02-3.63-2.02-7.63-3.41-11.05-1.09-1.92-4.03-6.77-5.7-9.63-.68-1.15-.99-1.83-2.07-2.46-1.85-1.17-7.5-4.72-9.82-6.18-1.46-.93-1.42-.87-3.12-1.01-4.37-.35-11.01-.88-14.8-1.18-1.66-.14-1.45-.12-2.99.57-4.67,2.13-16.21,7.45-18.84,8.65-.38.18-.6.32-.85.67-.58.93-1.27,2.23-1.94,3.46-2.8,5.23-5.53,8.69-5.26,14.37-.03,2.01.2,4.61.31,6.95.15,1.78-.05,4.3,1.55,5.24.16.37.14.93.15,1.35-.04,1.67.01,3.01.41,4.5.37,1.54-1.37,1.25-3.07,1.98-1.75.54-3.9,1.21-5.42,1.68-1.57.56-3.05.62-2.72,2.24.9,2.12,5.59,12.93,6.59,15.22ZM504.23,49.78c-.48-.18-.66-.71-.84-1.17-.18-.51-.43-1.19-.26-1.68l.04-.1c.14-.34.44-.55.61-.88.44-.78-.11-2.29-.62-2.93-.3-.31-.76-.25-1.47-.1-.88.19-2.07.46-2.73.59-.56.08-.82.2-.87-.27.03-1.83.33-12.11.41-14.57.03-.55.29-.63.95-.61,7.81.51,15.91-1.57,22.58-5.57.85-.53,1.59-1.23,2.34-1.88.29-.23.55-.36.78-.32.47.04.74.87,1.23,1.59.55.85,1.38,1.48,1.85,2.36.9,2.22.55,5.83,1.28,8.34.36,1.56,2.06,2.08,3.24,2.84.84.57.17.93-.42,1.13-1.81.57-5.24,2.06-6.86,2.33-.56-.06-.7-.8-.95-1.3-.27-.63-.68-1.28-1.29-1.6-.79-.35-1.31.07-2.72.51-2.5.87-5.24,1.82-7.71,2.67-1.44.68-3.02.44-2.93,2.02,0,.87.6,1.84.41,2.48-.19.43-.69.54-1.12.72-.97.37-2.4.76-3.02,1.56-.5.83.31,1.93.34,2.82.01.96-1.51,1.18-2.24,1.01ZM525.49,55.9l-.02.03c-2.07.88-6.27,2.16-8.58,3.01-.87.19-1.55.9-1.98.04-1.01-2.16-4.44-10.15-4.53-11.5.02-.56.64-.41,1.92-.88,2.72-.8,5.86-1.73,8.62-2.54.96-.3.77-.26,1.16.88,1,3.37,2.58,7.75,3.4,10.96ZM506.57,63.48h-.13c-1.06-.11-1.77-.89-1.49-1.99.4-2.3.47-4.75.95-7.04.17-1.16.97-1.71,2.07-1.83.35-.05.5-.02.61.25.58,1.46,3.1,7.71,3.6,8.98.09.26-.06.29-.38.37-1.6.23-3.67,1.33-5.24,1.26ZM521.54,74.77c-.36.08-.89.2-1.46.32-.9.09-2.37.77-3.01.43l-.06-.06c-.6-1.06-.84-2.73-2.17-2.99-.63-.15-1.4.03-1.86.51-.89.83-.35,2.54-.25,3.22,0,.19-.05.35-.24.45-.57.28-1.57.52-1.84-.05-.61-1.2-1.03-3.39-1.27-4.74-.06-.64-.32-1.12.27-1.3,1.58-.38,9.08-2.15,10.24-2.41.3-.06.35.2.44.44.35,1.09,1.53,4.68,1.81,5.61.14.43-.19.48-.59.57ZM523.6,61.09c-.73-.91-.09-1.13.78-1.34,1.86-.63,5.72-.89,5.16-2.73-.53-1.91-2.73-9.71-3.15-11.22-.16-.64.51-.53,1.15-.81.75-.23,1.81-.56,2.87-.89.98-.3,1.95-.61,2.64-.82.88-.27,1.19-.4,1.26-.21.67,4.56,1.7,12.84,2.22,16.7.05.29-.03.42-.28.55-.86.47-4.67,2.49-7.47,3.98-1.41.66-2.09,1.29-3.14,1.56-.81-.87-1.08-3.36-1.97-4.66l-.07-.11ZM556.5,78.49l.02.08c.04.22.05.35-.07.49-.61.45-2.88,2.01-5.88,4.12-5.35,3.75-21.02,14.69-22.89,15.99-.73.49-1.68-4.92-2.05-6.39-.43-1.77-.38-2.66,1.2-3.33,6.04-3.07,10.46-9.05,14.73-13.87,1.03-1.39,2.83-3.04,2.67-4.82-.66-2.83-4.65-19.65-5.32-22.47-.1-.44.2-.52.53-.89.31-.32.62-.88.63-1.57-.14-2.67-1.16-5.55.08-8.14,1.51-3.4,5.65-4.02,8.53-2.05,4.72,3.23,3.45,10.75-.85,13.83-.51.36-1.07.66-1.66.86-1.83.63-4.22.16-3.32,2.42.35.84,1.01,1.52,1.76,2.01,1.46.98,3.33.96,3.93,2.73,2.87,6.9,5.33,14.01,7.97,21ZM490.13,53.38c2.43-.79,5.27-1.72,7.66-2.5,1.04-.26,1.42-.68,1.66-.26.43,1.31,3.78,10.37,4.08,11.69-1.2.63-2.67.83-4.27,1.39-1.57.44-4.09,1.32-5.2,1.53h-.03c-1.29-2.75-3.05-7.53-4.36-10.62-.39-1.02-.55-.91.47-1.23Z"/>
          <path d="M350,359.5c.05,0,.12,0,.2,0h.14c.1.02.24.04.42.06,3.06.34,7.48-1.34,7.5-1.34,2.15-.77,5.62-2.75,9.19-5.51,3.69-2.85,5.19-4.35,6.01-5.2.34-.34.43-.32.42-.8,0-.11-.04-.2-.09-.3v-.22c.32-14.62,1.49-26.04,1.63-27.7.37-4.71.63-7.02.98-10.83.04-.42.18-2.05.31-5.24.97-24.22.23-27.31.47-40.36l-.09-.62-.75-.29s-.12.05-.24.09c-4.13-.22-13.86-.84-30.9-1.45-.04-1.13-.13-2.35-.27-3.66-.76-7.53-2-15.79-2.29-26.64-.2-7.6.53-11.52.19-16.36-.28-3.98-1.35-6.93-3.64-8.83.17-1.48.8-7,1-9.34.06-.66.22-1.39-.52-2.12-1.45-1.44-6.68-2.02-9.32-2.12-.18,0-1.09-.03-2.32.08-1.72.17-5.02.58-6.54,1.65-.85.6-1.21.92-.92,6.37.11,2,.28,4.11.36,5.08-.85.61-1.64,1.39-2.3,2.36-3.82,5.62-2.2,14.19-2.59,26.02-.48,14.93-2.82,19.68-2.79,27.41.01,3.2.49,6.21.64,6.66.29.85,1.33,3.64,12.04,4.39,2.69.19,4.29.18,6.65.03.64-.04,5.05-.31,7.92-1.32,3.33-1.16,4.52-3.68,4.69-7.52,14.94.22,24.11.55,28.32.72-3.75,2.23-10.56,6.22-16.15,9.2-4.66,2.48-5.92,2.95-6.5,3.15-16.89-.48-33.79-1.01-50.68-1.5-8.56-.25-17.11-.48-25.67-.7-5.76-.15-11.52-.42-17.28-.39-18.6.09-37.19.65-55.79.74,10.28-3.51,20.49-7.2,30.76-10.7.04-.01,7.48-.12,8.13-.13l25.29-.31c0,1.26.16,2.08.37,2.72,1.24,3.86,6.67,5.6,8.86,6.11,1.87.43,3.56.6,3.89.61.68.03,2.41.1,4.5-.11.69-.07,5.21-.52,8.25-2.66,2.18-1.53,3.24-3.33,3.28-7.02.05-4.92-1.57-11.94-3.78-21.74-2.45-10.9-2.69-13.49-1.97-16.77.19-.86.44-1.73.73-2.57,2.17,2.86,7.81,10.72,11.64,22,.65,1.91,3.21,8.6,4.14,17.51.63.12,1.14.2,2.15.26,0-3.77-.33-8.77-1.61-14.56-.07-.3-.57-2.57-.93-3.76-.88-2.87-4.02-13.07-12.14-23.52-.5-.64-1.09-1.35-1.58-1.92.95-1.94,1.85-3.41,2.14-3.87.24-.39.34-.39.25-.84-.04-.22-.24-.37-.36-.55,0,0-.65-.14-.66-.13-.02,0-.09.02-.18.06-1.03-.13-1.42-.26-7.47-1.09-.12-.02-.29-.04-.48-.05-.87-.7-1.81-1.42-2.84-2.14.06-1.16.1-1.97.11-2.16.2-2.8.87-12.39,2.23-16.86.18-.58.3-.61.02-1.15,0,0-.64-.54-.65-.54-.93.08-1.15-.04-1.42.86-.19.64-1.22,3.88-2,15.74-.07,1.07-.13,2.01-.18,2.83-2.24-1.44-4.78-2.82-7.62-4-.45-.19-.59-.35-.81.09-.22.44,0,.45.42.7,1.79,1.06,4.53,2.83,7.83,5.82-.01.21-.03.41-.04.6-.41-.01-.71-.02-.81-.02-.31,0-3.18-.07-3.91-.02-.19.01-.36.03-.53.04-2.96-5.15-5.74-7.62-6.72-8.53h0c-.15-.07-.74-.38-.74-.38-.29-.03-.55.16-.83.24,0,0-.42.77-.42.78-.03.29.16.56.24.83.07.22,2.72,2.19,5.61,7.32-.81.08-1.87.19-3.68.38-.31.03-.42.12-.51.25,0,0,0,0-.02.01-.22.18-.24.2-.27.45-.03.04-.07.07-.12.12.06.06.11.12.17.18.02.07.06.18.1.34,0,0,.27.33.75,1.02,2.03,2.88,4.95,7.91,5.26,12.45.42,6.13-5.31,21.15-7.07,31.17-.12.67-.22,1.3-.3,1.87-1.08,0-2.17,0-3.27-.01-10.11-.03-30.18.2-30.87.22-.25,0-.44.06-.48.07-.35.09-28.52,11.73-31,12.76-.73.3-1.23,1.07-1.21,1.84.02,1.03.88,1.91,1.93,1.93,20.48.41,64.84,1.21,73.76,1.33,6.09.08,29.49.41,75.85.81-.17,6.02-.91,21.21-.96,22.46-.05,1.41-.1,2.75-.14,4.03-8.35-1.33-18.12-2.52-18.12-2.52-2.84-.35-2.84-.37-5.69-.73-15.5-1.98-23.75-2.72-25.84-2.91-1.28-.12-7.19-.59-8.1-.64-.64-.04-6.52-.31-7.74-.35-4.19-.13-13.44-.39-25.17-.24-7.44.09-26.35.17-48.76,2.57-.34.04-4.14.44-4.23.47-.24.07-.49.17-.65.36-.16.19-.14.47-.21.71,0,0,.35.65.36.66.19.15.48.14.71.21.01,0,.13-.03,1.69-.18,13.31-1.3,24.93-1.73,33.35-1.9,12.77-.25,20.66.06,20.86.07,2.21.06,11.83.35,27.55,1.41,2.76.18,2.76.17,5.52.32,20.12,1.11,28.03,1.97,33.26,2.54,1.95.21,10.77,1.27,19.81,2.82.56.1.98.18,1.3.23-.31,8.96-.44,14.45-.52,18.36l-24.98-1.65c-5.53-.36-29.19-1.56-34.95-1.99-2.06-.16-18.32-2.18-28.73-3.13-18.88-1.74-26.94-.82-45.39,2.65-3.68.69-9.02,1.73-9.02,1.73-.21.09-.44.19-.58.37-.13.18-.11.44-.16.66,0,0,.36.58.37.58.3.21.31.21.67.16,9.37-1.4,18.2-2.76,25.58-3.36,12.55-1.02,20.98.06,51.58,3.64,5.04.59,5.03.62,10.1.91,11.35.64,24.4,1.2,27.52,1.33,4.13.18,24.99.75,27.16.81.3,0,.55.02.78.03-.02,1.22-.03,2.3-.05,3.32,0,.66.01,3.72.07,7.77-15.53,2.25-28.15,2.47-39.57,2.7-6.06.12-15.58,0-26.05.64-3.83.23-7.73.64-8.06.68-3.66.46-5.58.77-6.31.89-9.79,1.57-12.1,1.82-18.15,2.43-17.56,1.77-23.55-.38-46.49,2.8-1.31.18-1.31.15-1.42.18-.22.07-.46.16-.6.34-.23.29-.23.31-.18.67.04.36.06.38.34.6.04.03.3.23.67.19.59-.07.59-.08,1.41-.15,15.16-1.44,22.97-.86,31.62-.65,1.24.03,8.77.22,15.51-.32,8.13-.65,15.07-1.76,17.2-2.09,4.46-.69,6.72-.97,7.58-1.09,14.27-2.13,26.97-2.72,29.41-2.85,10.16-.56,24.52-.61,41.02-2.9.16-.02,1.2-.17,2.11-.3.09,5.44.24,12.15.46,17.21,0,.04,0,.08,0,.12-.07,0-.14.01-.21.02-10.22.84-26.99.45-37.19.18l-22.25-.61c-32.6-.86-39.91-1.2-45.13-1.26-1.31-.01-5.77-.07-8.04-.06-4.41.04-12.54,1.13-20.13,1.48-9.07.42-13.77-.4-13.99-.37-.22.03-.46.03-.64.16-.18.13-.23.38-.34.58,0,0,.16.64.17.65.21.28.23.29.57.34,11.89,1.97,22.38.75,32.55.54,3.33-.06,7.57.48,39.08,1.43,14.55.44,27.04.54,28.86.53,6.53-.04,32.12-.18,46.31-2.01.53-.06.83-.1,1-.12ZM322.97,194.52c.43-.18,1.81-.62,6.45-.51,1.35.03,6.29-.22,8.31.59-.06,2.47-.27,6.42-.39,8.51-1.63-.79-3.69-1.25-6.25-1.36-.12-.11-.19-.11-.45-.12-1.91-.06-5.08-.03-7.93,1.27-.03-3.14,0-7.05.27-8.38ZM317.1,265.2c-1.06-5.45-.96-8.51-.19-14.84.69-5.75,1.66-13.24,1.32-25.28-.27-9.33-.98-17.35,5.01-20.4-3.05,20.82-.86,22.57-1.19,33.5-.44,14.81-4.54,15.7-1.45,28.2-1.63-.3-2.88-.69-3.49-1.17ZM336.73,266.72c-.36.04-.76.08-1.2.11-3.37.25-6.12.16-6.23.16-2.19.02-4.36-.08-6.26-.27-3.12-11.43-.2-12.55.74-23.69.72-8.51-.3-13.68-.37-19.91-.09-8.21,1.34-17.42,1.57-19.13,1.48-.44,3.27-.66,5.43-.62.34,0,.44.04.62-.08.13,0,.3.02.54.04,1.12.09,2.12.25,3.01.48,0,.11.04.18.13.36,4.52,8.23,1.76,22.35,1.27,30.86-.95,16.21,3.6,16.58.75,31.69ZM340.74,265.66s0,0,0,0c-.06.05-.27.26-1.03.5,2.15-14.48-1.94-15.45-1.56-29.92.23-8.66,2.82-22.65-1.35-31.59.21.11.41.23.59.35.03.07.06.14.12.2.14.17.37.22.57.31,2.36,1.98,3.05,5.22,3.05,9.68,0,5.61-.79,8.11-.38,19.05.36,9.9,1.39,17.26,1.63,22.36.25,5.39-.22,7.89-1.62,9.04ZM353.38,276.48c5.87-2.84,17.86-10.26,21.98-12.82-.12,2.29-.21,4.53-.32,8.34-.24,7.78-.43,13.14-.62,17.31-.21.12-.41.26-.61.36-.09.04-.24.59-7.33,4.83-4.33,2.59-9.64,5.58-13.13,7.53.12-6.63.16-21.04.04-25.56ZM353.28,305.4c13.06-6.96,18.55-10.22,20.93-11.79-.18,3.59-.35,6.4-.53,9.79-.18,3.4-.21,3.4-.53,6.79-.08.89-.2,2.23-.3,3.57-6.12,3.42-14.02,9.34-20.07,11.01.22-6.44.32-10.52.5-19.38ZM352.55,331.24c.05-1.35.09-2.59.13-3.75,6.38-1.72,14.32-8.12,20.01-11.77-.1,1.3-.18,2.38-.2,2.72-.72,12.91-.33,25.05-.26,27.23,0,.25.01.43.01.57-.42.43-1.76,1.79-4.12,3.57-4.03,3.03-9.98,5.5-10.53,5.77-.96.48-1.54.73-1.92.9-2.34,1.04-3.83,1.36-4.65,1.45.16-4.72,1.44-24.44,1.52-26.69ZM268.23,258.66c1.08-9.73,6.67-24.83,6.83-32.14.1-4.82-2.79-10.23-5.29-13.85,1.05.2,3.91.75,5.26.91.94.12,4.33.26,5.5.29,1.31.04,3.89.01,4.23,0,.32-.02,3.57-.37,5.08-.58.6-.09,1.09-.16,1.49-.21-1.48,2.47-4.22,7.58-4.61,12.23-.44,5.26,2.69,17.42,3.93,24.84.51,3.06,1.8,10.95.54,14-1.09,2.64-6.8,3.83-12.18,3.41-.06,0-6.08-.12-9.08-2.3-1.12-.81-1.65-1.59-1.75-3.83-.06-1.33.07-2.74.07-2.77Z"/>
        </g>
        <circle cx="495.89" cy="19.45" r="3.01"/>
        <circle cx="495.39" cy="23.43" r="3.01"/>
        <circle cx="495.09" cy="26.48" r="2.46"/>
        <circle cx="499.83" cy="13.9" r="4.18"/>
        <circle cx="505.39" cy="9.72" r="4.18"/>
        <circle cx="511.43" cy="8.09" r="4.18"/>
        <circle cx="516.95" cy="5.1" r="4.18"/>
        <circle cx="522.85" cy="4.18" r="4.18"/>
        <circle cx="528.26" cy="4.18" r="4.18"/>
        <circle cx="534.15" cy="4.8" r="4.18"/>
        <circle cx="539.06" cy="5.92" r="4.18"/>
        <circle cx="549.82" cy="11.45" r="4.18"/>
        <circle cx="553.1" cy="16.74" r="4.18"/>
        <circle cx="556.21" cy="22.27" r="4.18"/>
        <circle cx="558.55" cy="27.61" r="4.18"/>
        <circle cx="559.87" cy="33.56" r="4.18"/>
        <circle cx="559.31" cy="38.71" r="4.18"/>
        <circle cx="558.19" cy="43.91" r="4.18"/>
        <circle cx="544.26" cy="7.85" r="4.18"/>
      </g>
    </g>
  </g>
</svg>