<?xml version="1.0" encoding="UTF-8"?>
<svg id="Layer_2" data-name="Layer 2" xmlns="http://www.w3.org/2000/svg" viewBox="0 0 542.95 238.23">
  <defs>
    <style>
      .cls-1 {
        fill: #010f3c;
      }

      .cls-2 {
        fill: none;
      }

      .cls-3 {
        fill: #ffd24e;
      }

      .cls-4 {
        fill: #6040ed;
      }
    </style>
  </defs>
  <g id="contenidos">
    <g>
      <g>
        <g>
          <path class="cls-1" d="M34.27,66.86c-4.87-.01-9.39-.86-13.56-2.55s-7.8-4.06-10.9-7.11-5.51-6.61-7.24-10.67C.85,42.47-.01,38.06,0,33.31c.01-4.75.88-9.16,2.6-13.21,1.72-4.05,4.13-7.58,7.24-10.59,3.11-3.01,6.75-5.34,10.93-7.02C24.94.82,29.49-.01,34.42,0c4.93.01,9.48.86,13.64,2.55,4.17,1.69,7.8,4.05,10.9,7.07,3.09,3.02,5.49,6.56,7.19,10.62,1.7,4.06,2.55,8.47,2.53,13.22-.01,4.75-.89,9.16-2.64,13.21-1.75,4.05-4.18,7.6-7.28,10.63-3.11,3.04-6.75,5.39-10.93,7.06-4.18,1.67-8.7,2.5-13.57,2.49ZM34.3,54.69c2.96,0,5.7-.51,8.22-1.55,2.52-1.04,4.75-2.5,6.66-4.38,1.92-1.88,3.4-4.12,4.45-6.73,1.05-2.61,1.58-5.47,1.58-8.6,0-3.13-.51-5.99-1.55-8.57-1.04-2.58-2.51-4.83-4.42-6.75s-4.12-3.39-6.64-4.41c-2.52-1.02-5.26-1.53-8.21-1.54s-5.7.49-8.22,1.5c-2.52,1.01-4.74,2.47-6.66,4.38-1.92,1.91-3.4,4.15-4.45,6.73-1.05,2.58-1.58,5.43-1.58,8.56s.51,6,1.55,8.61c1.04,2.61,2.51,4.86,4.42,6.75,1.91,1.89,4.12,3.36,6.64,4.41,2.52,1.05,5.26,1.58,8.21,1.58Z"/>
          <path class="cls-1" d="M76.61,65.92l.11-47.47,12.17.03-.02,9.39-.69-2.09c1.11-2.84,2.89-4.93,5.36-6.29,2.47-1.36,5.35-2.03,8.66-2.02,3.59,0,6.74.77,9.43,2.28,2.69,1.51,4.79,3.62,6.29,6.32,1.5,2.7,2.25,5.85,2.24,9.44l-.07,30.52-13.04-.03.06-27.74c0-1.85-.35-3.45-1.08-4.78-.72-1.33-1.73-2.38-3.04-3.14-1.3-.76-2.82-1.14-4.56-1.14-1.68,0-3.19.37-4.52,1.12-1.34.75-2.37,1.79-3.09,3.12-.73,1.33-1.09,2.93-1.1,4.78l-.06,27.74-13.04-.03Z"/>
          <path class="cls-1" d="M128.59,66.04l.15-65.82,13.04.03-.15,65.82-13.04-.03Z"/>
          <path class="cls-1" d="M150.67,66.09l.11-47.47,13.04.03-.11,47.47-13.04-.03ZM150.79,14.35l.03-13.04,13.04.03-.03,13.04-13.04-.03Z"/>
          <path class="cls-1" d="M172.75,66.14l.11-47.47,12.17.03-.02,9.39-.69-2.09c1.11-2.84,2.89-4.93,5.36-6.29,2.47-1.36,5.35-2.03,8.66-2.02,3.59,0,6.74.77,9.43,2.28,2.69,1.51,4.79,3.62,6.29,6.32,1.5,2.7,2.25,5.85,2.24,9.44l-.07,30.52-13.04-.03.06-27.74c0-1.85-.35-3.45-1.08-4.78-.72-1.33-1.73-2.38-3.04-3.14-1.3-.76-2.82-1.14-4.56-1.14-1.68,0-3.19.37-4.52,1.12-1.33.75-2.37,1.79-3.09,3.12-.73,1.33-1.09,2.93-1.1,4.78l-.06,27.74-13.04-.03Z"/>
          <path class="cls-1" d="M247.17,67.36c-5.04-.01-9.42-1.14-13.12-3.38-3.71-2.24-6.57-5.25-8.59-9.02-2.02-3.77-3.02-7.95-3.01-12.53.01-4.75,1.08-8.98,3.2-12.69,2.12-3.7,4.98-6.63,8.58-8.76,3.6-2.14,7.66-3.2,12.18-3.19,3.77,0,7.1.61,10,1.81,2.89,1.2,5.34,2.87,7.34,5.02,1.99,2.15,3.51,4.63,4.55,7.44,1.04,2.81,1.55,5.87,1.54,9.18,0,.93-.05,1.84-.14,2.74-.09.9-.25,1.67-.48,2.3l-35.56-.08.02-9.56,28.17.07-6.18,4.51c.58-2.49.56-4.71-.07-6.65-.63-1.94-1.75-3.48-3.34-4.62-1.59-1.13-3.55-1.7-5.87-1.71-2.26,0-4.2.54-5.83,1.64-1.63,1.1-2.85,2.72-3.66,4.86-.82,2.14-1.14,4.75-.97,7.82-.24,2.67.08,5.02.94,7.05.86,2.03,2.19,3.61,3.99,4.75,1.79,1.13,3.97,1.7,6.52,1.71,2.32,0,4.3-.45,5.96-1.38,1.65-.92,2.95-2.2,3.88-3.82l10.42,4.98c-.93,2.32-2.4,4.34-4.4,6.08-2,1.73-4.37,3.08-7.1,4.03-2.73.95-5.71,1.42-8.96,1.41Z"/>
        </g>
        <g>
          <path class="cls-1" d="M77.19,138.66v-64.78h13.48v53.04h27.39v11.74h-40.87Z"/>
          <path class="cls-1" d="M138.51,139.71c-3.42,0-6.38-.55-8.87-1.65-2.49-1.1-4.41-2.68-5.74-4.74-1.33-2.06-2-4.51-2-7.35,0-2.67.61-5.03,1.83-7.09,1.22-2.06,3.09-3.78,5.61-5.17,2.52-1.39,5.67-2.38,9.43-2.96l14.52-2.35v9.56l-12.17,2.17c-1.86.35-3.28.94-4.26,1.78-.99.84-1.48,2.04-1.48,3.61,0,1.45.55,2.58,1.65,3.39,1.1.81,2.46,1.22,4.09,1.22,2.14,0,4.03-.46,5.65-1.39,1.62-.93,2.88-2.19,3.78-3.78.9-1.59,1.35-3.35,1.35-5.26v-12.35c0-1.8-.71-3.3-2.13-4.52-1.42-1.22-3.35-1.83-5.78-1.83s-4.36.64-6.13,1.91c-1.77,1.28-3.06,2.96-3.87,5.04l-10.43-4.96c.93-2.67,2.4-4.96,4.43-6.87,2.03-1.91,4.46-3.39,7.3-4.43,2.84-1.04,5.94-1.57,9.3-1.57,4,0,7.53.73,10.61,2.17,3.07,1.45,5.46,3.46,7.17,6.04,1.71,2.58,2.57,5.58,2.57,9v31.3h-12.17v-7.65l2.96-.52c-1.39,2.09-2.93,3.81-4.61,5.17-1.68,1.36-3.57,2.38-5.65,3.04-2.09.67-4.41,1-6.96,1Z"/>
          <path class="cls-1" d="M173.86,138.66v-47.47h12.17v9.39l-.7-2.09c1.1-2.84,2.88-4.94,5.35-6.3,2.46-1.36,5.35-2.04,8.65-2.04,3.59,0,6.74.75,9.43,2.26,2.7,1.51,4.79,3.61,6.3,6.3,1.51,2.7,2.26,5.84,2.26,9.43v30.52h-13.04v-27.74c0-1.85-.36-3.45-1.09-4.78-.73-1.33-1.74-2.38-3.04-3.13-1.3-.75-2.83-1.13-4.56-1.13s-3.19.38-4.52,1.13c-1.33.75-2.36,1.8-3.09,3.13-.73,1.33-1.09,2.93-1.09,4.78v27.74h-13.04Z"/>
          <path class="cls-1" d="M248.53,157.79c-3.65,0-7.04-.61-10.17-1.83-3.13-1.22-5.81-2.91-8.04-5.09-2.23-2.17-3.84-4.74-4.82-7.69l12.09-4.26c.64,2.2,1.94,3.94,3.91,5.22,1.97,1.27,4.32,1.91,7.04,1.91,2.14,0,4-.39,5.56-1.17,1.56-.78,2.77-1.93,3.61-3.43.84-1.51,1.26-3.27,1.26-5.3v-10.87l2.52,3.13c-1.62,2.67-3.71,4.65-6.26,5.96-2.55,1.3-5.54,1.96-8.96,1.96-4.41,0-8.35-1-11.83-3-3.48-2-6.2-4.75-8.17-8.26-1.97-3.51-2.96-7.49-2.96-11.96s.99-8.42,2.96-11.87c1.97-3.45,4.67-6.16,8.09-8.13,3.42-1.97,7.3-2.96,11.65-2.96,3.42,0,6.4.68,8.96,2.04,2.55,1.36,4.72,3.43,6.52,6.22l-1.65,3.13v-10.35h12.17v44.95c0,4.17-1.01,7.9-3.04,11.17-2.03,3.27-4.8,5.84-8.3,7.69-3.51,1.85-7.55,2.78-12.13,2.78ZM248.1,124.49c2.2,0,4.11-.46,5.74-1.39,1.62-.93,2.88-2.23,3.78-3.91.9-1.68,1.35-3.65,1.35-5.91s-.46-4.25-1.39-5.96c-.93-1.71-2.2-3.04-3.83-4-1.62-.96-3.51-1.43-5.65-1.43s-4.16.48-5.87,1.43c-1.71.96-3.04,2.29-4,4-.96,1.71-1.43,3.7-1.43,5.96s.48,4.15,1.43,5.83c.96,1.68,2.29,3,4,3.96,1.71.96,3.67,1.43,5.87,1.43Z"/>
          <path class="cls-1" d="M298.5,139.71c-3.83,0-7.09-.83-9.78-2.48-2.7-1.65-4.74-3.96-6.13-6.91-1.39-2.96-2.09-6.4-2.09-10.35v-28.78h13.04v27.74c0,1.8.36,3.38,1.09,4.74.72,1.36,1.75,2.42,3.09,3.17,1.33.75,2.84,1.13,4.52,1.13s3.26-.38,4.56-1.13c1.3-.75,2.32-1.81,3.04-3.17.72-1.36,1.09-2.94,1.09-4.74v-27.74h13.04v47.47h-12.17v-9.39l.7,2.09c-1.1,2.84-2.88,4.94-5.35,6.3-2.47,1.36-5.35,2.04-8.65,2.04Z"/>
          <path class="cls-1" d="M347.34,139.71c-3.42,0-6.38-.55-8.87-1.65-2.49-1.1-4.41-2.68-5.74-4.74-1.33-2.06-2-4.51-2-7.35,0-2.67.61-5.03,1.83-7.09,1.22-2.06,3.09-3.78,5.61-5.17,2.52-1.39,5.67-2.38,9.43-2.96l14.52-2.35v9.56l-12.17,2.17c-1.86.35-3.28.94-4.26,1.78-.99.84-1.48,2.04-1.48,3.61,0,1.45.55,2.58,1.65,3.39,1.1.81,2.46,1.22,4.09,1.22,2.14,0,4.03-.46,5.65-1.39,1.62-.93,2.88-2.19,3.78-3.78.9-1.59,1.35-3.35,1.35-5.26v-12.35c0-1.8-.71-3.3-2.13-4.52-1.42-1.22-3.35-1.83-5.78-1.83s-4.36.64-6.13,1.91c-1.77,1.28-3.06,2.96-3.87,5.04l-10.43-4.96c.93-2.67,2.4-4.96,4.43-6.87,2.03-1.91,4.46-3.39,7.3-4.43,2.84-1.04,5.94-1.57,9.3-1.57,4,0,7.53.73,10.61,2.17,3.07,1.45,5.46,3.46,7.17,6.04,1.71,2.58,2.57,5.58,2.57,9v31.3h-12.17v-7.65l2.96-.52c-1.39,2.09-2.93,3.81-4.61,5.17-1.68,1.36-3.57,2.38-5.65,3.04-2.09.67-4.41,1-6.96,1Z"/>
          <path class="cls-1" d="M405.39,157.79c-3.65,0-7.04-.61-10.17-1.83-3.13-1.22-5.81-2.91-8.04-5.09-2.23-2.17-3.84-4.74-4.83-7.69l12.09-4.26c.64,2.2,1.94,3.94,3.91,5.22,1.97,1.27,4.32,1.91,7.04,1.91,2.14,0,4-.39,5.56-1.17s2.77-1.93,3.61-3.43c.84-1.51,1.26-3.27,1.26-5.3v-10.87l2.52,3.13c-1.62,2.67-3.71,4.65-6.26,5.96-2.55,1.3-5.54,1.96-8.96,1.96-4.41,0-8.35-1-11.82-3-3.48-2-6.2-4.75-8.17-8.26-1.97-3.51-2.96-7.49-2.96-11.96s.98-8.42,2.96-11.87c1.97-3.45,4.67-6.16,8.09-8.13,3.42-1.97,7.3-2.96,11.65-2.96,3.42,0,6.4.68,8.96,2.04,2.55,1.36,4.72,3.43,6.52,6.22l-1.65,3.13v-10.35h12.17v44.95c0,4.17-1.01,7.9-3.04,11.17-2.03,3.27-4.8,5.84-8.3,7.69-3.51,1.85-7.55,2.78-12.13,2.78ZM404.96,124.49c2.2,0,4.12-.46,5.74-1.39,1.62-.93,2.88-2.23,3.78-3.91.9-1.68,1.35-3.65,1.35-5.91s-.46-4.25-1.39-5.96c-.93-1.71-2.2-3.04-3.83-4-1.62-.96-3.51-1.43-5.65-1.43s-4.16.48-5.87,1.43c-1.71.96-3.04,2.29-4,4-.96,1.71-1.43,3.7-1.43,5.96s.48,4.15,1.43,5.83c.96,1.68,2.29,3,4,3.96,1.71.96,3.67,1.43,5.87,1.43Z"/>
          <path class="cls-1" d="M460.46,139.71c-5.04,0-9.42-1.12-13.13-3.35-3.71-2.23-6.58-5.23-8.61-9-2.03-3.77-3.04-7.94-3.04-12.52s1.06-8.98,3.17-12.69c2.12-3.71,4.97-6.64,8.56-8.78,3.59-2.14,7.65-3.22,12.17-3.22,3.77,0,7.1.6,10,1.78,2.9,1.19,5.35,2.86,7.35,5,2,2.15,3.52,4.62,4.56,7.43,1.04,2.81,1.57,5.87,1.57,9.17,0,.93-.04,1.84-.13,2.74-.09.9-.25,1.67-.48,2.3h-35.56v-9.56h28.17l-6.17,4.52c.58-2.49.55-4.71-.09-6.65-.64-1.94-1.75-3.48-3.35-4.61-1.59-1.13-3.55-1.7-5.87-1.7s-4.2.55-5.83,1.65c-1.62,1.1-2.84,2.73-3.65,4.87-.81,2.15-1.13,4.75-.96,7.83-.23,2.67.09,5.01.96,7.04.87,2.03,2.2,3.61,4,4.74,1.8,1.13,3.97,1.7,6.52,1.7,2.32,0,4.3-.46,5.96-1.39,1.65-.93,2.94-2.2,3.87-3.83l10.43,4.96c-.93,2.32-2.39,4.35-4.39,6.09-2,1.74-4.36,3.09-7.09,4.04-2.73.96-5.71,1.43-8.96,1.43Z"/>
        </g>
        <g>
          <path class="cls-1" d="M238,220.14c-3.83,0-7.09-.83-9.78-2.48s-4.74-3.96-6.13-6.91-2.09-6.4-2.09-10.35v-28.78h13.04v27.74c0,1.8.36,3.38,1.09,4.74.72,1.36,1.75,2.42,3.09,3.17,1.33.75,2.84,1.13,4.52,1.13s3.26-.38,4.56-1.13c1.3-.75,2.32-1.81,3.04-3.17.72-1.36,1.09-2.94,1.09-4.74v-27.74h13.04v47.47h-12.17v-9.39l.7,2.09c-1.1,2.84-2.88,4.94-5.35,6.3-2.46,1.36-5.35,2.04-8.65,2.04Z"/>
          <path class="cls-1" d="M286.84,220.14c-3.42,0-6.38-.55-8.87-1.65-2.49-1.1-4.41-2.68-5.74-4.74-1.33-2.06-2-4.51-2-7.35,0-2.67.61-5.03,1.83-7.09,1.22-2.06,3.09-3.78,5.61-5.17,2.52-1.39,5.67-2.38,9.43-2.96l14.52-2.35v9.56l-12.17,2.17c-1.86.35-3.28.94-4.26,1.78-.99.84-1.48,2.04-1.48,3.61,0,1.45.55,2.58,1.65,3.39,1.1.81,2.46,1.22,4.09,1.22,2.14,0,4.03-.46,5.65-1.39,1.62-.93,2.88-2.19,3.78-3.78.9-1.59,1.35-3.35,1.35-5.26v-12.35c0-1.8-.71-3.3-2.13-4.52-1.42-1.22-3.35-1.83-5.78-1.83s-4.36.64-6.13,1.91c-1.77,1.28-3.06,2.96-3.87,5.04l-10.43-4.96c.93-2.67,2.4-4.96,4.43-6.87,2.03-1.91,4.46-3.39,7.3-4.43,2.84-1.04,5.94-1.56,9.3-1.56,4,0,7.53.73,10.61,2.17,3.07,1.45,5.46,3.46,7.17,6.04,1.71,2.58,2.57,5.58,2.57,9v31.3h-12.17v-7.65l2.96-.52c-1.39,2.09-2.93,3.81-4.61,5.17-1.68,1.36-3.57,2.38-5.65,3.04-2.09.67-4.41,1-6.96,1Z"/>
          <path class="cls-1" d="M322.19,219.1v-47.47h12.17v11.39l-.87-1.65c1.04-4,2.77-6.71,5.17-8.13,2.4-1.42,5.26-2.13,8.56-2.13h2.78v11.3h-4.09c-3.19,0-5.77.97-7.74,2.91-1.97,1.94-2.96,4.68-2.96,8.22v25.56h-13.04Z"/>
          <path class="cls-1" d="M378.98,219.62c-5.74,0-10.19-1.55-13.35-4.65-3.16-3.1-4.74-7.43-4.74-13v-19.04h-8v-11.3h.44c2.43,0,4.3-.61,5.61-1.83,1.3-1.22,1.96-3.04,1.96-5.48v-3.48h13.04v10.78h11.13v11.3h-11.13v18.17c0,1.62.29,2.97.87,4.04.58,1.07,1.48,1.87,2.7,2.39,1.22.52,2.72.78,4.52.78.4,0,.87-.03,1.39-.09.52-.06,1.07-.12,1.65-.17v11.04c-.87.12-1.86.23-2.96.35-1.1.12-2.14.17-3.13.17Z"/>
          <path class="cls-1" d="M413.63,220.14c-5.04,0-9.42-1.12-13.13-3.35-3.71-2.23-6.58-5.23-8.61-9-2.03-3.77-3.04-7.94-3.04-12.52s1.06-8.98,3.17-12.69c2.11-3.71,4.97-6.64,8.56-8.78,3.59-2.14,7.65-3.22,12.17-3.22,3.77,0,7.1.6,10,1.78,2.9,1.19,5.35,2.86,7.35,5,2,2.14,3.52,4.62,4.57,7.43,1.04,2.81,1.56,5.87,1.56,9.17,0,.93-.04,1.84-.13,2.74-.09.9-.25,1.67-.48,2.3h-35.56v-9.56h28.17l-6.17,4.52c.58-2.49.55-4.71-.09-6.65-.64-1.94-1.75-3.48-3.35-4.61-1.59-1.13-3.55-1.7-5.87-1.7s-4.2.55-5.83,1.65c-1.62,1.1-2.84,2.73-3.65,4.87-.81,2.14-1.13,4.75-.96,7.83-.23,2.67.09,5.01.96,7.04.87,2.03,2.2,3.61,4,4.74,1.8,1.13,3.97,1.7,6.52,1.7,2.32,0,4.3-.46,5.96-1.39,1.65-.93,2.94-2.2,3.87-3.83l10.43,4.96c-.93,2.32-2.39,4.35-4.39,6.09-2,1.74-4.36,3.09-7.09,4.04-2.73.96-5.71,1.43-8.96,1.43Z"/>
          <path class="cls-1" d="M442.99,219.1v-47.47h12.17v11.39l-.87-1.65c1.04-4,2.77-6.71,5.17-8.13,2.4-1.42,5.26-2.13,8.56-2.13h2.78v11.3h-4.09c-3.19,0-5.77.97-7.74,2.91-1.97,1.94-2.96,4.68-2.96,8.22v25.56h-13.04Z"/>
          <path class="cls-1" d="M475.15,219.1v-65.82h13.04v65.82h-13.04Z"/>
          <path class="cls-1" d="M503.73,238.23c-1.39,0-2.74-.12-4.04-.35-1.3-.23-2.45-.61-3.43-1.13v-10.69c.81.23,1.77.43,2.87.61,1.1.17,2.12.26,3.04.26,2.55,0,4.38-.59,5.48-1.78,1.1-1.19,2-2.54,2.7-4.04l3.22-7.39-.17,10.87-20.87-52.95h14l13.83,37.65h-5.22l13.82-37.65h14l-20.35,51.91c-1.27,3.25-2.84,5.97-4.7,8.17-1.85,2.2-3.96,3.84-6.3,4.91-2.35,1.07-4.97,1.61-7.87,1.61Z"/>
        </g>
        <path class="cls-2" d="M163.39,171.36c-1.91,1.91-3.39,4.16-4.44,6.74-1.04,2.58-1.56,5.43-1.56,8.57s.52,6,1.56,8.61c1.04,2.61,2.52,4.86,4.44,6.74,1.91,1.89,4.13,3.35,6.65,4.39,2.52,1.04,5.26,1.57,8.22,1.57s5.69-.52,8.22-1.57,4.74-2.51,6.65-4.39c1.91-1.88,3.39-4.13,4.43-6.74.99-2.48,1.5-5.2,1.55-8.15h-20.85v-21.67c-2.96,0-5.7.51-8.22,1.52-2.52,1.01-4.74,2.48-6.65,4.39Z"/>
      </g>
      <g>
        <g>
          <path class="cls-2" d="M192.41,202.65h0c.24-.21.48-.41.71-.64-.23.22-.47.42-.71.64Z"/>
          <path class="cls-2" d="M179.81,207.92c.44-.03.88-.07,1.31-.12-.43.05-.87.09-1.31.12Z"/>
          <path class="cls-2" d="M178.25,207.97c.47,0,.92-.02,1.38-.04-.45.03-.91.04-1.38.04Z"/>
          <path class="cls-1" d="M181.12,207.8c-.43.05-.87.09-1.31.12-.06,0-.12,0-.18.01-.45.03-.91.04-1.38.04-2.96,0-5.7-.52-8.22-1.57-2.52-1.04-4.74-2.51-6.65-4.39-1.91-1.88-3.39-4.13-4.44-6.74-1.04-2.61-1.56-5.48-1.56-8.61s.52-5.98,1.56-8.57c1.04-2.58,2.52-4.82,4.44-6.74,1.91-1.91,4.13-3.38,6.65-4.39,2.52-1.01,5.26-1.52,8.22-1.52v-12.17c-4.93,0-9.48.84-13.65,2.52-4.17,1.68-7.81,4.03-10.91,7.04-3.1,3.01-5.51,6.55-7.22,10.61-1.71,4.06-2.56,8.46-2.56,13.22s.87,9.16,2.61,13.22c1.74,4.06,4.16,7.61,7.26,10.65,3.1,3.04,6.74,5.41,10.91,7.09,4.17,1.68,8.69,2.52,13.56,2.52,3.27,0,6.38-.39,9.33-1.15l-6.46-11.2s0,0,0,0Z"/>
          <path class="cls-1" d="M199.1,187.13c-.05,2.95-.55,5.67-1.55,8.15-1.04,2.61-2.52,4.86-4.43,6.74-.23.22-.47.42-.71.64l6.49,11.1c1.36-.97,2.63-2.04,3.83-3.21,3.1-3.04,5.52-6.59,7.26-10.65,1.68-3.92,2.53-8.18,2.59-12.76h-13.48Z"/>
          <path class="cls-4" d="M210.03,173.45c-1.71-4.06-4.12-7.59-7.22-10.61-3.1-3.01-6.74-5.36-10.91-7.04-4.17-1.68-8.72-2.52-13.65-2.52v12.17c-2.96,0-5.7.51-8.22,1.52-2.52,1.01-4.74,2.48-6.65,4.39-1.91,1.91-3.39,4.16-4.44,6.74-1.04,2.58-1.56,5.43-1.56,8.57s.52,6,1.56,8.61c1.04,2.61,2.52,4.86,4.44,6.74,1.91,1.89,4.13,3.35,6.65,4.39,2.52,1.04,5.26,1.57,8.22,1.57.47,0,.92-.02,1.38-.04.06,0,.12,0,.18-.01.44-.03.88-.07,1.31-.12,0,0,0,0,0,0l6.46,11.2,4.69,8.13h14.45l-7.82-13.38-6.49-11.1h0c.24-.21.48-.41.71-.64,1.91-1.88,3.39-4.13,4.43-6.74.99-2.48,1.5-5.2,1.55-8.15h13.48c0-.15.02-.3.02-.46,0-4.75-.86-9.16-2.57-13.22Z"/>
        </g>
        <path class="cls-2" d="M163.38,171.37c-1.91,1.91-3.39,4.16-4.44,6.74-1.04,2.58-1.56,5.43-1.56,8.57s.52,6,1.56,8.61c1.04,2.61,2.52,4.86,4.44,6.74,1.91,1.89,4.13,3.35,6.65,4.39,2.52,1.04,5.26,1.57,8.22,1.57s5.69-.52,8.22-1.57c2.52-1.04,4.74-2.51,6.65-4.39,1.91-1.88,3.39-4.13,4.43-6.74.99-2.48,1.5-5.2,1.55-8.15h-20.85v-21.67c-2.96,0-5.7.51-8.22,1.52-2.52,1.01-4.74,2.48-6.65,4.39Z"/>
        <path class="cls-3" d="M199.1,187.13c0-.15.02-.3.02-.46,0-3.13-.52-5.98-1.57-8.57-1.04-2.58-2.52-4.82-4.43-6.74-1.91-1.91-4.13-3.38-6.65-4.39-2.52-1.01-5.26-1.52-8.22-1.52v21.67h20.85Z"/>
      </g>
    </g>
  </g>
</svg>