<?xml version="1.0" encoding="UTF-8"?>
<svg id="Layer_2" data-name="Layer 2" xmlns="http://www.w3.org/2000/svg" viewBox="0 0 129.99 70">
  <defs>
    <style>
      .cls-1 {
        fill: #dd3b10;
      }

      .cls-2 {
        fill: #ffd24e;
      }

      .cls-3 {
        fill-rule: evenodd;
      }
    </style>
  </defs>
  <g id="contenidos">
    <g>
      <path d="M67.07,36.54c4.45,3.14,8.95,6.22,13.49,9.24,2.24,1.48,4.48,2.95,6.74,4.4,1.87,1.2,3.8,2.77,6.09,1.67,1.92-.92,3.65-2.41,5.5-3.48s3.91-2.13,5.92-3.1c4.02-1.94,8.13-3.7,12.13-5.68,4.53-2.25,8.89-4.82,12.72-8.15.53-.46.39-1.46-.23-1.77-4.58-2.3-8.58-5.47-12.43-8.81-1.89-1.64-3.75-3.32-5.65-4.95-1.76-1.52-3.53-3.14-5.98-3.22-2.29-.08-4.68.85-6.75,1.75-2.28.99-4.42,2.26-6.53,3.58-4.3,2.69-8.49,5.21-13.27,7-2.7,1.01-5.43,1.93-8.09,3.06-1.97.84-5.45,1.82-5.68,4.34-.04.48.38.97.83,1.08,7.72,1.97,15.63,3.18,23.59,3.58,2,.1,4.01.15,6.02.15,1.79,0,3.92.23,5.62-.43,1.43-.56,2.24-1.83,2.89-3.15.81-1.65,1.52-3.35,2.17-5.07,1.53-4.04,2.61-8.23,3.26-12.5.22-1.42-1.95-2.03-2.17-.6-.66,4.34-1.77,8.61-3.34,12.71-.45,1.18-.94,2.35-1.48,3.49-.38.82-.73,1.78-1.35,2.44-.78.84-1.89.78-2.95.81-1.2.03-2.41.04-3.61.03-9.46-.07-18.88-1.31-28.05-3.65l.83,1.08c.05-.53,2.15-1.3,2.57-1.5,1.1-.53,2.22-1,3.36-1.44,2.25-.88,4.55-1.66,6.81-2.52,4.33-1.65,8.22-3.85,12.13-6.32,3.68-2.33,7.65-4.94,12.03-5.61,2.63-.4,4.36,1.46,6.19,3.05s3.54,3.13,5.32,4.67c3.89,3.36,7.95,6.57,12.56,8.88l-.23-1.77c-6.47,5.62-14.52,8.85-22.19,12.44-3.79,1.77-7.54,3.64-11.04,5.94-.8.52-1.58,1.23-2.45,1.61-1.23.54-2.55-.69-3.54-1.33-2.12-1.36-4.23-2.74-6.34-4.13-4.82-3.18-9.58-6.45-14.3-9.77-1.19-.84-2.31,1.11-1.14,1.94h0Z"/>
      <g>
        <g>
          <path class="cls-3" d="M8.3,40.24c3.06-3.74,3.36-4.26,3.43-4.31.16-.14.33-.28.53-.32h0c.67-1.35,1.27-2.33,1.56-2.8,1.19-1.92,2.74-3.81,2.88-3.97,2.69-3.19,6.82-7.23,13.24-10.73.13-.07,1.55-.85,1.61-.85.34,0,.66.11.99.11-.17.38-.04.42-.21.79,0,0,0,0-.21.14-4.82,3.22-7.78,6.28-8.26,6.75-.58.57-3.73,3.66-6.48,8-6.52,10.26-4.98,16.47-4.64,17.7,1.52.7,8.1.09,15.49-4.69,6.82-4.41,10.21-10.12,10.29-10.15.25-.1.54-.08.78-.18.03.41.15.38.17.78,0,.07-.07.13-.11.19-2.78,4.6-7.06,9.38-13.01,12.89-6.36,3.76-14.04,5.41-15.93,2.78-.47-.66-.95-2.73-1.03-4.59-.12-2.67.33-5.2.99-7.41-4.05,5.16-8.62,10.64-8.44,12.79.06.67.92.63,1.91,1.34,2.69,1.9,1.7,6.86,1.91,8.26.04,0,.07,0,.16,0,1.91-.15,4.58-1.76,4.95-1.98,3.73-2.24,9.43-7.06,9.68-7.17.28-.13.59-.28.89-.24.31.04.54.3.81.46,0,0,.21.85.21.86,0,.07-.07.58-.43.85-5.3,4.03-10.13,7.92-14.22,9.04-1.11.3-3.5.91-4.08-1.13-.35-1.27.33-4.24-.36-6.32-.49-1.47-1.62-1.21-2.61-2.15-2.71-2.58,2.08-8.07,7.52-14.74Z"/>
          <path class="cls-3" d="M24.25,65.43c.09.67.43.33,1.06.56.24.09,1.03.49,1.46.93,1.25,1.28.95,2.6.99,2.68.07.14.17.26.24.4.11-.11.26-.17.37-.28,0,0,.09-.29.13-.52.36-2.25-1.1-3.95-2.19-4.3-.02,0-.04-.02-.07-.02.02-.09.03-.15.03-.18.32-3.51.82-6.22,1.16-11.14.47-.07,1.03-.15,1.11-.16,1.51-.23,3.73-.6,6.32-1.7.06,3.07-.13,3.44.41,11.95.03.54.34.33.72.71.14-.3.57-.42.71-.73,0-.02.14-5.15.45-8.78.02-.28.36-3.75.34-3.81-.07-.18-.1-.38-.16-.57.53-.3,1.06-.63,1.6-.99.06.03.11.07.17.08.02,0,.02-.02.3-.06.31-.04,2.33-.3,3.82-.79,1.03-.34,1.5-.58,1.62-.64,7.36-3.84,9.32-10.12,9.3-18.12,0-.06-.05-1.25-.34-3.18-.08-.57-.17-1.09-.17-1.09-.09-.16-.14-.35-.25-.49.36-1.84.48-2.97.48-2.99,0-.37-.02-.72-.06-.92-.11-.61-.4-1.23-.41-1.22-.2.06-1.14,1.77-1.2,2.25-.39,3.19-2.19,12.5-7.69,19.58-6.85,8.83-13.55,9.56-17.87,10.17-.06-.03-.13-.06-.19-.09-.11-.06-.69-.35-1.16,1-.02.04-.34,3.84-.36,4.17-.04.45-.29,2.88-.21,7.11,0,.14,0,.28,0,.41,0,.02,0,.09.02.18-.09.02-.56.15-.5.61ZM41.47,47.54c1.54-1.34,3.1-3,4.65-5.05,2.73-3.63,4.52-7.71,5.7-11.26-.25,7.49-2.68,11.93-8.11,14.96-.08.05-1.02.65-2.24,1.35Z"/>
        </g>
        <path class="cls-3" d="M31.9,69.46c.04-.16.15-.29.19-.45,0,0-.09-.39-.17-.65-.72-2.24-2.5-4.2-5.28-4.46-.58-.05-.59-.08-1.15.09-.08.02-.44.15-.44.15-.17.16-.32.35-.49.51.18.15.33.33.51.49.04.04.05,0,.66.24.48.19.54,0,2.13.52.3.1,2.37.63,3.55,3.19.02.04.02.1.06.13.13.1.3.15.43.24Z"/>
        <path class="cls-3" d="M42.66,68.25c.03-.16.14-.3.18-.45,0,0-.1-.39-.19-.64-.79-2.21-2.63-4.12-5.41-4.29-.58-.04-.59-.06-1.15.12-.08.02-.44.16-.44.16-.17.16-.3.36-.47.53.18.15.34.32.53.47.04.04.05,0,.67.22.49.17.54-.01,2.14.45.3.09,2.39.55,3.65,3.07.02.04.02.1.06.13.13.1.3.14.43.23Z"/>
        <path class="cls-3" d="M32.91,66.34c.03-.1.1-.2.13-.3,0,0-.06-.21-.12-.35-.94-2.14-4.28-3.45-5.68-3.11-.76.19-1.41.78-1.42.8-.08.22-.13.45-.21.66.22.06.44.16.66.22.08.02.09-.08,1.08.05.47.06,1.13-.12,2.32.13,1.09.23,2.37.83,2.9,1.68.01.02.02.06.04.07.09.06.2.08.3.14Z"/>
        <path class="cls-3" d="M43.58,65.24c.03-.1.1-.2.13-.3,0,0-.06-.21-.12-.35-.94-2.14-4.28-3.45-5.68-3.11-.76.19-1.41.78-1.42.8-.08.22-.13.45-.21.66.22.06.44.16.66.22.08.02.09-.08,1.08.05.47.06,1.13-.12,2.32.13,1.09.23,2.37.83,2.9,1.68.01.02.02.06.04.07.09.06.2.08.3.14Z"/>
        <path class="cls-3" d="M38.76,68.37c.11-.11.25-.18.36-.29,0,0,.08-.3.11-.53.29-2.26-1.22-3.9-2.31-4.22-.22-.06-.81-.24-1.56-.03-.06.01-.56.15-.48.62.11.67.44.31,1.08.53.24.08,1.04.45,1.49.89,1.29,1.24,1.03,2.57,1.07,2.64.07.14.18.25.25.39Z"/>
        <ellipse cx="45.92" cy="7.96" rx="1.6" ry="1.74" transform="translate(-.22 1.43) rotate(-1.78)"/>
        <g>
          <path d="M64.55,18.6s15.27,1.82,13.4.48c-2.32-1.67-2.33-8.61,2.33-12,7.15,2.47,11.95,8.18,11.95,17.47,0,2.26-3.15-2.12-8.58-2.82-5.43-.71-18.92-.68-18.92-.68,0,0-9.81.61-12.09-.73-1.03-.61-1.69-1.54-2.07-2.64,2.78.21,10.53.79,13.97.9.02,0,0,.04,0,.04Z"/>
          <path class="cls-2" d="M49.8,7.07c1.07-3.74,3.52-2.99,3.52-2.99,0,0,5.03.07,11,.5-3.07,3.47-2.12,13.02.22,13.98-3.44-.1-11.19-.68-13.97-.9-.78-2.25-1.48-8.09-.76-10.6Z"/>
          <path class="cls-1" d="M64.32,4.59c.06,0,.12,0,.18.01,4.59.34,9.72.9,13.53,1.81.77.18,1.51.41,2.24.67-4.66,3.39-4.65,10.33-2.33,12,1.87,1.34-13.4-.48-13.4-.48,0,0,.01-.03,0-.04-2.34-.96-3.29-10.51-.22-13.98Z"/>
        </g>
        <path d="M52.23,4.2C50.4,1.78,47.54.26,44.46.03c-6.57-.53-11.13,6.19-12.26,11.86-.6,2.84-.7,5.73-.21,8.51.4-2.78,1.07-5.46,2.06-7.95,3.64-8.92,9.08-11.08,18.19-8.24h0Z"/>
      </g>
    </g>
  </g>
</svg>