<?xml version="1.0" encoding="UTF-8"?>
<svg id="Layer_2" data-name="Layer 2" xmlns="http://www.w3.org/2000/svg" viewBox="0 0 113.52 86.16">
  <defs>
    <style>
      .cls-1 {
        fill: #dd3b10;
      }

      .cls-2 {
        fill: #ffd24e;
      }

      .cls-3 {
        fill-rule: evenodd;
      }
    </style>
  </defs>
  <g id="contenidos">
    <g>
      <g>
        <path class="cls-3" d="M10.22,49.53c3.76-4.61,4.14-5.24,4.22-5.31.2-.17.4-.35.66-.39h.01c.83-1.67,1.57-2.87,1.93-3.45,1.46-2.37,3.37-4.7,3.54-4.89,3.31-3.93,8.39-8.9,16.29-13.2.16-.09,1.91-1.04,1.98-1.04.41,0,.82.13,1.22.13-.21.47-.05.51-.26.97,0,0,0,0-.26.17-5.94,3.97-9.58,7.73-10.17,8.3-.72.71-4.59,4.5-7.98,9.85-8.02,12.63-6.13,20.27-5.71,21.78,1.87.86,9.97.11,19.06-5.77,8.39-5.43,12.57-12.45,12.66-12.49.31-.12.66-.1.97-.22.03.5.18.47.21.97,0,.09-.09.16-.13.23-3.43,5.67-8.7,11.54-16.02,15.86-7.82,4.63-17.28,6.66-19.61,3.42-.58-.81-1.17-3.36-1.26-5.66-.14-3.28.4-6.4,1.21-9.12-4.99,6.35-10.62,13.09-10.39,15.74.07.83,1.13.78,2.35,1.65,3.32,2.33,2.1,8.45,2.35,10.17.05,0,.09,0,.2,0,2.35-.18,5.64-2.16,6.09-2.43,4.59-2.75,11.61-8.68,11.91-8.82.35-.16.72-.34,1.1-.29.38.05.66.37.99.56,0,0,.26,1.05.26,1.06-.01.09-.09.71-.53,1.05-6.52,4.95-12.47,9.75-17.51,11.13-1.36.37-4.31,1.12-5.02-1.39-.44-1.57.41-5.22-.44-7.78-.6-1.81-1.99-1.49-3.21-2.64-3.33-3.18,2.56-9.94,9.26-18.14Z"/>
        <path class="cls-3" d="M29.85,80.54c.11.83.53.41,1.31.69.3.11,1.26.6,1.8,1.15,1.53,1.57,1.17,3.2,1.21,3.29.08.17.21.32.3.49.14-.13.32-.21.45-.34,0,0,.11-.36.16-.64.44-2.77-1.35-4.86-2.69-5.29-.02-.01-.05-.02-.09-.03.02-.11.03-.19.03-.22.39-4.32,1.01-7.66,1.43-13.71.57-.08,1.26-.19,1.37-.2,1.86-.29,4.59-.74,7.78-2.09.07,3.78-.16,4.24.5,14.71.04.67.41.4.89.87.18-.37.7-.52.87-.9.01-.03.17-6.33.56-10.81.03-.35.45-4.62.42-4.68-.08-.22-.12-.47-.2-.7.65-.37,1.3-.78,1.97-1.22.07.04.14.08.21.1.03.01.02-.03.37-.07.39-.05,2.86-.37,4.71-.98,1.26-.41,1.84-.71,1.99-.79,9.06-4.72,11.48-12.46,11.45-22.31,0-.07-.06-1.53-.41-3.91-.1-.7-.21-1.34-.21-1.34-.11-.2-.17-.44-.31-.61.45-2.26.59-3.66.59-3.68,0-.46-.03-.89-.07-1.14-.14-.75-.49-1.51-.5-1.51-.24.07-1.41,2.18-1.48,2.76-.48,3.93-2.7,15.38-9.46,24.1-8.43,10.87-16.67,11.77-22,12.52-.07-.03-.16-.07-.24-.11-.14-.07-.84-.43-1.43,1.23-.02.05-.41,4.73-.45,5.14-.05.56-.36,3.55-.26,8.75,0,.17,0,.34,0,.51,0,.03,0,.11.02.22-.11.03-.68.19-.62.75ZM51.04,58.51c1.89-1.64,3.82-3.69,5.72-6.22,3.36-4.47,5.57-9.49,7.02-13.86-.31,9.21-3.3,14.68-9.98,18.41-.1.06-1.26.8-2.76,1.67Z"/>
      </g>
      <path class="cls-3" d="M39.27,85.5c.05-.19.19-.36.23-.55,0,0-.11-.48-.21-.8-.89-2.75-3.07-5.16-6.49-5.49-.72-.07-.73-.1-1.42.11-.1.03-.54.18-.54.19-.22.19-.39.43-.6.63.22.19.41.41.63.6.05.05.07,0,.82.3.6.23.66,0,2.62.64.37.12,2.91.77,4.38,3.92.02.05.02.12.07.16.16.13.36.18.53.3Z"/>
      <path class="cls-3" d="M52.51,84c.04-.19.17-.36.22-.56,0,0-.12-.47-.24-.79-.97-2.72-3.23-5.07-6.66-5.29-.72-.04-.73-.08-1.42.15-.1.03-.54.2-.54.2-.21.2-.37.44-.58.65.23.18.42.4.65.58.06.04.07,0,.83.27.6.21.66-.01,2.64.56.37.11,2.94.68,4.5,3.78.03.05.03.12.08.16.17.12.37.17.53.28Z"/>
      <path class="cls-3" d="M40.5,81.65c.04-.13.12-.25.16-.37,0,0-.07-.25-.15-.43-1.16-2.64-5.26-4.25-7-3.82-.94.23-1.73.96-1.74.98-.1.27-.16.55-.26.82.27.08.54.19.82.27.1.03.11-.09,1.32.07.57.07,1.39-.15,2.86.16,1.34.29,2.92,1.02,3.57,2.07.02.03.02.07.05.09.11.07.25.09.36.17Z"/>
      <path class="cls-3" d="M53.64,80.3c.04-.13.12-.25.16-.37,0,0-.07-.25-.15-.43-1.16-2.64-5.26-4.25-7-3.82-.94.23-1.73.96-1.74.98-.1.27-.16.55-.26.82.27.08.54.19.82.27.1.03.11-.09,1.32.07.57.07,1.39-.15,2.86.16,1.34.29,2.92,1.02,3.57,2.07.02.03.02.07.05.09.11.07.25.09.36.17Z"/>
      <path class="cls-3" d="M47.71,84.16c.13-.13.31-.22.45-.36,0,0,.1-.36.13-.65.36-2.78-1.5-4.81-2.85-5.2-.27-.08-1-.29-1.92-.04-.07.02-.69.19-.6.77.13.83.54.39,1.33.65.3.1,1.28.56,1.83,1.09,1.58,1.53,1.26,3.16,1.31,3.25.09.17.22.31.31.48Z"/>
      <ellipse cx="56.52" cy="9.8" rx="1.97" ry="2.14" transform="translate(-.28 1.76) rotate(-1.78)"/>
      <g>
        <path d="M79.45,22.9s18.79,2.24,16.49.59c-2.86-2.06-2.87-10.6,2.86-14.77,8.8,3.04,14.71,10.07,14.71,21.5,0,2.78-3.88-2.61-10.57-3.47-6.68-.87-23.29-.84-23.29-.84,0,0-12.07.75-14.88-.9-1.27-.75-2.08-1.9-2.55-3.25,3.43.26,12.96.98,17.2,1.1.03.01.01.04.01.04Z"/>
        <path class="cls-2" d="M61.3,8.7c1.31-4.6,4.34-3.67,4.34-3.67,0,0,6.19.08,13.53.62-3.78,4.27-2.61,16.02.27,17.21-4.24-.13-13.77-.84-17.2-1.1-.96-2.77-1.82-9.96-.94-13.05Z"/>
        <path class="cls-1" d="M79.17,5.65c.07,0,.15.01.22.02,5.65.42,11.96,1.11,16.66,2.23.95.23,1.86.51,2.76.82-5.73,4.17-5.72,12.71-2.86,14.77,2.3,1.66-16.49-.59-16.49-.59,0,0,.02-.03-.01-.04-2.88-1.18-4.05-12.94-.27-17.21Z"/>
      </g>
      <path d="M64.29,5.18C62.04,2.2,58.52.32,54.73.04c-8.09-.65-13.69,7.61-15.1,14.59-.73,3.49-.87,7.05-.26,10.48.49-3.42,1.31-6.72,2.53-9.79,4.48-10.98,11.18-13.64,22.38-10.14h0Z"/>
    </g>
  </g>
</svg>